<svg xmlns="http://www.w3.org/2000/svg" viewBox="0 0 628 628"><linearGradient id="a" gradientUnits="userSpaceOnUse" x1="-1.153" y1="314" x2="631.555" y2="314"><stop offset="0" stop-color="#0e4e96"/><stop offset=".2" stop-color="#b43a2c"/><stop offset=".409" stop-color="#662d91"/><stop offset=".611" stop-color="#8ea5ae"/><stop offset=".802" stop-color="#00a399"/><stop offset="1" stop-color="#f09da2"/></linearGradient><path d="M574.9 139.2c-3.2-4.8-9.8-6.1-14.6-2.9-4.8 3.2-6.1 9.8-2.9 14.6C589.9 199.2 607 255.6 607 314c0 78.3-30.5 151.8-85.8 207.2C465.8 576.5 392.3 607 314 607s-151.8-30.5-207.2-85.8C51.5 465.8 21 392.3 21 314s30.5-151.8 85.8-207.2C162.2 51.5 235.7 21 314 21c64.5 0 126.8 21.2 177.7 60l-58.1.2 32.2 31.9 75.5-.3-.3-75.5-32.2-31.9.3 62.5C453.7 24 385.1 0 314 0 230.1 0 151.3 32.7 92 92 32.7 151.3 0 230.1 0 314s32.7 162.7 92 222 138.2 92 222 92 162.7-32.7 222-92 92-138.2 92-222c0-62.6-18.4-123-53.1-174.8z" fill="url(#a)"/></svg>