<svg xmlns="http://www.w3.org/2000/svg" xmlns:xlink="http://www.w3.org/1999/xlink" viewBox="0 0 1920 3448"><defs><path id="a" d="M.5 0h1920v3448H.5z"/></defs><clipPath id="b"><use xlink:href="#a" overflow="visible"/></clipPath><g clip-path="url(#b)" fill-rule="evenodd" clip-rule="evenodd"><path d="M-32 1881h855v834H-32v-834z" fill="#d7dde0"/><path d="M-32-33h1200v1188H-32V-33z" fill="#8ea5ae"/><path d="M1656 2748h291v710h-291v-710z" fill="#d76055"/><path d="M376 1035h1606v870H376v-870z" fill="none"/><path d="M1946-30v960l-381 975-1598-6-4-783.6S745 340.1 1118-30h828z" fill="#662d91"/><path d="M-24 3458c.3-262 .7-529 1-791 639.6-633.9 1329.4-1268.1 1969-1902v2015c-78.7 224.3-177.3 453.7-256 678H-24z" fill="#a43c30"/></g></svg>