<svg data-name="圖層 1" xmlns="http://www.w3.org/2000/svg" viewBox="0 0 283.46 37.61"><path d="M191.79 1h23.38v2.1H204.7v1.45H217v6.52h-2.66V6.62h-9.64v5.53h-2.65V6.62h-9.41v4.45H190V4.55h12.1V3.1h-10.31zm10.11 14.13a5.31 5.31 0 00-1 .13q-2.27.36-5.07.72v1.24h6.52v1.84h-6.52v1.57H211v-1.57h-6.39v-1.84H211v-1.66h-6.64v-2.09h9.3v9.17h-6.52v2.18c0 .74.27 1.12.82 1.12h5.19a2 2 0 001.38-.43 4.74 4.74 0 00.78-2.35l2.54.69c-.28 1.79-.74 2.94-1.38 3.47a3.72 3.72 0 01-2.6.91h-6.48c-1.86 0-2.78-.69-2.78-2.08v-3.51h-2.36A6 6 0 01201 25a5.71 5.71 0 01-2.36 1.78c-1.08.63-3.43 1.13-7 1.54l-1.44-2.2a29.5 29.5 0 005.9-.89 5.86 5.86 0 002.86-1.56 3.4 3.4 0 00.73-1.06h-6.39v-9.25l1.48.75c1-.09 1.87-.21 2.71-.33a33.76 33.76 0 003.53-.87l1.57 1.63a.71.71 0 01.24.53.22.22 0 01-.24.25zm-7.81-7.41h6.63V9.5h-6.63zm0 2.87h6.63v1.8h-6.63zM206 7.72h6.84V9.5H206zm0 2.87h6.84v1.8H206zM224.46 9a23 23 0 014.34 3.5l-1.8 1.95a31.91 31.91 0 00-4.5-3.45zm4 8.42l1.69 2.05a79.51 79.51 0 01-4.61 7.72c0 .66-.2 1-.58 1l-2.32-2a53.37 53.37 0 005.8-8.73zM225.79.69a24 24 0 014.43 3.17l-1.78 1.9a31.5 31.5 0 00-4.61-3.11zm8.3 9.05h14.14v4.95h2.29v2.41h-2.29V22h-6.31v2.75c0 1.61-.4 2.61-1.23 3-.62.33-2.35.51-5.15.51l-.86-2.54a28.88 28.88 0 003.86-.12c.44-.08.63-.37.63-.87V22h-5.08v-2.49h5.08V17.1h-8.83v-2.41h8.83v-2.54h-5.08zm14.46-7.36a10.25 10.25 0 00-1.32.09c-4.48.53-9.18.9-14.11 1.15l-1.78-2.42c3.3-.08 6.11-.21 8.45-.41 2.12-.16 4.74-.41 7.84-.79l1.86 1.81a.71.71 0 01.15.48c0 .16-.1.24-.32.24zm-15.3 1.82a19.26 19.26 0 013 3.52l-2.41 1.53a17.8 17.8 0 00-2.53-3.49zm6.5-.46a19.51 19.51 0 013.05 3.62l-2.3 1.56a18.71 18.71 0 00-2.56-3.74zm2.17 8.41v2.54h3.53v-2.54zm0 5v2.41h3.53V17.1zm5.71-13.87l2 1c.32.11.49.23.49.35s-.17.45-.49.63A16.28 16.28 0 01247 8.8l-2.3-1.44a18.12 18.12 0 002.93-4.13zm10.98 14.06l2.23 1.05q.54.18.54.39c0 .25-.17.45-.52.64a38.06 38.06 0 01-3.1 7.36l-2.56-1.6a38.21 38.21 0 003.41-7.84zm-.4-16.26h22.71v14.24h-22.71zM261 6.84h7.08v-3.1H261zm7.08 5.82V9.5H261v3.16zm-5.51 4l3.21.37c.42 0 .63.19.63.45s-.21.57-.63.87a1.26 1.26 0 00-.44 1.09v3.11a4.36 4.36 0 00.36 2 2 2 0 001.65.53h6.4a3.31 3.31 0 001.83-.38c.44-.24.81-1 1.09-2.26l2.66 1.2c-.47 1.73-1 2.83-1.7 3.32a3.17 3.17 0 01-2.05.66h-9.29a3.58 3.58 0 01-2.88-1.17 4.94 4.94 0 01-.84-3.13zm7.47-.4a29.79 29.79 0 014.42 4.84l-2.28 1.56a23.94 23.94 0 00-4-4.91zm.81-12.5v3.1h7.27V3.74zm7.27 8.92V9.5h-7.27v3.16zm.82 5.19a33.08 33.08 0 014.49 5.76L281 25.18a28.9 28.9 0 00-4-5.76z" fill="#00a1e9"/><path d="M16.54 28.37L7.13 12.44a16 16 0 01-1.21-2.13 4.81 4.81 0 00-.3-.91h-.17a5.72 5.72 0 00.17 1.06v17.91H0V0h5.92l8.8 14.56a18.9 18.9 0 01.9 1.82l.47.91h.14a2.34 2.34 0 01-.14-.91V0h5.6v28.37zm115.4 0V12.73a2.62 2.62 0 00-.15-1.06 1.37 1.37 0 00-.47-1.06 2.36 2.36 0 00-1-.6 3.72 3.72 0 00-1.52-.31 5.23 5.23 0 00-1.67.15 2.85 2.85 0 00-1.06.31v18.21h-6.57V7.27a28.61 28.61 0 019.41-1.52 18.93 18.93 0 014.4.46 11.88 11.88 0 013 1.53 4.77 4.77 0 011.55 2.26 5.19 5.19 0 01.6 2.72v15.65zm25.14-1.22a4.93 4.93 0 01-2 1.22 22.93 22.93 0 01-3.49.3 8.57 8.57 0 01-6.52-2.88 14 14 0 01-2-3.64 17.32 17.32 0 01-.61-5 15.72 15.72 0 01.76-4.85 8.39 8.39 0 012-3.64 7.87 7.87 0 012.87-2.12 7 7 0 013.5-.77 10.48 10.48 0 013.33.46 9.73 9.73 0 012.13 1.06l-1.36 3.64a2.49 2.49 0 00-1.07-.6 2.53 2.53 0 00-1.52-.3 3.53 3.53 0 00-3.1 1.8 12.09 12.09 0 00-.92 5.3 10.08 10.08 0 001.06 5.17 3.12 3.12 0 002.86 1.81 6.13 6.13 0 001.67-.14 4.94 4.94 0 001.07-.76l1.36 3.94zM42.89 8.79c-1.53-2.11-4-3-7.14-3a10.3 10.3 0 00-4.4.77 7.7 7.7 0 00-3 2.27 10.51 10.51 0 00-2 3.65 15.45 15.45 0 00-.6 4.69 16.56 16.56 0 00.6 4.86 11.13 11.13 0 002.12 3.64 7.39 7.39 0 003.34 2.28 11.22 11.22 0 004.56.76 19.61 19.61 0 004.69-.46 14.08 14.08 0 003.35-1.06l-1.51-3.94a20.15 20.15 0 01-2.28.76 12.65 12.65 0 01-3.49.3 5.6 5.6 0 01-3.79-1.06 6.69 6.69 0 01-1.53-3.8L45 17.6c.17-3.81-.45-6.69-2.11-8.81zm-11.54 7.59c-.15-2.28.15-4.1.91-5.16a3.43 3.43 0 013.18-1.66 3.09 3.09 0 012.74 1.35 7.69 7.69 0 01.91 4.25zM68 12.59a11 11 0 00-2-3.65 8.14 8.14 0 00-3-2.42 12.11 12.11 0 00-8.5 0 8.06 8.06 0 00-3 2.42 8.41 8.41 0 00-1.83 3.65 15.09 15.09 0 00-.59 4.54 16.14 16.14 0 00.59 4.71 8.41 8.41 0 001.83 3.65 8.06 8.06 0 003 2.42 9.4 9.4 0 004.25.76 9.37 9.37 0 004.25-.76 8.14 8.14 0 003-2.42 11 11 0 002-3.65 24.35 24.35 0 00.61-4.71 22.8 22.8 0 00-.61-4.54zm-5.92 7.28a11.08 11.08 0 01-.62 2.43 4.66 4.66 0 01-.91 1.52 3.27 3.27 0 01-1.81.6 2.83 2.83 0 01-1.66-.6 5.29 5.29 0 01-1.07-1.52 6.41 6.41 0 01-.46-2.43 15.84 15.84 0 01-.15-2.74 17.47 17.47 0 01.15-2.87 5.19 5.19 0 01.5-2.26 4.3 4.3 0 011.07-1.66 2 2 0 011.66-.61 2.35 2.35 0 011.81.61A4 4 0 0161.5 12a8.05 8.05 0 01.62 2.29c0 .9.15 1.82.15 2.87s-.15 1.95-.15 2.71zm26.7-13.66a21.84 21.84 0 00-4.71-.46 13.32 13.32 0 00-5 .77 9.93 9.93 0 00-3.49 2.42 8.65 8.65 0 00-2.12 3.79 13.37 13.37 0 00-.76 5 14.24 14.24 0 00.61 4.55 9.34 9.34 0 002 3.33 7.88 7.88 0 002.88 2.12 9.13 9.13 0 003.64.76c.92 0 1.67-.14 2.43-.14a4.48 4.48 0 001.51-.62V29a4.31 4.31 0 01-1 3A4.79 4.79 0 0181 33.21a10.32 10.32 0 01-3-.45 6.85 6.85 0 01-2.43-.9l-1.66 4.24a15.91 15.91 0 003.49 1.07 25 25 0 004.85.44 17.11 17.11 0 003.94-.44 12.11 12.11 0 003-1.67 7.44 7.44 0 002-2.89 11.69 11.69 0 00.76-4.1V7.27a11.51 11.51 0 00-3.17-1.06zm-3 18.06a3.48 3.48 0 01-2.11.61 3.56 3.56 0 01-3.49-1.83 11.13 11.13 0 01-1.07-5.61c0-2.73.31-4.71 1.07-6.07a3.72 3.72 0 013.49-2 4.52 4.52 0 012.11.45zm27.53-15.48c-1.67-2.11-4-3-7.28-3a9.45 9.45 0 00-7.44 3 10.33 10.33 0 00-1.81 3.65 15.06 15.06 0 00-.78 4.69 16.12 16.12 0 00.78 4.87 10.47 10.47 0 002.12 3.64 7.21 7.21 0 003.33 2.28 11.22 11.22 0 004.56.76 20.63 20.63 0 004.69-.46 15.09 15.09 0 003.19-1.06l-1.36-3.94a15.86 15.86 0 01-2.43.76 11.46 11.46 0 01-3.33.3 5.66 5.66 0 01-3.8-1.06 6.83 6.83 0 01-1.67-3.8l13.36-1.81c.15-3.82-.62-6.7-2.13-8.82zm-11.53 7.59c-.15-2.28.15-4.1.91-5.16a3.44 3.44 0 013.19-1.66 3 3 0 012.57 1.35c.77.92 1.07 2.28 1.07 4.25zm76.64-7.59c-1.67-2.11-4.1-3-7.29-3a9.19 9.19 0 00-4.24.77 9.55 9.55 0 00-3.19 2.27 10.49 10.49 0 00-2 3.65 15.45 15.45 0 00-.6 4.69 12.7 12.7 0 00.75 4.86 10.63 10.63 0 002 3.64 8.19 8.19 0 003.33 2.28 11.47 11.47 0 004.7.76 21.78 21.78 0 004.71-.46 15.49 15.49 0 003.19-1.06l-1.53-3.94A19 19 0 01176 24a12.19 12.19 0 01-3.5.3 5.21 5.21 0 01-3.64-1.06 6.83 6.83 0 01-1.67-3.8l13.35-1.81c.15-3.84-.6-6.72-2.12-8.84zm-11.68 7.59c0-2.28.29-4.1 1.06-5.16a3.35 3.35 0 013-1.66 3.1 3.1 0 012.74 1.35 7.78 7.78 0 01.91 4.25z" fill="#231916"/></svg>