<svg xmlns="http://www.w3.org/2000/svg" viewBox="0 0 789.26 119.94"><path d="M2.04 98.61h5.54c4.35 0 7.3 2.97 7.3 7.59 0 4.58-2.87 7.9-7.37 7.9H2.04V98.61zm2.05 13.75h3.25c3.65 0 5.38-2.61 5.38-6.12 0-3.06-1.58-5.89-5.37-5.89H4.09v12.01zm27.19-13.75v15.49h-2.05V98.61h2.05zm16.14 11.18c.42 1.86 1.69 2.86 3.93 2.86 2.42 0 3.37-1.13 3.37-2.6 0-1.55-.76-2.42-3.87-3.18-3.65-.89-4.92-2.14-4.92-4.31 0-2.3 1.7-4.18 5.15-4.18 3.69 0 5.21 2.13 5.41 4.17H54.4c-.28-1.38-1.14-2.51-3.4-2.51-1.89 0-2.94.85-2.94 2.33 0 1.45.87 2.03 3.59 2.68 4.42 1.07 5.2 2.79 5.2 4.78 0 2.5-1.85 4.46-5.64 4.46-3.9 0-5.57-2.13-5.89-4.51h2.1zm26.75-9.42h-5v-1.76h12.08v1.76h-5.01v13.73h-2.07v-13.73zm22.47-1.76v15.49h-2.05V98.61h2.05zm15.34 0h2.05v13.73h8.08l-.29 1.76h-9.85V98.61zm23.5 0h2.05v13.73h8.08l-.29 1.76h-9.85V98.61zm33.21 8.25h-7.7v5.48h8.46l-.27 1.76h-10.21V98.61h10.09v1.76h-8.07v4.73h7.7v1.76zm16.72.42v6.82h-2.04V98.61h6.05c3.18 0 4.88 1.73 4.88 4.14 0 2.01-1.16 3.23-2.64 3.64 1.26.34 2.36 1.28 2.36 3.97v.66c0 1.07-.05 2.42.21 3.07h-2c-.28-.67-.26-1.88-.26-3.33v-.33c0-2.21-.62-3.16-3.4-3.16h-3.16zm0-1.73h3.37c2.37 0 3.41-.89 3.41-2.63 0-1.65-1.07-2.58-3.18-2.58h-3.6v5.21zm24.46 4.24c.42 1.86 1.69 2.86 3.93 2.86 2.42 0 3.37-1.13 3.37-2.6 0-1.55-.76-2.42-3.87-3.18-3.65-.89-4.92-2.14-4.92-4.31 0-2.3 1.7-4.18 5.15-4.18 3.69 0 5.21 2.13 5.41 4.17h-2.09c-.28-1.38-1.14-2.51-3.4-2.51-1.89 0-2.94.85-2.94 2.33 0 1.45.87 2.03 3.59 2.68 4.42 1.07 5.2 2.79 5.2 4.78 0 2.5-1.85 4.46-5.64 4.46-3.9 0-5.57-2.13-5.89-4.51h2.1zm21.69 6.87c1.17-2.48 1.49-4.43 1.59-5.83h1.98c-.19 1.99-.91 4.3-1.98 5.83h-1.59zm36.58-18.05v15.49h-2.05V98.61h2.05zm15.34 15.49V98.61h2.72c2.22 3.62 7.05 11.33 7.92 13.01h.03c-.15-1.99-.13-4.43-.13-6.96v-6.05h1.94v15.49h-2.55c-2.05-3.36-7.09-11.65-8.06-13.39h-.03c.11 1.76.11 4.39.11 7.19v6.2h-1.95zm39.97-4.39c-.69 2.63-2.65 4.59-6.16 4.59-4.63 0-6.97-3.51-6.97-7.89 0-4.21 2.34-8.01 7.05-8.01 3.65 0 5.63 2.08 6.09 4.67h-2.05c-.55-1.69-1.67-2.96-4.12-2.96-3.42 0-4.81 3.11-4.81 6.24 0 3.04 1.33 6.24 4.9 6.24 2.39 0 3.43-1.37 4.02-2.87h2.05zm13.42 4.39v-3.29h2.04v3.29h-2.04zm34.2-4.31c.42 1.86 1.69 2.86 3.93 2.86 2.42 0 3.37-1.13 3.37-2.6 0-1.55-.76-2.42-3.87-3.18-3.65-.89-4.92-2.14-4.92-4.31 0-2.3 1.7-4.18 5.15-4.18 3.69 0 5.21 2.13 5.41 4.17h-2.09c-.28-1.38-1.14-2.51-3.4-2.51-1.89 0-2.94.85-2.94 2.33 0 1.45.87 2.03 3.59 2.68 4.42 1.07 5.2 2.79 5.2 4.78 0 2.5-1.85 4.46-5.64 4.46-3.9 0-5.57-2.13-5.89-4.51h2.1zm25.95-.33l-1.67 4.65h-2.04l5.52-15.49h2.53l5.75 15.49h-2.19l-1.72-4.65h-6.18zm5.66-1.76c-1.48-4.07-2.29-6.23-2.62-7.41h-.02c-.38 1.31-1.29 3.93-2.48 7.41h5.12zm18.02 6.4V98.61h2.72c2.22 3.62 7.05 11.33 7.92 13.01h.03c-.15-1.99-.13-4.43-.13-6.96v-6.05h1.94v15.49h-2.55c-2.05-3.36-7.09-11.65-8.06-13.39h-.03c.11 1.76.11 4.39.11 7.19v6.2h-1.95zm44.47-15.49h9.95v1.76h-7.93v5.03h7.43v1.76h-7.43v6.94h-2.02V98.61zm25.75 8.67v6.82h-2.04V98.61h6.05c3.18 0 4.88 1.73 4.88 4.14 0 2.01-1.16 3.23-2.64 3.64 1.26.34 2.36 1.28 2.36 3.97v.66c0 1.07-.05 2.42.21 3.07h-2c-.28-.67-.26-1.88-.26-3.33v-.33c0-2.21-.62-3.16-3.4-3.16h-3.16zm0-1.73h3.37c2.37 0 3.41-.89 3.41-2.63 0-1.65-1.07-2.58-3.18-2.58h-3.6v5.21zm25.82 3.91l-1.67 4.65h-2.04l5.52-15.49h2.53l5.75 15.49h-2.19l-1.72-4.65h-6.18zm5.66-1.76c-1.48-4.07-2.29-6.23-2.62-7.41h-.02c-.38 1.31-1.29 3.93-2.48 7.41h5.12zm18.02 6.4V98.61h2.72c2.22 3.62 7.05 11.33 7.92 13.01h.03c-.15-1.99-.13-4.43-.13-6.96v-6.05h1.94v15.49h-2.55c-2.05-3.36-7.09-11.65-8.06-13.39h-.03c.11 1.76.11 4.39.11 7.19v6.2h-1.95zm39.96-4.39c-.69 2.63-2.65 4.59-6.16 4.59-4.63 0-6.97-3.51-6.97-7.89 0-4.21 2.34-8.01 7.05-8.01 3.65 0 5.63 2.08 6.09 4.67h-2.05c-.55-1.69-1.67-2.96-4.12-2.96-3.42 0-4.81 3.11-4.81 6.24 0 3.04 1.33 6.24 4.9 6.24 2.39 0 3.43-1.37 4.02-2.87h2.05zm16.22-11.1v15.49h-2.05V98.61h2.05zm16.14 11.18c.42 1.86 1.69 2.86 3.93 2.86 2.42 0 3.37-1.13 3.37-2.6 0-1.55-.76-2.42-3.87-3.18-3.65-.89-4.92-2.14-4.92-4.31 0-2.3 1.7-4.18 5.15-4.18 3.69 0 5.21 2.13 5.41 4.17h-2.09c-.28-1.38-1.14-2.51-3.4-2.51-1.89 0-2.94.85-2.94 2.33 0 1.45.87 2.03 3.59 2.68 4.42 1.07 5.2 2.79 5.2 4.78 0 2.5-1.85 4.46-5.64 4.46-3.9 0-5.57-2.13-5.89-4.51h2.1zm35.99-.08c-.69 2.63-2.65 4.59-6.16 4.59-4.63 0-6.97-3.51-6.97-7.89 0-4.21 2.34-8.01 7.05-8.01 3.65 0 5.63 2.08 6.09 4.67h-2.05c-.55-1.69-1.67-2.96-4.12-2.96-3.42 0-4.81 3.11-4.81 6.24 0 3.04 1.33 6.24 4.9 6.24 2.39 0 3.43-1.37 4.02-2.87h2.05zm27.78-3.44c0 4.26-2.39 8.05-7.27 8.05-4.56 0-7.1-3.52-7.1-7.97 0-4.43 2.6-7.97 7.28-7.97 4.37.01 7.09 3.29 7.09 7.89zm-12.22.02c0 3.35 1.71 6.28 5.04 6.28 3.6 0 5.03-2.96 5.03-6.27 0-3.34-1.62-6.16-5.02-6.16-3.51 0-5.05 2.85-5.05 6.15zm24.02 10.37c1.17-2.48 1.49-4.43 1.59-5.83h1.98c-.19 1.99-.91 4.3-1.98 5.83h-1.59zm46.8-6.95c-.69 2.63-2.65 4.59-6.16 4.59-4.63 0-6.97-3.51-6.97-7.89 0-4.21 2.34-8.01 7.05-8.01 3.65 0 5.63 2.08 6.09 4.67h-2.05c-.55-1.69-1.67-2.96-4.12-2.96-3.42 0-4.81 3.11-4.81 6.24 0 3.04 1.33 6.24 4.9 6.24 2.39 0 3.43-1.37 4.02-2.87h2.05zm16.19-.25l-1.67 4.65h-2.04l5.52-15.49h2.53l5.75 15.49h-2.19l-1.72-4.65h-6.18zm5.66-1.76c-1.48-4.07-2.29-6.23-2.62-7.41h-.02c-.38 1.31-1.29 3.93-2.48 7.41h5.12zm17.88 6.4v-3.29h2.04v3.29h-2.04z" fill="#b43a2c"/><path d="M80.79 72.87l7.2-27.66h-.1l2.38-8.72 3.86-14.83c.49-2 .93-3.9 1.31-5.68h.3c1.39-3.77 5.02-11.35 12.48-14.45H82.27l-23.51 74.3H79.9l.89-2.96z"/><path d="M111.14 3.69c-9.92 2.74-13.17 15.09-13.2 15.22l-.76 2.93c1.67 6.53 3.96 14.58 6.57 23.37H91.09l-4.21 16.18h20.64l4.53 14.45h22.76L111.14 3.69zM25.43 1.52h32.26V17.7H25.43zm-23.29 0h20.29v74.31H2.14zm23.29 30.63h30.1v16.18h-30.1zM130.58 1.52h64.07V16.2h-64.07zm21.25 17.68h21.79v56.64h-21.79zm202.14-1.04c.14-.57 3.3-12.53 13.18-16.64h-25.04L318.6 75.83h20.36l15.01-57.67z"/><path d="M370.91 3.48c-10.57 2.25-14 15.29-14.03 15.42l-.31 1.18c1.69 6.81 4.17 15.53 7.01 25.12h-13.55l-4.21 16.18h21.53l4.53 14.45h22.76L370.91 3.48zm152.58 0c-10.57 2.25-14 15.29-14.03 15.42l-.31 1.18c1.69 6.81 4.17 15.53 7.01 25.12h-13.55l-4.21 16.18h21.53l4.53 14.45h22.76L523.49 3.48z"/><path d="M506.56 18.16c.14-.57 3.3-12.53 13.18-16.64H494.7l-23.51 74.31h20.36l15.01-57.67zM276.98 1.52h-.02zm-1.74 38.23c.08-18.84.23-37.85.23-38.23h-20.39v74.31h20.25c-.15-4.26-.18-13.86-.09-36.08zm2.96 19.91c0 7.33.03 13.12.11 16.18h31.24l2.37-16.18H278.2zm145.44-20.43c.06-14.45.15-28.97.22-37.71h-19.84v74.31h19.6c-.07-6.81-.06-18.02.02-36.6zm33.01-2.33c6.04-2.48 10.14-8.09 10.14-16.07 0-10.35-7.88-19.31-25.78-19.31h-14.15c-.03 4.73-.07 9.66-.1 14.67h10.37c5.28 0 8.63 2.27 8.63 6.9 0 3.99-2.48 7.12-8.41 7.12h-10.67l-.06 14.56h10.08c6.9 0 9.81 3.34 9.81 7.98 0 5.39-3.02 8.41-10.25 8.41h-9.68c0 5.69.01 10.7.04 14.67h14.6c18.55 0 27.61-9.92 27.61-22.11.01-9.6-6.57-14.88-12.18-16.82zm278.32 2.33c.06-14.53.16-29.13.22-37.86h-20.96v74.47h20.72c-.06-6.82-.06-18.03.02-36.61zm40.71 19.64c0-12.61-5.02-17.58-9.71-19.22 5.16-2.12 11.18-7.38 11.18-17.66 0-11.23-8.49-20.62-26.02-20.62h-12.94c-.04 4.9-.07 10.02-.1 15.21h7.53c6.67 0 9.81 2.91 9.81 7.88 0 5.01-2.65 8.03-9.92 8.03H738l-.06 15.21h5.17c9.63 0 11.16 3.52 11.16 9.95v1.92c0 7.65.32 13.05 1.58 16.26h20.8c-.82-3.23-.97-9.23-.97-13.87v-3.09zm-108.51 2.49c-9.27-1.18-13.22-10.3-13.22-23.04 0-13.12 3.99-21.65 13.41-22.52.04-6.29.08-11.77.11-15.76-23.54 1.01-36.01 17.83-36.01 38.61 0 20.68 11.67 37.92 35.78 38.55-.06-3.65-.07-8.73-.07-15.84zM670.46 0c-.04 5.06-.07 10.38-.11 15.78 10.35.74 14.01 9.91 14.01 22.94 0 12.35-3.54 22.23-14.19 22.76 0 6.23.02 11.62.05 15.71 24.41-.74 36.56-18.04 36.56-38.65C706.79 16.5 693.47.34 670.46 0zm-94.45 39.23c.06-14.53.16-29.13.22-37.86h-20.89v74.47h20.65c-.06-6.82-.06-18.03.02-36.61zm11.32-37.86h-8.1c-.04 5.08-.07 10.41-.11 15.8h6.68c11.91 0 16.44 8.28 16.44 20.61 0 13.95-4.85 22.25-16.7 22.25h-6.59c0 6.16.01 11.57.04 15.8h7.99c24.4 0 37.79-16.58 37.79-38.05.01-21.42-13.74-36.41-37.44-36.41z"/></svg>