<svg version="1.1" id="Layer_1" xmlns="http://www.w3.org/2000/svg" x="0" y="0" viewBox="0 0 107 107" xml:space="preserve"><style>.st0{fill:#fff}</style><path class="st0" d="M70.88 34.04h-3.67c-.91 0-1.64.74-1.64 1.64v3.67c0 .91.74 1.64 1.64 1.64h3.67c.91 0 1.64-.74 1.64-1.64v-3.67c0-.9-.73-1.64-1.64-1.64z"/><path class="st0" d="M53.5 0C23.95 0 0 23.96 0 53.5 0 83.05 23.95 107 53.5 107S107 83.05 107 53.5C107 23.96 83.05 0 53.5 0zm21.54 72.32c0 .91-.74 1.64-1.64 1.64H34.07c-.91 0-1.64-.74-1.64-1.64V49.88h10.71c-.01.21-.03.42-.03.64 0 5.87 4.76 10.63 10.63 10.63 5.87 0 10.63-4.76 10.63-10.63 0-.22-.02-.43-.03-.64h10.71v22.44zm0-24.94H63.89c-1.34-4.34-5.38-7.49-10.16-7.49s-8.82 3.15-10.16 7.49H32.42v-14.4c0-.91.74-1.64 1.64-1.64H73.4c.91 0 1.64.74 1.64 1.64v14.4z"/></svg>