<svg xmlns="http://www.w3.org/2000/svg" viewBox="0 0 107 107"><path d="M53.5 0C23.95 0 0 23.96 0 53.5 0 83.05 23.95 107 53.5 107S107 83.05 107 53.5C107 23.96 83.05 0 53.5 0zm21.09 46.47c1.18 12.33-8.76 29.51-28.12 29.63-5.28.03-10.23-1.46-14.45-3.99.12 0 7.3.5 13.97-4.4-4.36-.21-8-3.11-9.34-7.07.84.22 3 .6 4.81.1-4.51-.97-7.93-4.86-8.19-9.59 1.22.53 2.56.84 3.97.86-2.43-1.9-5.97-7.24-2.59-13.39 4.72 6.1 12.04 10.07 20.31 10.25-.03-.09-.21-1.67-.21-2.05 0-4.89 3.79-9.94 9.94-9.94 2.91 0 5.53 1.25 7.34 3.25 2.79-.52 5.64-2.13 6.23-2.49-.78 2.28-2.36 4.18-4.4 5.38.01.03.03.07.04.1 1.93-.23 3.77-.74 5.49-1.49a9.829 9.829 0 0 1-4.8 4.84z" fill="#fff"/></svg>