<svg xmlns="http://www.w3.org/2000/svg" viewBox="0 0 512 512"><path d="M262.78 57.853a14.996 14.996 0 00-15.65 1.284l-116.54 85.462H15c-8.284 0-15 6.716-15 15V352.4c0 8.284 6.716 15 15 15h115.59l116.54 85.462a14.985 14.985 0 008.872 2.904 15 15 0 0014.999-15V71.233a14.999 14.999 0 00-8.221-13.38zM241 411.165l-96.629-70.861a14.999 14.999 0 00-8.871-2.904H30V174.599h105.5c3.19 0 6.298-1.018 8.871-2.904L241 100.833v310.332zm204.913-155.163l61.693-61.693c5.858-5.857 5.858-15.355 0-21.213-5.857-5.857-15.355-5.857-21.213 0L424.7 234.789l-61.693-61.693c-5.857-5.857-15.355-5.857-21.213 0-5.858 5.857-5.858 15.355 0 21.213l61.693 61.693-61.693 61.693c-5.858 5.857-5.858 15.355 0 21.213a14.953 14.953 0 0010.606 4.393c3.838 0 7.678-1.465 10.606-4.393l61.693-61.693 61.693 61.693a14.953 14.953 0 0010.606 4.393c3.838 0 7.678-1.465 10.606-4.393 5.858-5.857 5.858-15.355 0-21.213l-61.691-61.693z"/></svg>