<svg xmlns="http://www.w3.org/2000/svg" viewBox="0 0 283.46 37.61"><path d="M191.79.96h23.38V3.1H204.7v1.45h12.27v6.51h-2.66V6.62h-9.62v5.53h-2.65V6.62h-9.41v4.45h-2.69V4.55h12.1V3.1h-10.26V.96zm10.11 14.17c-.25 0-.57.04-.96.12-1.51.25-3.2.49-5.07.73v1.23h6.52v1.84h-6.52v1.57h15.11v-1.57h-6.39v-1.84h6.39v-1.66h-6.63v-2.09h9.29v9.17h-6.52v2.18c0 .74.27 1.12.82 1.12h5.19c.6 0 1.06-.14 1.38-.42.28-.22.55-1.01.78-2.35l2.54.69c-.28 1.79-.75 2.94-1.39 3.46-.67.61-1.54.91-2.6.91h-6.48c-1.85 0-2.78-.69-2.78-2.08v-3.51h-2.35c-.31 1.03-.74 1.83-1.26 2.39-.58.77-1.37 1.35-2.36 1.79-1.09.62-3.44 1.13-7.05 1.53l-1.45-2.2c2.35-.16 4.32-.44 5.91-.89 1.31-.37 2.26-.9 2.86-1.56.31-.3.55-.66.73-1.06h-6.39v-9.28l1.48.75c.98-.09 1.87-.22 2.72-.34 1.27-.25 2.44-.53 3.53-.87l1.57 1.63c.15.13.24.31.24.53 0 .16-.09.24-.24.24l-.62-.16zm-7.81-7.41h6.63V9.5h-6.63V7.72zm0 2.87h6.63v1.8h-6.63v-1.8zm11.94-2.87h6.84V9.5h-6.84V7.72zm0 2.87h6.84v1.8h-6.84v-1.8zm18.43-1.55c1.71 1.09 3.15 2.25 4.34 3.5l-1.84 1.91a31.032 31.032 0 00-4.46-3.5l1.96-1.91zm3.98 8.42l1.69 2.05a79.553 79.553 0 01-4.62 7.72c0 .66-.2 1-.57 1l-2.33-1.96c2.16-2.62 4.1-5.56 5.83-8.81zM225.79.69c1.75 1 3.22 2.05 4.43 3.17l-1.78 1.9a31.25 31.25 0 00-4.61-3.11l1.96-1.96zm8.3 9.05h14.14v4.95h2.3v2.41h-2.3v4.88h-6.31v2.75c0 1.61-.4 2.62-1.23 3.02-.62.34-2.35.51-5.15.51l-.85-2.54c2.23 0 3.52-.03 3.86-.12.43-.08.63-.38.63-.88v-2.75h-5.08V19.5h5.08v-2.4h-8.83v-2.41h8.83v-2.54h-5.08V9.74zm14.46-7.36c-.34 0-.78.02-1.32.09-4.48.53-9.18.9-14.11 1.15l-1.78-2.42c3.3-.08 6.11-.21 8.45-.42 2.12-.15 4.74-.4 7.84-.79l1.86 1.81c.1.12.15.28.15.48 0 .16-.11.24-.32.24l-.77-.14zm-15.3 1.82c1.02.89 2.03 2.07 3.03 3.53l-2.4 1.52c-.76-1.34-1.61-2.51-2.53-3.49l1.9-1.56zm6.5-.46c1.03.92 2.04 2.13 3.05 3.62l-2.29 1.56c-.79-1.46-1.64-2.71-2.57-3.74l1.81-1.44zm2.17 8.41v2.54h3.53v-2.54h-3.53zm0 4.95v2.41h3.53V17.1h-3.53zm5.71-13.87l2.01.97c.32.12.49.24.49.36 0 .24-.17.45-.49.63-.8 1.44-1.69 2.66-2.65 3.62l-2.3-1.44c1.13-1.19 2.11-2.55 2.94-4.14zm10.98 14.11l2.23 1.06c.36.12.54.25.54.38 0 .25-.16.45-.52.65-.93 2.93-1.97 5.38-3.1 7.35l-2.56-1.6c1.3-2.19 2.44-4.81 3.41-7.84zm-.4-16.26h22.71v14.24h-22.71V1.08zm2.82 5.76h7.08v-3.1h-7.08v3.1zm7.08 5.82V9.5h-7.08v3.16h7.08zm-5.51 3.98l3.21.36c.42.04.64.2.64.45 0 .28-.22.57-.64.87-.29.22-.44.57-.44 1.09v3.1c0 .89.12 1.54.36 1.99.28.36.83.53 1.66.53h6.4c.82 0 1.44-.11 1.83-.37.44-.25.81-1 1.09-2.26l2.66 1.2c-.48 1.73-1.02 2.83-1.71 3.32-.53.43-1.22.66-2.05.66h-9.29c-1.27 0-2.23-.4-2.88-1.17-.58-.73-.84-1.78-.84-3.13v-6.64zm7.47-.4c1.49 1.28 2.96 2.88 4.42 4.84l-2.29 1.56c-1.18-1.9-2.52-3.54-3.99-4.91l1.86-1.49zm.81-12.5v3.1h7.27v-3.1h-7.27zm7.27 8.92V9.5h-7.27v3.16h7.27zm.82 5.19c1.5 1.49 3 3.41 4.5 5.76l-2.46 1.57c-1.18-2.21-2.5-4.13-3.96-5.76l1.92-1.57z" fill="#00a1e9"/><path d="M16.54 28.37L7.13 12.44c-.46-.77-.9-1.37-1.21-2.12-.15-.62-.3-.92-.3-.92h-.17s0 .31.16 1.06v17.91H0V0h5.92l8.8 14.56c.3.6.76 1.36.91 1.83.32.61.46.9.46.9h.14s-.14-.29-.14-.9V0h5.61v28.37h-5.16zm115.4 0V12.73c0-.29 0-.76-.15-1.06 0-.45-.15-.76-.46-1.06-.3-.29-.6-.45-1.06-.6-.3-.16-.91-.3-1.52-.3-.76 0-1.22 0-1.67.15-.3 0-.76.16-1.06.31v18.21h-6.51V7.27c1.21-.45 2.57-.75 4.08-1.06 1.52-.3 3.34-.46 5.32-.46 1.67 0 3.17.16 4.4.46 1.21.46 2.27.92 3.04 1.53.75.61 1.21 1.37 1.51 2.27.45.75.61 1.66.61 2.73v15.63h-6.53zm25.14-1.22c-.46.45-1.06.91-1.97 1.21-.92.15-2.12.3-3.48.3-1.22 0-2.43-.16-3.65-.76-1.06-.46-2.13-1.22-2.88-2.12-.76-1.07-1.51-2.28-1.97-3.65-.46-1.51-.61-3.19-.61-5.01 0-1.81.31-3.48.76-4.86.46-1.52 1.06-2.72 1.97-3.64.76-.9 1.82-1.67 2.88-2.12 1.07-.61 2.28-.77 3.5-.77 1.36 0 2.42.16 3.33.46.91.31 1.67.76 2.13 1.06l-1.36 3.64c-.3-.3-.61-.46-1.07-.6-.46-.31-.91-.31-1.52-.31-1.36 0-2.42.6-3.17 1.82-.61 1.2-.92 3.04-.92 5.3 0 2.13.3 3.94 1.06 5.17.6 1.21 1.67 1.81 2.88 1.81.61 0 1.21 0 1.67-.14.3-.15.76-.46 1.07-.76l1.35 3.97zM42.89 8.79c-1.52-2.12-3.95-3.04-7.13-3.04-1.67 0-3.03.16-4.4.77-1.22.45-2.28 1.37-3.03 2.28-.92 1.05-1.52 2.27-1.98 3.64-.45 1.36-.6 3.04-.6 4.69 0 1.82.15 3.34.6 4.86.45 1.37 1.22 2.59 2.12 3.64.92 1.06 1.98 1.82 3.34 2.28 1.37.6 2.89.76 4.56.76 1.97 0 3.49-.16 4.7-.46 1.37-.29 2.43-.6 3.34-1.05l-1.51-3.95c-.61.3-1.37.46-2.28.76-1.06.3-2.13.3-3.49.3-1.67 0-2.88-.3-3.79-1.06-.76-.91-1.37-2.13-1.53-3.8L45 17.6c.17-3.81-.45-6.69-2.11-8.81zm-11.54 7.59c-.16-2.29.15-4.11.91-5.16.76-1.21 1.82-1.66 3.18-1.66 1.22 0 2.13.45 2.74 1.35.61.91.91 2.28.91 4.25l-7.74 1.22zm36.69-3.79c-.46-1.37-1.06-2.58-1.98-3.65-.76-1.05-1.82-1.81-3.03-2.42-1.22-.46-2.58-.77-4.25-.77-1.66 0-3.03.31-4.24.77-1.21.61-2.28 1.37-3.03 2.42a8.41 8.41 0 00-1.83 3.65c-.46 1.37-.6 3.03-.6 4.54 0 1.68.14 3.19.6 4.7a8.41 8.41 0 001.83 3.65c.75 1.05 1.82 1.81 3.03 2.43 1.22.6 2.58.76 4.24.76 1.67 0 3.03-.16 4.25-.76 1.21-.61 2.27-1.37 3.03-2.43.91-1.07 1.51-2.28 1.98-3.65.29-1.51.61-3.03.61-4.7 0-1.51-.32-3.18-.61-4.54zm-5.92 7.28c-.15.91-.31 1.66-.61 2.43-.14.6-.6 1.06-.91 1.52-.45.29-1.06.6-1.82.6-.75 0-1.21-.31-1.66-.6-.46-.46-.76-.92-1.07-1.52-.3-.77-.45-1.52-.45-2.43-.15-.75-.15-1.81-.15-2.73 0-1.05 0-1.97.15-2.87 0-.92.16-1.67.45-2.29.31-.75.61-1.21 1.07-1.66.45-.46.91-.61 1.66-.61.76 0 1.37.15 1.82.61.31.45.77.91.91 1.66.3.61.46 1.37.61 2.29 0 .9.15 1.82.15 2.87 0 .91-.15 1.97-.15 2.73zM88.78 6.21c-1.37-.3-2.88-.46-4.71-.46-1.82 0-3.49.16-5 .77-1.36.61-2.58 1.37-3.49 2.42-1.06 1.07-1.66 2.28-2.12 3.79-.61 1.53-.75 3.19-.75 5.02 0 1.66.14 3.19.61 4.55.45 1.21 1.06 2.43 1.97 3.33.76.91 1.82 1.67 2.88 2.12 1.07.45 2.28.76 3.64.76.92 0 1.67-.15 2.43-.15.61-.16 1.06-.3 1.51-.61v1.22c0 1.36-.45 2.42-1.05 3.03-.76.75-1.82 1.21-3.64 1.21-1.06 0-1.97-.14-3.04-.45-.91-.15-1.66-.46-2.43-.91l-1.66 4.24c.92.46 2.12.77 3.49 1.07 1.52.29 3.03.44 4.85.44 1.37 0 2.74-.15 3.94-.44 1.07-.46 2.12-.92 3.03-1.67.91-.76 1.52-1.82 1.97-2.88.46-1.21.76-2.58.76-4.1V7.27c-.77-.45-1.83-.75-3.19-1.06zm-3.05 18.06c-.6.45-1.36.61-2.12.61-1.67 0-2.88-.61-3.49-1.83-.76-1.22-1.06-3.19-1.06-5.61 0-2.73.3-4.71 1.06-6.07.75-1.36 1.97-1.97 3.49-1.97.91 0 1.51.16 2.12.45v14.42zm27.58-15.48c-1.67-2.12-3.95-3.04-7.28-3.04-1.52 0-3.04.16-4.25.77-1.22.45-2.27 1.37-3.19 2.28-.76 1.05-1.52 2.27-1.82 3.64-.45 1.36-.77 3.04-.77 4.69 0 1.82.31 3.34.77 4.86.45 1.37 1.21 2.59 2.13 3.64.9 1.06 1.96 1.82 3.33 2.28 1.37.6 2.88.76 4.55.76 1.81 0 3.48-.16 4.7-.46 1.21-.29 2.28-.6 3.19-1.05l-1.36-3.95c-.62.3-1.37.46-2.43.76-.91.3-2.13.3-3.33.3-1.67 0-2.89-.3-3.8-1.06-.91-.91-1.36-2.13-1.67-3.8l13.36-1.81c.15-3.81-.62-6.69-2.13-8.81zm-11.53 7.59c-.15-2.29.15-4.11.91-5.16.76-1.21 1.83-1.66 3.19-1.66 1.06 0 1.97.45 2.57 1.35.77.91 1.07 2.28 1.07 4.25l-7.74 1.22zm76.64-7.59c-1.67-2.12-4.1-3.04-7.29-3.04-1.67 0-3.03.16-4.24.77-1.22.45-2.28 1.37-3.2 2.28-.9 1.05-1.51 2.27-1.97 3.64-.45 1.36-.6 3.04-.6 4.69 0 1.82.15 3.34.75 4.86.46 1.37 1.06 2.59 1.97 3.64.91 1.06 2.12 1.82 3.34 2.28 1.36.6 2.88.76 4.7.76 1.82 0 3.34-.16 4.71-.46 1.21-.29 2.27-.6 3.19-1.05l-1.53-3.95c-.6.3-1.35.46-2.27.76-.92.3-2.13.3-3.5.3-1.52 0-2.87-.3-3.63-1.06-.91-.91-1.37-2.13-1.67-3.8l13.35-1.81c.16-3.81-.59-6.69-2.11-8.81zm-11.68 7.59c0-2.29.3-4.11 1.06-5.16.76-1.21 1.83-1.66 3.04-1.66 1.22 0 2.12.45 2.74 1.35.6.91.91 2.28.91 4.25l-7.75 1.22z"/></svg>