<?xml version="1.0" encoding="utf-8"?>
<!-- Generator: Adobe Illustrator 20.1.0, SVG Export Plug-In . SVG Version: 6.00 Build 0)  -->
<svg version="1.1" id="圖層_1" xmlns="http://www.w3.org/2000/svg" xmlns:xlink="http://www.w3.org/1999/xlink" x="0px" y="0px"
	 viewBox="0 0 40 40" style="enable-background:new 0 0 40 40;" xml:space="preserve">
<style type="text/css">
	.st0{fill:#FFFFFF;}
</style>
<g>
	<g>
		<g>
			<path class="st0" d="M8.7,12.3v2.8c0.3-0.1,0.8-0.2,1.5-0.4C10,14.3,9.8,14,9.4,13.3l0.2-0.1c0.5,0.4,0.7,0.7,1,1.1
				c0.4,0.5,0.6,0.7,0.6,1.1c0,0.5-0.3,1.1-0.6,1.1c-0.1,0-0.2-0.1-0.2-0.4c0-0.3-0.1-0.6-0.2-1c-1.7,0.8-2.2,1-3.5,1.5
				c0,0.4-0.1,0.6-0.3,0.6c-0.1,0-0.1-0.1-0.2-0.2s-0.1-0.2-0.4-1.3c0.4,0,0.4,0,2-0.3v-3H7v0.8c0,0.1-0.2,0.2-0.5,0.2
				c-0.2,0-0.3,0-0.3-0.2c0-1.5,0-2.1,0-2.9c0-1.2,0-2.5-0.1-3.2C6.6,7.3,6.7,7.4,7,7.6h0.8V6c0-0.8,0-0.9,0-1.3
				c0.3,0,0.5,0.1,0.7,0.1C9.1,4.9,9.3,5,9.3,5.1c0,0.1-0.2,0.2-0.6,0.3v2.3h0.8C9.7,7.4,9.8,7.4,10,7.1c0.3,0.2,0.4,0.3,0.6,0.5
				c0.1,0.1,0.2,0.1,0.2,0.2S10.7,8,10.3,8.1V10c0,1,0,1.4,0,2.5c0,0.1,0,0.1-0.1,0.2c-0.1,0-0.4,0.1-0.5,0.1s-0.2,0-0.2-0.1l0,0
				v-0.4C9.5,12.3,8.7,12.3,8.7,12.3z M7.9,8H7v4h0.8L7.9,8L7.9,8z M9.6,8H8.7v4h0.9C9.6,12,9.6,8,9.6,8z M15.2,8.2
				c0.4,0.8,0.6,1.2,1.1,1.7h0.8c0.3-0.4,0.4-0.5,0.7-0.8c0.5,0.4,0.6,0.5,1.1,0.9c0.1,0.1,0.1,0.1,0.1,0.1l-0.1,0.1h-2.3
				c0.6,0.7,1.3,1.1,2.6,1.7l-0.1,0.2c-0.5,0.1-0.6,0.3-0.7,0.9c-1.3-0.9-1.9-1.5-2.6-2.7h-2.6c-0.3,0.4-0.4,0.6-0.7,1
				c0.3,0.2,0.4,0.3,0.8,0.7h2.2c0.2-0.2,0.4-0.4,0.6-0.6c0.3,0.2,0.3,0.3,0.6,0.5C17,12,17,12,17,12.1s0,0.1-0.3,0.4
				c-0.1,1.2-0.2,1.8-0.3,2.1c-0.2,0.4-0.5,0.6-1.2,0.7c-0.1-0.5-0.1-0.5-0.4-0.6c-0.1,0-0.1-0.1-0.9-0.3v-0.2
				c1.1,0.1,1.1,0.1,1.3,0.1c0.3,0,0.3,0,0.4-0.3c0.1-0.3,0.1-0.8,0.1-1.7h-2.5V16c0,0.3,0,0.3,0.2,0.3c0.1,0,1.5,0.1,2,0.1
				c1.1,0,1.5,0,1.6-0.2c0.1-0.1,0.3-0.8,0.7-2.2h0.2l0.1,1.9c0,0.1,0,0.2,0,0.2c0,0.1,0,0.1,0.2,0.2s0.4,0.2,0.4,0.4
				c0,0.3-0.2,0.4-0.8,0.5c-0.4,0-1.7,0.1-2.8,0.1c-1,0-1.6,0-2-0.1s-0.5-0.2-0.5-0.7c0-0.4,0-0.7,0-0.9c0-0.6,0-1,0-1.1v-2.8
				c-0.4,0.6-1,1.1-1.9,1.9l-0.1-0.2c0.8-0.9,1.6-1.9,2.1-2.9h-1c-0.3,0-0.6,0-0.9,0.1l-0.1-0.5c0.4-0.2,0.7-0.1,1-0.1h1.2
				c0.2-0.4,0.4-0.9,0.7-1.7h-0.4c-0.2,0-0.6,0-0.8,0.1l-0.1-0.5C12.6,8,12.9,8,13.2,8h0.5c0.4-1.2,0.6-2.4,0.6-3.2
				C15.8,5,15.9,5,15.9,5.2c0,0.2-0.2,0.2-0.6,0.3C15.1,6.6,15,7.1,14.6,8h1.3c0.3-0.4,0.4-0.5,0.7-0.8c0.5,0.4,0.6,0.5,1,0.8
				c0.1,0.1,0.1,0.1,0.1,0.2c0,0.1-0.1,0.1-0.2,0.1h-2.3V8.2z M10.6,9.2c0.5-0.8,0.9-1.5,1.2-2.5c0.2-0.5,0.3-0.9,0.4-1.5
				c1.4,0.5,1.4,0.5,1.4,0.6C13.7,5.9,13.5,6,13,6c-0.6,1.4-1.2,2.3-2.3,3.4L10.6,9.2z M14.3,8.2C14,8.9,13.8,9.4,13.5,10h2.2
				c-0.3-0.7-0.5-1-0.7-1.7h-0.7V8.2z M16.1,5.4c1.1,0.7,1.7,1.1,2.1,1.3c0.3,0.2,0.4,0.5,0.4,0.9s-0.1,0.8-0.3,0.8
				c-0.1,0-0.2-0.1-0.3-0.3c-0.5-0.8-1-1.5-2-2.6L16.1,5.4z"/>
			<path class="st0" d="M21,16.9c0.8-1.1,1.2-2,1.4-3.3c0.2-1,0.2-2.2,0.2-5.3c0-2,0-2.4,0-3.1c1.6,0.2,1.7,0.2,1.7,0.4
				c0,0.1-0.1,0.2-0.6,0.4c0,0.4,0,0.4-0.1,4.7c0,1.9-0.3,3-0.9,4.3c-0.4,0.8-0.8,1.3-1.6,2.1L21,16.9z M28.3,5.8
				c0.1,0,0.1,0.1,0.1,0.1c0,0.1-0.1,0.2-0.6,0.3c0,3.1,0,7.7,0.1,9.2l0,0c0,0.2-0.1,0.2-0.5,0.2c-0.1,0-0.2,0-0.3,0l0,0
				c-0.1,0-0.2,0-0.2-0.2c0-1,0-2,0-3.5c0-1.3,0-1.3,0-5.5c0-0.5,0-0.7-0.1-1.2C27.5,5.6,28,5.7,28.3,5.8z M32.7,5.6
				c0,0.1-0.1,0.2-0.6,0.4c0,0.8,0,1.2,0,1.7c0,1.7,0,4.7,0.1,9.1c0,0.1,0,0.1-0.1,0.2c-0.1,0-0.5,0.1-0.7,0.1s-0.2,0-0.3-0.2
				c0-1,0.1-4.2,0.1-6.7c0-1.7,0-3.7-0.1-4.8C32.5,5.3,32.7,5.4,32.7,5.6z"/>
			<path class="st0" d="M11.9,22.7v-0.6c0-0.3,0-0.5,0-0.9c1.2,0.1,1.3,0.1,1.4,0.2c0.1,0,0.1,0.1,0.1,0.1c0,0.1-0.1,0.2-0.6,0.3
				v0.8h3.9c0.3-0.3,0.4-0.4,0.7-0.7c0.5,0.4,0.6,0.5,1.1,0.9c0.1,0.1,0.1,0.1,0.1,0.2c0,0.2-0.2,0.2-0.9,0.3
				c-0.5,0.5-0.6,0.6-0.9,0.8h-0.1c0.1-0.8,0.1-0.8,0.2-1.1H8c-0.1,0.5-0.2,0.9-0.5,1.3S7,24.9,6.8,24.9s-0.4-0.3-0.4-0.7
				c0-0.2,0.1-0.3,0.3-0.5c0.5-0.3,0.8-0.7,1.2-1.8H8c0,0.2,0,0.4,0,0.5s0,0.2,0,0.3C8,22.7,11.9,22.7,11.9,22.7z M6.5,33.9
				c1.8-0.6,2.9-1.1,3.9-1.8c1.2,0.6,1.2,0.6,1.2,0.7c0,0.1-0.1,0.1-0.3,0.1c-0.1,0-0.3,0-0.5,0C9.5,33.5,8.8,33.7,6.5,33.9
				L6.5,33.9z M16.9,25.2c0.3-0.3,0.4-0.4,0.7-0.7c0.5,0.4,0.6,0.5,1.1,0.9l0.1,0.1c0,0.1,0,0.1-0.1,0.1H16
				c-0.1,0.7-0.2,1.2-0.2,1.5c0,0.2-0.2,0.2-0.7,0.2c-0.2,0-0.2,0-0.2-0.1v-0.1v-0.2H9.2v0.2c0,0.2-0.1,0.2-0.7,0.2
				c-0.1,0-0.2,0-0.2-0.1v-0.1c0.2-0.8,0.3-1.1,0.4-1.5h-1c-0.4,0-0.7,0-1,0.1l-0.2-0.5c0.4,0.1,0.7,0.1,1.2,0.1h1
				c0.1-0.6,0.2-1,0.3-1.7c0.4,0.2,0.6,0.2,1.1,0.5h5.2c0.2-0.2,0.3-0.3,0.6-0.5c0.3,0.2,0.4,0.3,0.6,0.5c0.1,0.1,0.1,0.1,0.1,0.2
				s0,0.1-0.4,0.3L16,25.2H16.9z M16.3,30.7c0,0.3,0,0.6,0,1.2c0,0,0,0,0,0.1s0,0.1-0.1,0.1c-0.1,0.1-0.4,0.1-0.5,0.1
				c-0.2,0-0.3,0-0.3-0.1l0,0v-0.2H9.2v0.3c0,0.1,0,0.1-0.1,0.1s-0.4,0-0.6,0c-0.2,0-0.2,0-0.2-0.2c0.1-0.8,0.1-0.8,0.1-1.9
				c0-0.7,0-0.7,0-1.3V28c0-0.3,0-0.5,0-0.9c0.5,0.2,0.6,0.2,1,0.5h5.9c0.2-0.2,0.3-0.3,0.6-0.5c0.3,0.2,0.4,0.3,0.7,0.5
				c0.1,0.1,0.2,0.1,0.2,0.2s-0.1,0.2-0.4,0.4L16.3,30.7z M11.6,26.5c0.1-0.6,0.1-0.6,0.2-1H9.5c-0.1,0.4-0.2,0.7-0.2,1H11.6z
				 M15.5,28H9.2v1h6.2v-1H15.5z M9.2,29.3v0.9h6.2v-0.9H9.2z M9.2,30.5v1.1h6.2v-1.1H9.2z M11.8,25.2c0.1-0.3,0.1-0.4,0.1-0.9H9.7
				c-0.1,0.3-0.1,0.3-0.2,0.9H11.8z M15,26.5c0.1-0.4,0.1-0.6,0.2-1h-2.5c-0.1,0.6-0.1,0.6-0.1,1H15z M15.2,25.2
				c0-0.3,0-0.3,0.1-0.9h-2.6c-0.1,0.5-0.1,0.8-0.1,0.9H15.2z M13.5,32.3c1.9,0.2,3,0.4,3.7,0.7c0.3,0.2,0.5,0.5,0.5,0.9
				c0,0.2-0.1,0.4-0.2,0.4s-0.2-0.1-0.5-0.2c-1-0.7-2-1.1-3.5-1.5V32.3z"/>
			<path class="st0" d="M21.3,30.2c1-1.1,1.7-2,2.3-2.9c0.5-0.9,0.9-1.7,1.1-2.4c0.5,0.2,1.2,0.4,1.4,0.5c0.1,0,0.1,0.1,0.1,0.1
				c0,0.1-0.2,0.2-0.6,0.2h-0.1c-0.5,0.8-0.7,1.1-1.2,1.8c0.9,0.2,1.1,0.2,1.1,0.3c0,0.1-0.1,0.2-0.5,0.3v2.3c0,1,0,1,0,3.3
				c0,0.2-0.1,0.2-0.5,0.2c-0.1,0-0.2,0-0.2,0l0,0c-0.2,0-0.2-0.1-0.2-0.2c0.1-2.9,0.1-2.9,0.1-3.3V28c-0.9,1.2-1.5,1.7-2.5,2.4
				L21.3,30.2z M28.8,23.1v-0.9c0-0.4,0-0.5,0-0.8c1.5,0.2,1.5,0.2,1.5,0.3c0,0.1-0.2,0.2-0.6,0.3c0,0.4,0,0.8,0,1.1h1.8
				c0.4-0.4,0.5-0.6,0.9-1c0.6,0.5,0.8,0.6,1.3,1.1v0.1c0,0.1-0.1,0.1-0.1,0.1h-4c0,0.7,0,0.7,0,1.3c0,0.1,0,0.2-0.1,0.2
				S29.1,25,28.9,25s-0.2,0-0.2-0.2c0-0.6,0-0.6,0-1.3H26c0,0.8,0,0.8,0,1.3c0,0.2-0.1,0.2-0.5,0.2c-0.1,0-0.1,0-0.2,0l0,0
				c-0.2,0-0.2-0.1-0.2-0.2c0-0.5,0-0.5,0-1.3h-2.4c-0.4,0-0.8,0-1.2,0.1l0-0.6c0.6,0.1,0.8,0.1,1.2,0.1h2.4c0-0.1,0-0.1,0-0.2
				c0-0.6,0-1.2,0-1.5c1.5,0.2,1.5,0.2,1.5,0.3c0,0.1,0,0.1-0.6,0.3v1.1C26,23.1,28.8,23.1,28.8,23.1z M28.7,29.3
				c0.6-0.4,0.9-0.7,1.5-1.3c0.9-1,1.4-1.6,1.7-2.2c1.3,0.7,1.3,0.8,1.3,0.9s-0.1,0.1-0.2,0.1c-0.1,0-0.2,0-0.4,0
				C31.3,28,30,29,28.7,29.6v3c0,0.1,0.1,0.1,0.2,0.1c0.2,0,1.6,0.1,1.9,0.1c0.5,0,1.2,0,1.3-0.1c0.2,0,0.2-0.1,0.3-0.5
				c0.2-0.6,0.4-1.2,0.7-2.3h0.2l-0.2,2.2c0,0.2,0,0.3,0,0.3c0,0.1,0,0.1,0.2,0.2c0.2,0.1,0.3,0.2,0.3,0.3c0,0.2-0.2,0.4-0.5,0.5
				s-1.4,0.1-2.5,0.1c-1.7,0-2.2,0-2.6-0.2c-0.3-0.1-0.4-0.3-0.4-0.8c0-2.3,0-2.3,0-2.6v-3.6c0-0.4,0-1-0.1-1.4
				c1.4,0.2,1.6,0.2,1.6,0.3c0,0.1-0.2,0.2-0.6,0.3v3.8H28.7z"/>
		</g>
		<path class="st0" d="M20,40C9,40,0,31,0,20S9,0,20,0s20,9,20,20S31,40,20,40z M20,0.7C9.4,0.7,0.7,9.4,0.7,20S9.3,39.3,20,39.3
			c10.6,0,19.3-8.6,19.3-19.3C39.3,9.4,30.6,0.7,20,0.7z"/>
	</g>
</g>
</svg>
