<?xml version="1.0" encoding="utf-8"?>
<!-- Generator: Adobe Illustrator 20.1.0, SVG Export Plug-In . SVG Version: 6.00 Build 0)  -->
<svg version="1.1" id="圖層_1" xmlns="http://www.w3.org/2000/svg" xmlns:xlink="http://www.w3.org/1999/xlink" x="0px" y="0px"
	 viewBox="0 0 180 445" style="enable-background:new 0 0 180 445;" xml:space="preserve">
<style type="text/css">
	.st0{fill:none;}
	.st1{fill:#FFFFFF;}
</style>
<g>
	<g>
		<path class="st0" d="M101.6,208.1c-3.2,0-4.3,2.9-4.5,4.7l0,0.3c0,0,0,0.1,0,0.1c0,0,0.1,0,0.1,0h8.3c0.1,0,0.1-0.1,0.1-0.1l0-0.2
			c0-0.5,0-2.4-1.3-3.6C103.7,208.4,102.8,208.1,101.6,208.1z"/>
		<path class="st0" d="M65.1,208.3c-3.6,0-4.8,3.4-4.8,6.4c0,3.8,1.9,6.4,4.8,6.4c2.8,0,4.7-2.7,4.7-6.5
			C69.8,211.5,68.4,208.3,65.1,208.3z"/>
		<path class="st0" d="M22.2,207.7c-3.1,0-4.8,2.7-5.1,5.4l0,0.3h9.8l0-0.2c0-0.6-0.1-2.8-1.4-4.2C24.6,208.1,23.5,207.7,22.2,207.7
			z"/>
		<polygon class="st0" points="14.5,201.5 3.1,221.5 14.3,221.5 14.3,223.6 0.2,223.6 0.2,222.1 11.6,202 1.1,202 1.1,199.9 
			14.5,199.9 		"/>
		<path class="st0" d="M29.3,215.1H17l0,0.3c0.1,3.9,2.4,6.3,6.2,6.3c2.2,0,3.6-0.4,4.6-0.8l0.4,1.8c-1.1,0.5-2.9,1-5.5,1
			c-5.1,0-8.3-3.3-8.3-8.5c0-5.4,3.2-9.1,7.9-9.1c5.1,0,6.9,4.3,6.9,7.9C29.4,214.4,29.3,214.8,29.3,215.1z"/>
		<path class="st0" d="M45.7,223.6h-2.7v-9.8c0-3.5-1.5-5.4-4.3-5.4c-2.4,0-4,1.7-4.5,3.4c-0.1,0.4-0.2,1-0.2,1.6v10.2h-2.7v-12.4
			c0-1.8,0-3.2-0.1-4.5h2.3l0.2,2.9h0l0,0.5c0.1-0.2,0.1-0.4,0.2-0.5h0c1.4-2.9,4.5-3.1,4.5-3.1l0,0c0.4-0.1,0.9-0.1,1.3-0.1
			c1,0,5.9,0.3,5.9,7.1V223.6z"/>
		<path class="st0" d="M56.2,208.8h-3.7c-0.1,0-0.1,0.1-0.1,0.1v14.8h-3.7V205c0-2.5,0.7-4.5,2-5.8c1.1-1,2.7-1.6,4.4-1.6
			c0.9,0,1.7,0.1,2.5,0.3l-0.3,2.7c-0.5-0.1-1-0.2-1.6-0.2c-2.2,0-3.4,1.6-3.4,4.4v1.2c0,0.1,0.1,0.1,0.1,0.1h3.8V208.8z"/>
		<path class="st0" d="M65,223.6c-5.1,0-8.5-3.5-8.5-8.8c0-5.5,3.5-9,8.8-9c5,0,8.4,3.5,8.4,8.7C73.7,220.8,69.3,223.6,65,223.6z"/>
		<path class="st0" d="M91.3,223.2h-3.7v-9.6c0-3.1-1.3-4.9-3.8-4.9c-2.1,0-3.4,1.6-3.9,2.9c-0.1,0.4-0.2,0.9-0.2,1.6v10H76v-12.1
			c0-2.1,0-3.6-0.1-4.9h3.2l0.2,3.6c0,0.1,0,0.1,0.1,0.1c0.1,0,0.1,0,0.1-0.1c0.2-0.5,0.6-1.2,0.6-1.2c0,0,0,0,0,0
			c0.7-1.3,2.6-2.8,5.3-2.8c1.4,0,5.9,0.5,5.9,7.2V223.2z"/>
		<path class="st0" d="M109.1,215.5H97.3c0,0-0.1,0-0.1,0c0,0,0,0.1,0,0.1l0,0.3c0.1,3.7,3.1,5,5.9,5c1.8,0,3.3-0.2,4.6-0.7l0.5,2.3
			c-1.2,0.5-3.2,1-5.8,1c-5.4,0-8.8-3.3-8.8-8.6c0-4.4,2.6-9.2,8.3-9.2c5.4,0,7.3,4.3,7.3,8.3C109.2,214.7,109.1,215.2,109.1,215.5z
			"/>
		<path class="st1" d="M22.4,206c-4.7,0-7.9,3.7-7.9,9.1c0,5.2,3.2,8.5,8.3,8.5c2.6,0,4.4-0.5,5.5-1l-0.4-1.8
			c-1.1,0.4-2.4,0.8-4.6,0.8c-3.8,0-6.1-2.3-6.2-6.3l0-0.3h12.2c0-0.3,0.1-0.7,0.1-1.2C29.4,210.3,27.5,206,22.4,206z M26.8,213.1
			l0,0.2H17l0-0.3c0.3-2.7,2-5.4,5.1-5.4c1.3,0,2.4,0.4,3.2,1.2C26.7,210.4,26.8,212.5,26.8,213.1z"/>
		<polygon class="st1" points="1.1,202 11.6,202 0.2,222.1 0.2,223.6 14.3,223.6 14.3,221.5 3.1,221.5 14.5,201.5 14.5,199.9 
			1.1,199.9 		"/>
		<polygon class="st1" points="105.6,200.1 105.6,197.7 106.5,197.7 106.5,197.3 104.2,197.3 104.2,197.7 105.1,197.7 105.1,200.1 
					"/>
		<polygon class="st1" points="108.2,199.5 107.5,197.3 106.8,197.3 106.8,200.1 107.2,200.1 107.2,197.7 108,200.1 108.4,200.1 
			109.1,197.7 109.1,200.1 109.5,200.1 109.5,197.3 108.9,197.3 		"/>
		<path class="st1" d="M52.3,206v-1.2c0-2.9,1.2-4.4,3.4-4.4c0.6,0,1.1,0.1,1.6,0.2l0.3-2.7c-0.7-0.2-1.6-0.3-2.5-0.3
			c-1.7,0-3.3,0.6-4.4,1.6c-1.3,1.2-2,3.3-2,5.8v18.7h3.7v-14.8c0-0.1,0.1-0.1,0.1-0.1h3.7v-2.6h-3.8
			C52.3,206.2,52.3,206.1,52.3,206z"/>
		<path class="st1" d="M65.3,205.8c-5.3,0-8.8,3.5-8.8,9c0,5.2,3.4,8.8,8.5,8.8c4.3,0,8.7-2.8,8.7-9.1
			C73.7,209.3,70.3,205.8,65.3,205.8z M65.1,221.1c-2.9,0-4.8-2.6-4.8-6.4c0-3,1.3-6.4,4.8-6.4c3.2,0,4.7,3.2,4.7,6.3
			C69.8,218.4,67.9,221.1,65.1,221.1z"/>
		<path class="st1" d="M101.9,205.8c-5.7,0-8.3,4.8-8.3,9.2c0,5.3,3.4,8.6,8.8,8.6c2.6,0,4.5-0.5,5.8-1l-0.5-2.3
			c-1.4,0.5-2.8,0.7-4.6,0.7c-2.7,0-5.7-1.3-5.9-5l0-0.3c0,0,0-0.1,0-0.1c0,0,0.1,0,0.1,0h11.8c0-0.3,0.1-0.9,0.1-1.5
			C109.2,210,107.3,205.8,101.9,205.8z M105.7,212.8l0,0.2c0,0.1-0.1,0.1-0.1,0.1h-8.3c0,0-0.1,0-0.1,0c0,0,0-0.1,0-0.1l0-0.3
			c0.2-1.7,1.3-4.7,4.5-4.7c1.1,0,2.1,0.4,2.8,1.1C105.7,210.4,105.7,212.3,105.7,212.8z"/>
		<path class="st1" d="M85.4,205.8c-2.7,0-4.5,1.5-5.3,2.8c0,0,0,0,0,0c0,0-0.3,0.7-0.6,1.2c0,0.1-0.1,0.1-0.1,0.1
			c-0.1,0-0.1-0.1-0.1-0.1l-0.2-3.6h-3.2c0.1,1.3,0.1,2.8,0.1,4.9v12.1h3.7v-10c0-0.7,0.1-1.2,0.2-1.6c0.5-1.3,1.8-2.9,3.9-2.9
			c2.4,0,3.8,1.7,3.8,4.9v9.6h3.7V213C91.3,206.3,86.8,205.8,85.4,205.8z"/>
		<path class="st1" d="M39.9,206.3c-0.5,0-0.9,0-1.3,0.1l0,0c0,0-3,0.3-4.5,3.1h0c-0.1,0.2-0.2,0.4-0.2,0.5l0-0.5h0l-0.2-2.9h-2.3
			c0.1,1.3,0.1,2.6,0.1,4.5v12.4h2.7v-10.2c0-0.6,0.1-1.2,0.2-1.6c0.5-1.7,2.1-3.4,4.5-3.4c2.8,0,4.3,1.9,4.3,5.4v9.8h2.7v-10.1
			C45.7,206.7,40.8,206.3,39.9,206.3z"/>
		<path class="st0" d="M139.9,194.1h-17c-2.7,0-4.8,2.2-4.8,4.8v25.7c0,2.7,2.2,4.8,4.8,4.8h17c2.7,0,4.8-2.2,4.8-4.8V199
			C144.7,196.3,142.5,194.1,139.9,194.1z"/>
		<path class="st1" d="M134.9,210.3c1.9-1.2,2.9-3.1,2.9-5.1c0-2.7-1.7-5.9-6.6-5.9c-2.3,0-4.5,1-5.7,1.9l-0.5,0.4l1.4,2.6l0.7-0.6
			c0.4-0.3,2-1.4,3.8-1.4c3,0,3.5,2,3.5,3.2c0,2.7-2.9,3.7-4.8,3.7h-2.3v3h2.2c2.7,0,5.7,1.2,5.7,4.4c0,0.6-0.1,2-1.1,3
			c-0.8,0.8-2.1,1.3-3.7,1.3c-1.9,0-3.6-0.7-4.3-1.2l-0.8-0.6l-1.4,2.7l0.5,0.4c1.1,0.8,3.3,1.7,5.7,1.7c5.7,0,8.3-3.8,8.3-7.4
			C138.8,213.7,137.3,211.5,134.9,210.3z"/>
		<path class="st1" d="M139.9,193.6h-17c-3,0-5.3,2.4-5.3,5.3v25.7c0,3,2.4,5.3,5.3,5.3h17c3,0,5.3-2.4,5.3-5.3V199
			C145.2,196,142.8,193.6,139.9,193.6z M144.7,224.6c0,2.7-2.2,4.8-4.8,4.8h-17c-2.7,0-4.8-2.2-4.8-4.8V199c0-2.7,2.2-4.8,4.8-4.8
			h17c2.7,0,4.8,2.2,4.8,4.8V224.6z"/>
	</g>
	<g>
		<g>
			<g>
				<path class="st1" d="M166.3,167.5c0,0-3.9-9.2,0-9.3C169.6,158.1,167.3,165.2,166.3,167.5z"/>
				<path class="st1" d="M165.3,168.9c0,0-9.2,3.9-9.3,0C155.9,165.5,163,167.8,165.3,168.9z"/>
				<path class="st1" d="M166.4,170c0,0,3.9,9.2,0,9.3C163.1,179.4,165.3,172.3,166.4,170z"/>
				<path class="st1" d="M167.4,168.9c0,0,9.2-3.9,9.3,0C176.8,172.2,169.7,170,167.4,168.9z"/>
				<circle class="st1" cx="166.3" cy="168.8" r="0.7"/>
			</g>
			<g>
				<rect x="121" y="89" class="st1" width="2.5" height="13.2"/>
				<path class="st1" d="M137.3,100.8L137.3,100.8c0,0,2.5-2.3,3.7-5.5c1.2-3.2,1.2-7.2,1.2-7.2l2.5,0c0,0,0.1,4.2-2.1,7.8
					C140.7,98.9,137.3,100.8,137.3,100.8z"/>
				<rect x="112.5" y="100.5" class="st1" width="36.3" height="2.5"/>
				<rect x="118.9" y="110.7" class="st1" width="24.8" height="2.5"/>
				<rect x="113.1" y="121.9" class="st1" width="36.3" height="2.5"/>
				<rect x="113.1" y="132.8" class="st1" width="36.3" height="2.5"/>
				<rect x="130.1" y="104.7" class="st1" width="2.5" height="15.3"/>
				<path class="st1" d="M129.5,127.4c0,0-0.3,31.9-21.5,49.7c0,0,22.7-11.8,23.9-49.5L129.5,127.4z"/>
				<path class="st1" d="M132.1,136.7c0,0,2.9,36.3,26.3,42c0,0-20.6-6.9-24.2-42H132.1z"/>
			</g>
			<path class="st1" d="M98.3,76.2L98.3,76.2c7.3-11.1,7.5-31.2,7.5-36.6l2.3,0C108.1,49.3,108.9,64.2,98.3,76.2z"/>
			<path class="st1" d="M108.9,100.3L108.9,100.3c0,0,3-12.4,2.8-28.3c-0.1-5.2-0.4-32.5-0.4-32.5h2.5c0,0,0,25-0.3,31.7
				C113,88.8,108.9,100.3,108.9,100.3z"/>
			<polygon class="st1" points="114,14.3 106.2,14.3 106.2,1.5 108.7,1.5 108.7,11.8 114,11.8 			"/>
			<rect x="115.5" y="1.8" class="st1" width="2.5" height="23.6"/>
			<polygon class="st1" points="117.4,34 105.6,34 105.6,20.6 108.2,20.6 108.2,31.5 117.4,31.5 			"/>
			<polygon class="st1" points="145.6,20.1 143,20.1 143,4.7 124.9,4.7 124.9,2.2 145.6,2.2 			"/>
			<rect x="128.4" y="7.9" class="st1" width="2.5" height="11.5"/>
			<polygon class="st1" points="146.3,74.5 124,74.5 124,23.1 145.5,23.1 145.5,45 130.3,45 130.3,42.4 143,42.4 143,25.6 
				126.5,25.6 126.5,72 146.3,72 			"/>
			<rect x="132.8" y="28.8" class="st1" width="2.5" height="9.5"/>
			<rect x="118.9" y="30.7" class="st1" width="2.5" height="27"/>
		</g>
		<g>
			<path class="st1" d="M95.4,324.2l0-0.1c6.9-6.4,7.6-16.4,8.3-27l2,0C105.8,302.6,105.5,317.3,95.4,324.2z"/>
			<path class="st1" d="M137.7,324.2l0-0.1c-6.9-6.4-7.6-16.4-8.3-27l-2,0C127.3,302.6,127.7,317.3,137.7,324.2z"/>
			<path class="st1" d="M106.7,320.4L106.7,320.4c0,0,4.7-1.7,4.6-11c0-2.5,0-12.2,0-12.2l2,0c0,0,0.2,10.4-0.1,13.7
				C112.4,318.9,106.7,320.4,106.7,320.4z"/>
			<path class="st1" d="M114.6,320.4L114.6,320.4c0,0,4.7-1.7,4.6-11c0-2.5,0-12.2,0-12.2l2,0c0,0,0.2,10.4-0.1,13.7
				C120.3,318.9,114.6,320.4,114.6,320.4z"/>
			<polygon class="st1" points="134.3,259.1 99.8,259.1 99.8,250.4 102.2,250.4 102.2,256.7 134.3,256.7 			"/>
			<rect x="100.9" y="273.9" class="st1" width="33.4" height="2.4"/>
			<rect x="103.8" y="262.7" class="st1" width="2.4" height="25.9"/>
			<rect x="111" y="262.7" class="st1" width="2.4" height="25.9"/>
			<rect x="119" y="262.7" class="st1" width="2.4" height="25.9"/>
			<rect x="127.8" y="262.7" class="st1" width="2.4" height="25.9"/>
			<rect x="100.2" y="291.7" class="st1" width="34.6" height="2.4"/>
		</g>
		<g>
			<path class="st1" d="M102.1,405.4l0-0.1c6.9-6.4,7.6-16.4,8.3-27l2,0C112.5,383.9,112.1,398.5,102.1,405.4z"/>
			<path class="st1" d="M105.9,373.6l0-0.1c6.9-5.9,7.6-15.2,8.3-25.1l2,0C116.3,353.5,115.9,367.2,105.9,373.6z"/>
			<path class="st1" d="M132.8,406.1l0-0.1c-6.9-6.4-7.6-16.4-8.3-27l-2,0C122.4,384.5,122.8,399.2,132.8,406.1z"/>
			<polygon class="st1" points="104.4,373.9 102,373.9 102,330.5 110.5,330.5 110.5,332.9 104.4,332.9 			"/>
			<polygon class="st1" points="123.3,372.3 120.9,372.3 120.9,347.3 112.5,347.3 112.5,330.1 115,330.1 115,344.9 123.3,344.9 			
				"/>
			<polygon class="st1" points="133.5,373.1 131.1,373.1 131.1,331.9 125,331.9 125,329.5 133.5,329.5 			"/>
			<rect x="100.3" y="374.7" class="st1" width="34.6" height="2.4"/>
			<rect x="106.1" y="342.9" class="st1" width="3.8" height="2.4"/>
			<rect x="106.1" y="358.6" class="st1" width="3.8" height="2.4"/>
			<rect x="126.2" y="342.9" class="st1" width="3.8" height="2.4"/>
			<rect x="126.2" y="358.6" class="st1" width="3.8" height="2.4"/>
		</g>
		<path class="st1" d="M168.7,365.8l0-0.1c11.8-3.4,7.5-30.1,8.2-40.8l2,0C179,341.8,181.6,363.1,168.7,365.8z"/>
		<polygon class="st1" points="149.4,360.2 147,360.2 147,294.6 154,294.6 154,297 149.4,297 		"/>
		<polygon class="st1" points="156.7,319 154.5,318 166.5,291.4 179.4,317.7 177.3,318.7 166.6,297 		"/>
		<rect x="160.8" y="318" class="st1" width="11.5" height="2.4"/>
		<polygon class="st1" points="157.8,359.2 155.4,359.2 155.4,323.7 178.9,323.7 178.9,326.1 157.8,326.1 		"/>
		<rect x="159.8" y="338.8" class="st1" width="13.8" height="2.4"/>
		<rect x="162.1" y="329.1" class="st1" width="2.4" height="26.9"/>
		<rect x="168.5" y="329.1" class="st1" width="2.4" height="26.9"/>
		<g>
			<path class="st1" d="M179.8,393.1l0,3.6c0,0-4.5,2.4-6.5,4c-2.8,2.2-5.8,5.2-5.8,5.2s1.8-4.1,6.1-8.1
				C175.9,395.9,179.8,393.1,179.8,393.1z"/>
			<polygon class="st1" points="159.5,433.4 147.1,433.4 147.1,373.1 149.5,373.1 149.5,431 159.5,431 			"/>
			<polygon class="st1" points="179.5,443.5 164.4,443.5 164.4,372.9 166.8,372.9 166.8,441.1 179.5,441.1 			"/>
			<rect x="151.4" y="398.1" class="st1" width="8.1" height="2.4"/>
		</g>
	</g>
</g>
</svg>
