<?xml version="1.0" encoding="utf-8"?>
<!-- Generator: Adobe Illustrator 20.1.0, SVG Export Plug-In . SVG Version: 6.00 Build 0)  -->
<svg version="1.1" id="圖層_1" xmlns="http://www.w3.org/2000/svg" xmlns:xlink="http://www.w3.org/1999/xlink" x="0px" y="0px"
	 viewBox="0 0 360 160" style="enable-background:new 0 0 360 160;" xml:space="preserve">
<style type="text/css">
	.st0{fill:#FFFFFF;}
</style>
<g>
	<g>
		<rect x="40.6" y="1" class="st0" width="4.2" height="21.6"/>
		<rect x="237.4" y="4.3" class="st0" width="4.2" height="21.6"/>
		<path class="st0" d="M67.4,20.3L67.4,20.3c0,0,4.1-3.7,6.1-9c2-5.2,1.9-11.1,1.9-11.1l4.2,0.1c0,0,0.2,6.2-3.5,12
			C73,17.2,67.4,20.3,67.4,20.3z"/>
		<path class="st0" d="M252.4,25.3L252.4,25.3c0,0,4.1-3.7,6.1-9c2-5.2,1.9-11.8,1.9-11.8l4.3-0.1c0,0,0.1,7.1-3.6,12.8
			C258,22.3,252.4,25.3,252.4,25.3z"/>
		<rect x="27.3" y="19.9" class="st0" width="58.8" height="4.2"/>
		<rect x="37.2" y="36.6" class="st0" width="40.7" height="4.2"/>
		<rect x="27.7" y="55" class="st0" width="59.6" height="4.2"/>
		<rect x="27.7" y="72.8" class="st0" width="59.6" height="4.2"/>
		<rect x="55.5" y="26.6" class="st0" width="4.2" height="25.1"/>
		<path class="st0" d="M54.6,64c0,0-0.4,52.3-35.3,81.5c0,0,37.2-19.7,39.2-81.5L54.6,64z"/>
		<path class="st0" d="M347,39.3c0,0,2,90.5-38.1,119.9c0,0,42.3-25.1,42.8-119.8L347,39.3z"/>
		<path class="st0" d="M59,79.1c0,0,4.8,59.5,43.2,68.9c0,0-33.8-11.3-39.7-68.9H59z"/>
		<path class="st0" d="M116.6,114L116.6,114c7.1-10.7,10.7-31.1,12.1-53.5c1-16.7,1.4-36,1.4-39.6l4.4-0.1
			c0.1,7.4-0.3,25.5-1.6,42.4C131.3,83.4,126,103.3,116.6,114z"/>
		<path class="st0" d="M194.8,114L194.8,114c14.9-17.3,13.3-93.6,13.3-102.5l4.6,0.1C212.8,27.6,214.7,96.7,194.8,114z"/>
		<path class="st0" d="M233.4,71.9l0-0.3c10.9-11.5,13.6-32.2,14.2-48c0.3-8.9,0.3-16.2,0.2-19.4l4.2,0
			C252.2,20.3,253.4,54.7,233.4,71.9z"/>
		<path class="st0" d="M224.5,150.1L224.5,150.1c21.5-10.9,22.1-90.4,20.9-89.2h4.2C249.7,69.3,250.6,139.5,224.5,150.1z"/>
		<path class="st0" d="M172.3,105.5L172.3,105.5c-12-11.1-12.2-57.4-12.2-84.6l-4.7,0.1c-0.1,5.9,0.4,17.6,1,34.1
			C157.1,75.6,162.1,98.5,172.3,105.5z"/>
		<path class="st0" d="M353.8,122.4L353.8,122.4c-15.3-6.5-20.1-42.4-21.9-69.7c-0.8-12.3-1-17.3-1.1-28.1l-4.7,0.1
			C326,34.5,328.6,118,353.8,122.4z"/>
		<rect x="114.6" y="12.7" class="st0" width="60.1" height="4.2"/>
		<rect x="208.3" y="10.8" class="st0" width="20.6" height="4.2"/>
		<rect x="214" y="35.8" class="st0" width="9.5" height="4.2"/>
		<rect x="213.6" y="56.3" class="st0" width="9.5" height="4.2"/>
		<rect x="234.5" y="27.6" class="st0" width="34.2" height="4.5"/>
		<rect x="234.5" y="45.9" class="st0" width="34.2" height="4.5"/>
		<polygon class="st0" points="268.6,112.1 264.8,112.1 264.8,75.1 233.1,75.1 233.1,71.4 268.6,71.4 		"/>
		<polygon class="st0" points="308.5,79.5 298.6,79.5 298.6,17.3 302.7,17.3 302.7,75.3 308.5,75.3 		"/>
		<rect x="258.6" y="35.4" class="st0" width="3.8" height="27.1"/>
		<rect x="311" y="14.1" class="st0" width="4.2" height="100.2"/>
		<rect x="142.9" y="14.4" class="st0" width="4.2" height="97.1"/>
		<rect x="224.6" y="18" class="st0" width="3.7" height="90.8"/>
		<polygon class="st0" points="356.5,17.4 325.6,17.4 325.6,2.2 329.8,2.2 329.8,13.2 356.5,13.2 		"/>
	</g>
	<g>
		<path class="st0" d="M13.7,124.6c0,0-3.9-9.1,0-9.2C17,115.2,14.8,122.3,13.7,124.6z"/>
		<path class="st0" d="M12.7,126c0,0-9.1,3.9-9.2,0C3.4,122.6,10.4,124.9,12.7,126z"/>
		<path class="st0" d="M13.8,127.1c0,0,3.9,9.1,0,9.2C10.5,136.4,12.8,129.3,13.8,127.1z"/>
		<path class="st0" d="M14.8,126c0,0,9.1-3.9,9.2,0C24.1,129.3,17.1,127,14.8,126z"/>
		<circle class="st0" cx="13.7" cy="125.8" r="0.7"/>
	</g>
</g>
</svg>
