<?xml version="1.0" encoding="utf-8"?>
<!-- Generator: Adobe Illustrator 20.1.0, SVG Export Plug-In . SVG Version: 6.00 Build 0)  -->
<svg version="1.1" id="分離模式" xmlns="http://www.w3.org/2000/svg" xmlns:xlink="http://www.w3.org/1999/xlink" x="0px"
	 y="0px" viewBox="0 0 15 15" style="enable-background:new 0 0 15 15;" xml:space="preserve">
<style type="text/css">
	.st0{fill:#231815;}
</style>
<g>
	<path class="st0" d="M7.5,6.6c0,0-2.7-6.4,0-6.5C9.8,0.1,8.2,5,7.5,6.6z"/>
	<path class="st0" d="M6.8,7.6c0,0-6.4,2.7-6.5,0C0.2,5.3,5.2,6.9,6.8,7.6z"/>
	<path class="st0" d="M7.5,8.4c0,0,2.7,6.4,0,6.5C5.2,14.9,6.8,10,7.5,8.4z"/>
	<path class="st0" d="M8.2,7.6c0,0,6.4-2.7,6.5,0C14.8,9.9,9.8,8.3,8.2,7.6z"/>
	<circle class="st0" cx="7.5" cy="7.5" r="0.5"/>
</g>
</svg>
