<?xml version="1.0" encoding="utf-8"?>
<!-- Generator: Adobe Illustrator 20.1.0, SVG Export Plug-In . SVG Version: 6.00 Build 0)  -->
<svg version="1.1" id="分離模式" xmlns="http://www.w3.org/2000/svg" xmlns:xlink="http://www.w3.org/1999/xlink" x="0px"
	 y="0px" viewBox="0 0 361.5 87.6" style="enable-background:new 0 0 361.5 87.6;" xml:space="preserve">
<style type="text/css">
	.st0{fill:#EB686C;}
</style>
<g>
	<path class="st0" d="M324.2,44.3h-5.3v-7.2h5.5c4.4,0,11.5-2.4,11.5-8.8c0-2.8-1.1-7.6-8.4-7.6c-4.5,0-8.2,2.5-9.2,3.3l-1.8,1.4
		l-3.4-6.3l1.3-1c2.9-2.3,8.2-4.6,13.6-4.6c11.8,0,15.9,7.7,15.9,14.3c0,5-2.6,9.4-7.1,12.4c5.7,2.7,9.2,8.1,9.2,14.6
		c0,8.6-6.3,17.8-20,17.8c-5.8,0-11.1-2-13.8-4l-1.3-1l3.3-6.6l1.8,1.4c1.6,1.2,5.7,3,10.4,3c3.9,0,6.8-1,8.8-3.1
		c2.5-2.6,2.7-6,2.7-7.3C337.9,47.1,330.8,44.3,324.2,44.3z"/>
	<path class="st0" d="M326.4,65.3c-4.6,0-8.8-1.8-10.4-3l-1.8-1.4l-3.3,6.6l1.3,1c2.7,2,7.9,4,13.8,4c13.8,0,20-9.2,20-17.8
		c0-6.4-3.6-11.9-9.2-14.6c4.5-3,7.1-7.4,7.1-12.4c0-6.6-4.2-14.3-15.9-14.3c-5.5,0-10.8,2.3-13.6,4.6l-1.3,1l3.4,6.3l1.8-1.4
		c1-0.8,4.7-3.3,9.2-3.3c7.3,0,8.4,4.8,8.4,7.6c0,6.4-7,8.8-11.5,8.8h-5.5v7.2h5.3c6.6,0,13.7,2.8,13.8,10.7c0,1.3-0.2,4.7-2.7,7.3
		C333.3,64.3,330.3,65.3,326.4,65.3z"/>
	<path class="st0" d="M307.6,87.6h41c7.1,0,12.9-5.8,12.9-12.9V12.9c0-7.1-5.8-12.9-12.9-12.9h-41c-7.1,0-12.9,5.8-12.9,12.9v61.8
		C294.7,81.8,300.4,87.6,307.6,87.6z M295.9,12.9c0-6.4,5.2-11.7,11.7-11.7h41c6.4,0,11.7,5.2,11.7,11.7v61.8
		c0,6.4-5.2,11.7-11.7,11.7h-41c-6.4,0-11.7-5.2-11.7-11.7V12.9z"/>
	<polygon class="st0" points="35.1,18.9 35.1,15 2.3,15 2.3,20.4 27.5,20.4 0,66.8 0,70.7 35.3,70.7 35.3,65.3 7.6,65.3 	"/>
	<path class="st0" d="M55.4,29.5c-10.7,0-18.3,8.9-18.3,21.7c0,12.1,7.6,20.2,18.9,20.2c7.1,0,11.1-1.8,12.5-2.6l0.8-0.5l-1.7-5.1
		l-1.2,0.6c-2.2,1.1-4.9,2-10,2c-8.1,0-12.9-5.3-13.3-14.6h27.8l0.2-0.9c0.2-0.8,0.2-1.5,0.2-2.5C71.3,41,68,29.5,55.4,29.5z
		 M43.6,46c0.7-3.4,3.1-11,11.3-11c2.9,0,5.2,0.9,6.9,2.6c2.5,2.5,3.1,6.1,3.2,8.4H43.6z"/>
	<path class="st0" d="M94.9,29.5c-4.8,0-9.3,2-12.2,5.4l-0.2-4.5h-6l0.1,1.3c0.2,2.8,0.3,5.4,0.3,9v30h6.1V45.9c0-0.9,0.2-2,0.4-3
		C85,38.3,89.2,35,93.9,35c8.1,0,9.4,7.5,9.4,12v23.6h6.1v-24C109.4,34,101.6,29.5,94.9,29.5z"/>
	<path class="st0" d="M144.2,40.6c4-2.7,6.4-7.1,6.4-11.7c0-4.2-1.3-7.6-3.9-10.1c-3.3-3.4-8.2-5-15.4-5c-3.9,0-7.8,0.4-11.2,1.2
		l-1.6,0.4v56.1l2,0.1c0.7,0,1.4,0.1,2.3,0.1c1.9,0.1,4.2,0.3,7,0.3c8.5,0,14.6-1.8,18.4-5.7c3-3.2,4.5-7.1,4.5-11.6
		C152.8,47.5,148.8,43,144.2,40.6z M126.4,21.2c1-0.1,2.5-0.2,4.7-0.2c10.4,0,11.6,4.7,11.6,8.2c0,5-4.2,8.4-10.6,8.4h-5.7V21.2z
		 M131,64.7c-1.6,0-3.2,0-4.5-0.1V44.7h4.7c3.2,0,13.6,0.7,13.6,10C144.8,63,137.3,64.7,131,64.7z"/>
	<path class="st0" d="M177.7,28.6c-9.9,0-20,7.6-20,22.2c0,12.5,8.2,21.6,19.4,21.6h0.1c10,0,20.1-7.6,20.1-22.2
		C197.4,37.5,189.3,28.6,177.7,28.6z M177.3,65.2c-6.7,0-11.7-6.3-11.7-14.6c0-7.3,3.7-14.8,12.1-14.8c8.7,0,11.9,8.7,11.9,14.5
		C189.6,58.8,184.3,65.2,177.3,65.2z"/>
	<path class="st0" d="M222.2,28.6c-9.9,0-20,7.6-20,22.2c0,12.5,8.2,21.6,19.4,21.6h0.1c10,0,20.1-7.6,20.1-22.2
		C241.9,37.5,233.8,28.6,222.2,28.6z M221.8,65.2c-6.7,0-11.7-6.3-11.7-14.6c0-7.3,3.7-14.8,12.1-14.8c8.7,0,11.9,8.7,11.9,14.5
		C234,58.8,228.8,65.2,221.8,65.2z"/>
	<path class="st0" d="M262.4,47.4l17.5-17.9h-10.2l-14.1,14.7c-0.1,0.1-0.2,0.2-0.3,0.3V11.2h-7.8v60.3h7.8v-17l1.7-1.8l14.7,18.9
		h9.7L262.4,47.4z"/>
</g>
</svg>
