<?xml version="1.0" encoding="utf-8"?>
<!-- Generator: Adobe Illustrator 20.1.0, SVG Export Plug-In . SVG Version: 6.00 Build 0)  -->
<svg version="1.1" id="分離模式" xmlns="http://www.w3.org/2000/svg" xmlns:xlink="http://www.w3.org/1999/xlink" x="0px"
	 y="0px" viewBox="0 0 345.1 86.5" style="enable-background:new 0 0 345.1 86.5;" xml:space="preserve">
<style type="text/css">
	.st0{fill:none;}
	.st1{fill:#FFFFFF;}
</style>
<g>
	<path class="st0" d="M241.4,34.3c-7.6,0-10.3,7-10.7,11.1l-0.1,0.7c0,0.1,0,0.2,0.1,0.2c0.1,0.1,0.1,0.1,0.2,0.1h19.8
		c0.2,0,0.3-0.1,0.3-0.3l0-0.6c0-1.3-0.1-5.7-3-8.7C246.4,35.2,244.2,34.3,241.4,34.3z"/>
	<path class="st0" d="M154.6,34.9c-8.5,0-11.5,8.2-11.5,15.2c0,9.1,4.6,15.2,11.4,15.2c6.6,0,11.2-6.3,11.2-15.4
		C165.8,42.4,162.3,34.9,154.6,34.9z"/>
	<path class="st0" d="M52.4,33.6C45,33.6,41,40,40.2,46.3L40.2,47h23.2l0-0.6c0-1.5-0.1-6.6-3.4-9.9C58.1,34.5,55.5,33.6,52.4,33.6z
		"/>
	<polygon class="st0" points="34.1,18.7 7.1,66.3 33.6,66.3 33.6,71.3 0,71.3 0,67.7 27.2,20 2.3,20 2.3,14.9 34.1,14.9 	"/>
	<path class="st0" d="M69.3,51.1H40.1l0,0.6c0.2,9.4,5.7,14.9,14.8,14.9c5.3,0,8.5-0.9,11-1.9l1,4.2c-2.6,1.1-6.9,2.3-13,2.3
		c-12.2,0-19.7-7.8-19.7-20.2c0-12.8,7.7-21.7,18.8-21.7c12.2,0,16.5,10.2,16.5,18.9C69.5,49.4,69.3,50.4,69.3,51.1z"/>
	<path class="st0" d="M108.4,71.3h-6.3V48.1c0-8.3-3.6-12.8-10.2-12.8c-5.6,0-9.4,4.1-10.6,8.1c-0.4,1-0.6,2.3-0.6,3.7v24.3h-6.3
		V41.8c0-4.4-0.1-7.6-0.3-10.6h5.4L80,38h0l0.1,1.3c0.2-0.4,0.3-0.9,0.5-1.3h0c3.4-6.9,10.6-7.5,10.6-7.5l0,0c1-0.2,2-0.3,3.2-0.3
		c2.3,0,14,0.8,14,17V71.3z"/>
	<path class="st0" d="M133.3,36h-8.9c-0.2,0-0.3,0.1-0.3,0.3v35.2h-8.8V27.1c0-5.9,1.7-10.8,4.8-13.7c2.6-2.4,6.4-3.8,10.4-3.8
		c2.2,0,4.1,0.3,5.9,0.8l-0.6,6.4c-1.1-0.3-2.4-0.5-3.7-0.5c-5.2,0-8,3.8-8,10.6v2.8c0,0.2,0.1,0.3,0.3,0.3h9V36z"/>
	<path class="st0" d="M154.2,71.2c-12.1,0-20.2-8.4-20.2-20.8c0-13,8.2-21.5,20.9-21.5c12,0,20.1,8.3,20.1,20.8
		C175,64.5,164.5,71.2,154.2,71.2z"/>
	<path class="st0" d="M216.9,70.2h-8.8V47.3c0-7.5-3.2-11.6-9-11.6c-5,0-8.1,3.7-9.2,6.9c-0.3,0.9-0.5,2.1-0.5,3.8v23.9h-8.9V41.5
		c0-4.9-0.1-8.5-0.3-11.7h7.5l0.5,8.6c0,0.1,0.1,0.3,0.3,0.3c0.1,0,0.3-0.1,0.4-0.2c0.5-1.3,1.3-2.8,1.3-2.9c0,0,0-0.1,0-0.1
		c1.8-3.1,6.1-6.7,12.6-6.7c3.3,0,14.1,1.2,14.1,17.2V70.2z"/>
	<path class="st0" d="M259.1,52.1H231c-0.1,0-0.2,0-0.2,0.1c-0.1,0.1-0.1,0.2-0.1,0.2l0,0.6c0.3,8.7,7.4,11.8,13.9,11.8
		c4.3,0,7.7-0.5,11-1.6l1.2,5.6c-2.9,1.1-7.6,2.3-13.7,2.3c-12.9,0-20.9-7.9-20.9-20.5c0-10.5,6.2-21.8,19.7-21.8
		c12.7,0,17.3,10.1,17.3,19.6C259.3,50.1,259.2,51.3,259.1,52.1z"/>
	<path class="st1" d="M53,29.4c-11.1,0-18.8,8.9-18.8,21.7c0,12.5,7.6,20.2,19.7,20.2c6.2,0,10.5-1.2,13-2.3l-1-4.2
		c-2.6,1-5.7,1.9-11,1.9c-9.1,0-14.6-5.6-14.8-14.9l0-0.6h29.1c0.1-0.7,0.2-1.7,0.2-2.9C69.5,39.5,65.1,29.4,53,29.4z M63.4,46.4
		l0,0.6H40.2l0.1-0.7C41,40,45,33.6,52.4,33.6c3.1,0,5.7,1,7.6,2.9C63.3,39.8,63.4,44.9,63.4,46.4z"/>
	<polygon class="st1" points="2.3,20 27.2,20 0,67.7 0,71.3 33.6,71.3 33.6,66.3 7.1,66.3 34.1,18.7 34.1,14.9 2.3,14.9 	"/>
	<polygon class="st1" points="250.8,15.3 250.8,9.6 253,9.6 253,8.6 247.5,8.6 247.5,9.6 249.7,9.6 249.7,15.3 	"/>
	<polygon class="st1" points="257,14 255.3,8.6 253.7,8.6 253.7,15.3 254.7,15.3 254.7,9.6 256.5,15.3 257.5,15.3 259.2,9.7 
		259.2,15.3 260.3,15.3 260.3,8.6 258.6,8.6 	"/>
	<path class="st1" d="M124,29.5v-2.8c0-6.8,2.8-10.6,8-10.6c1.3,0,2.6,0.2,3.7,0.5l0.6-6.4c-1.7-0.5-3.7-0.8-5.9-0.8
		c-4,0-7.8,1.4-10.4,3.8c-3.1,3-4.8,7.8-4.8,13.7v44.4h8.8V36.3c0-0.2,0.1-0.3,0.3-0.3h8.9v-6.1h-9C124.1,29.8,124,29.7,124,29.5z"
		/>
	<path class="st1" d="M154.9,28.9c-12.7,0-20.9,8.4-20.9,21.5c0,12.5,8.1,20.8,20.2,20.8c10.3,0,20.8-6.7,20.8-21.5
		C175,37.2,166.9,28.9,154.9,28.9z M154.5,65.3c-6.8,0-11.4-6.1-11.4-15.2c0-7,3-15.2,11.5-15.2c7.7,0,11.2,7.6,11.2,15.1
		C165.8,59,161.2,65.3,154.5,65.3z"/>
	<path class="st1" d="M242,28.9c-13.6,0-19.7,11.3-19.7,21.8c0,12.6,8,20.5,20.9,20.5c6.1,0,10.8-1.3,13.7-2.3l-1.2-5.6
		c-3.3,1.1-6.7,1.6-11,1.6c-6.5,0-13.6-3.1-13.9-11.8l0-0.6c0-0.1,0-0.2,0.1-0.2c0.1-0.1,0.2-0.1,0.2-0.1h28.1
		c0.1-0.8,0.2-2,0.2-3.6C259.3,39,254.8,28.9,242,28.9z M251.1,45.6l0,0.6c0,0.2-0.1,0.3-0.3,0.3H231c-0.1,0-0.2,0-0.2-0.1
		c-0.1-0.1-0.1-0.2-0.1-0.2l0.1-0.7c0.4-4.1,3.1-11.1,10.7-11.1c2.7,0,5,0.9,6.7,2.6C251,39.9,251.1,44.3,251.1,45.6z"/>
	<path class="st1" d="M202.8,28.9c-6.5,0-10.8,3.6-12.6,6.7c0,0,0,0.1,0,0.1c0,0-0.8,1.6-1.3,2.9c-0.1,0.1-0.2,0.2-0.4,0.2
		c-0.2,0-0.3-0.1-0.3-0.3l-0.5-8.6h-7.5c0.2,3.1,0.3,6.7,0.3,11.7v28.7h8.9V46.4c0-1.6,0.2-2.9,0.5-3.8c1.1-3.2,4.2-6.9,9.2-6.9
		c5.8,0,9,4.1,9,11.6v22.9h8.8V46.1C216.9,30.1,206.1,28.9,202.8,28.9z"/>
	<path class="st1" d="M94.4,30.2c-1.1,0-2.2,0.1-3.2,0.3l0,0c0,0-7.1,0.6-10.6,7.5h0c-0.2,0.4-0.4,0.9-0.5,1.3L80.1,38h0l-0.4-6.8
		h-5.4c0.2,3,0.3,6.2,0.3,10.6v29.5h6.3V47c0-1.4,0.2-2.7,0.6-3.7c1.2-4,5-8.1,10.6-8.1c6.6,0,10.2,4.5,10.2,12.8v23.2h6.3V47.2
		C108.4,31,96.8,30.2,94.4,30.2z"/>
	<path class="st0" d="M332.4,1.2h-40.5c-6.4,0-11.5,5.2-11.5,11.5v61.1c0,6.4,5.2,11.5,11.5,11.5h40.5c6.4,0,11.5-5.2,11.5-11.5
		V12.7C343.9,6.4,338.7,1.2,332.4,1.2z"/>
	<path class="st1" d="M320.6,39.7c4.5-2.9,7-7.3,7-12.2c0-6.5-4.1-14.2-15.7-14.2c-5.4,0-10.7,2.3-13.5,4.6l-1.2,1l3.4,6.2l1.8-1.3
		c1-0.8,4.7-3.3,9.1-3.3c7.2,0,8.3,4.7,8.3,7.5c0,6.3-7,8.7-11.3,8.7H303v7.1h5.2c6.5,0,13.5,2.8,13.6,10.5c0,1.3-0.2,4.7-2.7,7.2
		c-2,2-4.9,3-8.7,3c-4.6,0-8.6-1.8-10.2-3l-1.8-1.3l-3.3,6.5l1.3,1c2.6,2,7.8,3.9,13.6,3.9c13.6,0,19.8-9.1,19.8-17.6
		C329.8,47.8,326.2,42.4,320.6,39.7z"/>
	<path class="st1" d="M332.4,0h-40.5c-7,0-12.7,5.7-12.7,12.7v61.1c0,7,5.7,12.7,12.7,12.7h40.5c7,0,12.7-5.7,12.7-12.7V12.7
		C345.1,5.7,339.4,0,332.4,0z M343.9,73.8c0,6.4-5.2,11.5-11.5,11.5h-40.5c-6.4,0-11.5-5.2-11.5-11.5V12.7c0-6.4,5.2-11.5,11.5-11.5
		h40.5c6.4,0,11.5,5.2,11.5,11.5V73.8z"/>
</g>
</svg>
