<?xml version="1.0" encoding="utf-8"?>
<!-- Generator: Adobe Illustrator 20.1.0, SVG Export Plug-In . SVG Version: 6.00 Build 0)  -->
<svg version="1.1" id="分離模式" xmlns="http://www.w3.org/2000/svg" xmlns:xlink="http://www.w3.org/1999/xlink" x="0px"
	 y="0px" viewBox="0 0 359.6 88.8" style="enable-background:new 0 0 359.6 88.8;" xml:space="preserve">
<style type="text/css">
	.st0{fill:#FFFFFF;}
</style>
<g>
	<g>
		<g>
			<g>
				<g>
					<path class="st0" d="M192.3,74.7c-0.4-2.5-0.6-5.7-0.6-9.4V50.4c0-7.7-2.7-16.8-15.7-16.8c-3.2,0-6.5,0.6-9.6,2.4l-2,7.1
						c0,0,5.5-2.9,9.1-2.9h0.2c6-0.2,9.7,1.8,9.7,8.5v0.3c-15.4,0-23.8,5.5-23.8,15.3c0,6,4.4,12,12.7,12c5.6,0,9.7-2.6,11.9-5.3
						l0.6,4.4h7.7L192.3,74.7z M183.5,61.4c0,0.8-0.1,1.5-0.3,2.1c-1,2.9-4,6.3-9.2,6.3c-3.9,0-6.2-2.4-6.2-6.3
						c0-5.6,5.1-8.4,15.1-8.4c0.2,0,0.4,0,0.6,0V61.4z"/>
				</g>
			</g>
		</g>
	</g>
	<g>
		<g>
			<path class="st0" d="M55.3,31c-11.5,0-19.6,9.3-19.6,22.7c0,13,7.9,21.1,20.6,21.1c6.5,0,10.9-1.3,13.6-2.4l-1-4.4
				c-2.7,1.1-6,2-11.5,2c-9.5,0-15.3-5.8-15.4-15.6l0-0.7h30.4c0.1-0.8,0.2-1.8,0.2-3C72.5,41.6,68,31,55.3,31z M66.2,49.4H42
				l0.1-0.7c0.8-6.6,5-13.3,12.7-13.3c3.3,0,5.9,1,7.9,3c3.4,3.5,3.6,8.8,3.6,10.4V49.4z"/>
		</g>
		<g>
			<polygon class="st0" points="2.4,21.2 28.4,21.2 0,71 0,74.8 35.1,74.8 35.1,69.5 7.4,69.5 35.6,19.9 35.6,15.9 2.4,15.9 			"/>
		</g>
		<g>
			<path class="st0" d="M98.6,31.9c-1.2,0-2.3,0.1-3.3,0.3l0,0c0,0-7.5,0.6-11.1,7.8h0c-0.2,0.4-0.4,0.9-0.6,1.3L83.6,40l0,0
				l-0.5-7.1h-5.7c0.2,3.2,0.3,6.5,0.3,11.1v30.9h6.6V49.5c0-1.5,0.2-2.9,0.6-3.9c1.3-4.2,5.2-8.4,11.1-8.4
				c6.8,0,10.6,4.8,10.6,13.4v24.3h6.6V49.6C113.3,32.7,101.1,31.9,98.6,31.9z"/>
		</g>
	</g>
	<g>
		<path class="st0" d="M125.1,16.9c3.6-0.6,8.4-1.1,14.5-1.1c7.5,0,13,1.7,16.4,4.9c3.2,2.8,5.1,7,5.1,12.3c0,5.3-1.6,9.5-4.5,12.5
			c-4,4.3-10.5,6.4-17.9,6.4c-2.3,0-4.3-0.1-6.1-0.5v23.5h-7.6V16.9z M132.7,45.1c1.6,0.4,3.7,0.6,6.3,0.6c9.1,0,14.7-4.4,14.7-12.5
			c0-7.7-5.5-11.5-13.8-11.5c-3.3,0-5.8,0.3-7.1,0.6V45.1z"/>
	</g>
	<g>
		<path class="st0" d="M238,13.1v50.9c0,3.7,0.1,8,0.3,10.9h-6.9l-0.3-7.3h-0.2c-2.3,4.7-7.5,8.3-14.3,8.3c-10.2,0-18-8.6-18-21.4
			c-0.1-14,8.6-22.6,18.9-22.6c6.4,0,10.8,3,12.7,6.4h0.2V13.1H238z M230.3,49.8c0-1-0.1-2.3-0.3-3.2c-1.1-4.9-5.3-8.9-11-8.9
			c-7.9,0-12.6,7-12.6,16.3c0,8.5,4.2,15.6,12.4,15.6c5.1,0,9.8-3.4,11.2-9.1c0.3-1,0.3-2.1,0.3-3.3V49.8z"/>
	</g>
	<g>
		<g>
			<path class="st0" d="M346.5,1.2c6.5,0,11.8,5.3,11.8,11.8v62.7c0,6.5-5.3,11.8-11.8,11.8h-74c-6.5,0-11.8-5.3-11.8-11.8V13.1
				c0-6.5,5.3-11.8,11.8-11.8H346.5 M346.5,0h-74c-7.2,0-13.1,5.9-13.1,13.1v62.7c0,7.2,5.8,13.1,13.1,13.1h74
				c7.2,0,13.1-5.8,13.1-13.1V13.1C359.6,5.9,353.7,0,346.5,0L346.5,0z"/>
		</g>
	</g>
	<g>
		<g>
			<path class="st0" d="M320,66.9c2.3,1.4,5.8,2.8,9.6,2.8c6.8,0,10-3.5,10-7.7c0-4.5-2.9-6.9-9-9.2c-7-2.5-10.9-6.2-10.9-11.1
				c0-5.9,4.9-11,13.2-11c3.9,0,7.3,1.1,9.4,2.5l-1.6,3.3c-1.5-1-4.3-2.5-8.5-2.5c-5.4,0-8.3,3.3-8.3,7c0,4.2,3,6,8.8,8.3
				c6.9,2.6,11,5.9,11,12.1c0,6.9-5.7,11.6-14.4,11.6c-4.1,0-8-1.1-10.8-2.8L320,66.9z"/>
			<path class="st0" d="M329.4,74c-4.1,0-8.2-1.1-11.3-2.9l-0.7-0.4l2.3-5.1l0.9,0.5c1.7,1,5.1,2.7,9.1,2.7c5.6,0,9-2.6,9-6.8
				c0-3.8-2.2-6-8.4-8.4c-7.6-2.7-11.4-6.8-11.4-12c0-5.9,4.8-11.9,14.1-11.9c3.8,0,7.4,1,9.9,2.7l0.7,0.4l-2.4,5l-0.9-0.6
				c-2.3-1.5-5-2.3-8-2.3c-5.1,0-7.4,3.1-7.4,6.1c0,3.6,2.4,5.2,8.2,7.5c5.7,2.2,11.6,5.4,11.6,13C344.7,69,338.5,74,329.4,74z
				 M319.7,69.9c2.7,1.4,6.2,2.3,9.7,2.3c8.2,0,13.5-4.2,13.5-10.7c0-5.2-3-8.4-10.4-11.3c-5.5-2.2-9.4-4.1-9.4-9.2
				c0-3.8,2.9-8,9.2-8c3,0,5.8,0.7,8.2,2.1l0.8-1.6c-2.2-1.2-5.2-2-8.2-2c-7.2,0-12.2,4.2-12.2,10.1c0,4.3,3.4,7.8,10.2,10.2
				c5.9,2.3,9.6,4.8,9.6,10.1c0,4-2.9,8.6-10.9,8.6c-3.8,0-7.1-1.3-9.2-2.4L319.7,69.9z"/>
		</g>
	</g>
	<g>
		<path class="st0" d="M301.9,40.6c4.5-3,7.1-7.4,7.1-12.4c0-6.6-4.2-14.4-16-14.4c-5.5,0-10.8,2.3-13.7,4.6l-1.3,1l3.4,6.3l1.8-1.4
			c1-0.8,4.7-3.3,9.2-3.3c7.4,0,8.5,4.8,8.5,7.6c0,6.5-7.1,8.9-11.5,8.9H284v7.2h5.3c6.6,0,13.8,2.8,13.8,10.7
			c0,1.3-0.2,4.7-2.7,7.3c-2,2-5,3.1-8.9,3.1c-4.7,0-8.8-1.8-10.4-3l-1.9-1.4l-3.3,6.7l1.3,1c2.7,2,8,4,13.8,4
			c13.8,0,20.1-9.3,20.1-17.9C311.2,48.8,307.6,43.3,301.9,40.6z"/>
	</g>
</g>
</svg>
