<svg xmlns="http://www.w3.org/2000/svg" viewBox="0 0 310 52.1"><path d="M185.5 20.2c4.5-4.3 8.6-8 13.1-12.3 2.5-2.4 5.8-5.5 8.3-7.9h-10.2c-2.5 0-4.7 1.3-5.4 2-7.3 5.7-13.1 10.5-20.3 16.1-.6.5-1.4.8-2.2.8h-30.7c-.7 0-1.5-.3-2.2-.8-7.2-5.6-13.1-10.4-20.3-16.1-.8-.7-3-2-5.4-2H100c2.5 2.4 5.8 5.5 8.3 7.9 4.5 4.3 8.6 8 13.1 12.3 3.2 3.6 2.5 7.4-.8 11.1-6.5 6.9-19.3 20.1-19.9 20.8h9.6c2.2 0 3.8-.5 5.6-2.2 6.5-5.9 13.1-11.5 19.6-17.2.6-.5 1.3-.8 2-.8h31.8c.7 0 1.4.3 2 .8 6.6 5.7 13.1 11.4 19.6 17.2 1.8 1.7 3.4 2.2 5.6 2.2h9.6c-.6-.7-13.4-13.9-19.9-20.8-3.3-3.7-3.9-7.6-.7-11.1M21.2 39.4h-4.6c-3.2 0-4.2-1.4-4.2-5.6V17.3c0-3.6 1.2-5.2 3.9-5.2h77.9L81.4 0H12.1c-1.6 0-3.2 0-4.8.2C3.1.8.2 4.5.1 9.8 0 20.2 0 30.6.1 40.9c.1 6 2.6 9.7 6.9 10.8 1.1.3 2.3.3 3.5.3h71.6l12.2-12.7-73.1.1z"/><path d="M101.8 19.8H20.3v12h81.5c1.6-1.6 3.1-3.8 3.1-6.2 0-2.3-1.1-4.1-3.1-5.8m191.6 19.6h-60.6l-8.1-8.1-1.3-1.3-.3-.3c-.9-1.2-1.4-2.6-1.4-4.1s.4-2.7 1.3-3.9c.3-.4 9.4-9.5 9.4-9.5h61.3c2.7 0 3.9 1.6 3.9 5.2v16.5c0 4.1-1 5.5-4.2 5.5m16.5-29.6c-.1-5.4-3-9-7.2-9.5-1.6-.3-3.2-.3-4.8-.3h-71.7l-21.6 20.4c-1.6 1.7-1.9 3.7-1.9 5 0 1.8 1.2 3.9 2.4 5.3.1.1 20.3 21.3 20.3 21.3h4.6l.1.1h69.3c1.2 0 2.4 0 3.5-.3 4.3-1.1 6.8-4.8 6.9-10.8.2-10.5.2-20.8.1-31.2"/></svg>