<svg version="1.1" id="圖層_1" xmlns="http://www.w3.org/2000/svg" xmlns:xlink="http://www.w3.org/1999/xlink" x="0" y="0" viewBox="0 0 548.9 183.8" xml:space="preserve"><style>.st0{clip-path:url(#SVGID_2_)}</style><defs><path id="SVGID_1_" d="M78.9 0h391v65.7h-391z"/></defs><clipPath id="SVGID_2_"><use xlink:href="#SVGID_1_" overflow="visible"/></clipPath><path class="st0" d="M312.9 25.4c5.7-5.4 10.8-10.1 16.5-15.5 3.2-3 7.3-6.9 10.5-9.9H327c-3.1 0-5.9 1.6-6.9 2.5-9.1 7.1-16.5 13.2-25.6 20.3-.8.6-1.8 1-2.7 1h-38.7c-.9 0-1.9-.4-2.7-1-9.1-7.1-16.5-13.2-25.6-20.3-1-.9-3.7-2.5-6.9-2.5H205c3.2 3 7.3 6.9 10.5 9.9 5.7 5.4 10.8 10.1 16.5 15.5 4 4.5 3.2 9.4-1 14-8.2 8.7-24.4 25.4-25.1 26.2H218c2.8 0 4.7-.6 7.1-2.7 8.2-7.4 16.5-14.5 24.8-21.7.7-.6 1.7-1 2.5-1h40.1c.8 0 1.8.4 2.5 1 8.3 7.2 16.6 14.3 24.7 21.7 2.3 2.1 4.3 2.7 7.1 2.7H339c-.7-.8-16.9-17.5-25.1-26.2-4.2-4.6-5-9.5-1-14M105.6 49.7h-5.8c-4 0-5.3-1.8-5.3-7.1V21.8c0-4.5 1.6-6.6 5-6.6h98.2L181.6.1H94.2c-2 0-4 0-6 .3-5.4.7-9 5.3-9.1 12-.2 13.1-.2 26.2 0 39.2.1 7.6 3.2 12.2 8.7 13.7 1.4.4 3 .4 4.5.4h90.3l15.4-16h-92.4z"/><path class="st0" d="M207.4 24.9c-.2-.1-102.8 0-102.8 0v15.2h102.8c2-2 3.9-4.8 3.9-7.8-.1-2.9-1.5-5.1-3.9-7.4M449 49.6h-76.5l-10.2-10.2-1.7-1.7c-.1-.1-.2-.3-.3-.4-1.1-1.5-1.8-3.3-1.8-5.2 0-1.9.5-3.4 1.6-5 .4-.5 11.8-12 11.8-12h77.3c3.4 0 5 2.1 5 6.6v20.8c.1 5.4-1.2 7.1-5.2 7.1m20.8-37.3c-.1-6.8-3.7-11.3-9.1-12-2-.3-4-.3-6-.3h-90.5L337 25.7c-2 2.1-2.4 4.7-2.4 6.4 0 2.3 1.5 5 3.1 6.7.1.1 25.6 26.8 25.6 26.8h5.8l.1.1h87.5c1.5 0 3 0 4.5-.4 5.4-1.4 8.6-6 8.7-13.7.1-13.1.1-26.2-.1-39.3"/><path d="M17.8 100H3.1v-3.8h34.5v3.8H22.9v32.5h-5V100zm25.3-5.4H48v15.7c2.1-2.9 5.5-5.2 11.1-5.2 7.8 0 12.4 4.3 12.4 10.7v16.6h-4.8v-15.6c0-5-3.3-8.1-9-8.1-5.6 0-9.7 3.4-9.7 8.4v15.3h-4.8V94.6zm34.8 24.5v-.1c0-7.7 6.6-13.9 15.6-13.9 9.6 0 15.1 6.3 15.1 14.1 0 .5 0 .8-.1 1.3H82.8c.7 5.8 5.7 9.1 11.4 9.1 4.5 0 7.6-1.5 10.2-3.8l3 2.2c-3.3 3-7.2 5-13.4 5-8.9 0-16.1-5.6-16.1-13.9zm25.8-1.5c-.5-4.9-3.9-9.1-10.4-9.1-5.7 0-9.9 3.9-10.5 9.1h20.9zm29.1-21.4h31.6v3.8h-26.6v12.9h23.8v3.7h-23.8v15.8h-5V96.2zm37.9 26.1v-16.6h4.8v15.6c0 5 3.3 8.1 9 8.1 5.5 0 9.7-3.4 9.7-8.4v-15.3h4.8v26.8h-4.8v-4.7c-2.2 2.9-5.5 5.2-11.1 5.2-7.8 0-12.4-4.4-12.4-10.7zm39 3v-16.2h-4.5v-3.5h4.5v-8.1h4.8v8.1h10.3v3.5h-10.3v15.6c0 3.3 2.2 4.5 5.5 4.5 1.6 0 3-.3 4.7-.9v3.4c-1.7.7-3.5 1.1-5.8 1.1-5.3.1-9.2-2-9.2-7.5zm21.2-3v-16.6h4.8v15.6c0 5 3.3 8.1 9 8.1 5.5 0 9.7-3.4 9.7-8.4v-15.3h4.8v26.8h-4.8v-4.7c-2.2 2.9-5.5 5.2-11.1 5.2-7.8 0-12.4-4.4-12.4-10.7zm37.2-16.6h4.8v7c2.4-4.5 7.1-7.7 13.2-7.5v4.3h-.4c-7.1 0-12.9 4.2-12.9 12.3v10.7H268v-26.8zm20.1 13.4v-.1c0-7.7 6.6-13.9 15.6-13.9 9.6 0 15.1 6.3 15.1 14.1 0 .5 0 .8-.1 1.3h-25.7c.7 5.8 5.7 9.1 11.4 9.1 4.5 0 7.6-1.5 10.2-3.8l3 2.2c-3.3 3-7.2 5-13.4 5-8.8 0-16.1-5.6-16.1-13.9zm25.8-1.5c-.5-4.9-3.9-9.1-10.4-9.1-5.7 0-9.9 3.9-10.5 9.1H314zm28.5-22.2h5.5v4.4h-5.5v-4.4zm.3 10.3h4.8v26.8h-4.8v-26.8zm11.4 23.3l2.4-2.8c3.5 2.2 7.4 3.4 11.2 3.4 3.9 0 6.7-1.7 6.7-4.2v-.1c0-2.7-3.8-3.7-8.1-4.7-5.1-1.2-10.7-2.6-10.7-7.6v-.1c0-4.6 4.6-7.7 11.1-7.7 4 0 8.4 1.1 11.7 3l-2.2 3c-3-1.6-6.5-2.6-9.6-2.6-3.8 0-6.3 1.7-6.3 3.9v.1c0 2.5 4 3.5 8.4 4.6 5 1.2 10.4 2.8 10.4 7.7v.1c0 5.1-5.1 8-11.6 8-4.6-.1-9.7-1.6-13.4-4zm49.7-32.8h5v16.1h25.4V96.2h5v36.2h-5v-16.3h-25.4v16.3h-5V96.2zm43 22.9v-.1c0-7.7 6.6-13.9 15.6-13.9 9.6 0 15.1 6.3 15.1 14.1 0 .5 0 .8-.1 1.3h-25.7c.7 5.8 5.7 9.1 11.4 9.1 4.5 0 7.6-1.5 10.2-3.8l3 2.2c-3.3 3-7.2 5-13.4 5-8.8 0-16.1-5.6-16.1-13.9zm25.8-1.5c-.5-4.9-3.9-9.1-10.4-9.1-5.7 0-9.9 3.9-10.5 9.1h20.9zm11.4-11.9h4.8v7c2.4-4.5 7.1-7.7 13.2-7.5v4.3h-.4c-7.1 0-12.9 4.2-12.9 12.3v10.7H484v-26.8zm20.1 13.4v-.1c0-7.7 6.6-13.9 15.6-13.9 9.6 0 15.1 6.3 15.1 14.1 0 .5 0 .8-.1 1.3h-25.7c.7 5.8 5.7 9.1 11.4 9.1 4.5 0 7.6-1.5 10.2-3.8l3 2.2c-3.3 3-7.2 5-13.4 5-8.8 0-16.1-5.6-16.1-13.9zm25.8-1.5c-.5-4.9-3.9-9.1-10.4-9.1-5.7 0-9.9 3.9-10.5 9.1H530zm10.3 9.4h5.8v5.4h-5.8V127zM32.4 161.3h8.5c2.3 0 4.2.6 5.4 1.5.9.7 1.3 1.6 1.3 2.7 0 2.3-1.8 3.5-3.5 4 2.5.5 4.7 1.7 4.7 4.1 0 2.8-2.9 4.6-7.4 4.6h-9v-16.9zm13.7 4.3c0-1.9-1.9-3.1-5.2-3.1h-7v6.7h6.8c3.2-.1 5.4-1.3 5.4-3.6zm-5.2 4.7h-7v6.8h7.5c3.5 0 5.8-1.3 5.8-3.5 0-2.1-2.2-3.3-6.3-3.3zm11.7 1.8c0-3.6 3.1-6.5 7.1-6.5 4.2 0 6.9 2.8 6.9 6.5v.5H54.2c.3 3.1 2.9 4.9 5.9 4.9 2.3 0 3.9-.9 5.2-1.9l1 .7c-1.5 1.4-3.3 2.3-6.2 2.3-4.1 0-7.5-2.6-7.5-6.5zm12.5-.6c-.2-2.5-1.9-4.8-5.4-4.8-3 0-5.3 2.1-5.5 4.8h10.9zm6.8 3.6V167h-2.2v-1.1h2.2v-4h1.4v4h5.3v1.1h-5.3v8c0 1.8 1.3 2.4 3 2.4.7 0 1.4-.1 2.2-.4v1.1c-.8.3-1.5.4-2.4.4-2.3 0-4.2-1-4.2-3.4zm12.1 0V167h-2.2v-1.1H84v-4h1.4v4h5.3v1.1h-5.3v8c0 1.8 1.3 2.4 3 2.4.7 0 1.4-.1 2.2-.4v1.1c-.8.3-1.5.4-2.4.4-2.3 0-4.2-1-4.2-3.4zm9.8-3c0-3.6 3.1-6.5 7.1-6.5 4.2 0 6.9 2.8 6.9 6.5v.5H95.3c.3 3.1 2.9 4.9 5.9 4.9 2.3 0 3.9-.9 5.2-1.9l1 .7c-1.5 1.4-3.3 2.3-6.2 2.3-4 0-7.4-2.6-7.4-6.5zm12.5-.6c-.2-2.5-1.9-4.8-5.4-4.8-3 0-5.3 2.1-5.5 4.8h10.9zm6-5.6h1.4v3.5c1.2-2.2 3.7-3.8 6.7-3.7v1.3h-.1c-3.5 0-6.5 2.2-6.5 6.2v5.1h-1.4v-12.4zm19.9-4.6h1.7l6.5 15.2 6-15.2h1.2l6 15.2 6.5-15.2h1.6l-7.5 17.1H153l-6-14.8-6 14.8h-1.2l-7.6-17.1zm33.7-.3h1.8v1.6h-1.8V161zm.1 4.9h1.4v12.4H166v-12.4zm6.8 4.5h7.9v1.4h-7.9v-1.4zm13.3-9.1h14.5v1.2h-13v7h11.7v1.2h-11.7v7.7h-1.5v-17.1zm19.3-.3h1.8v1.6h-1.8V161zm.1 4.9h1.4v12.4h-1.4v-12.4zm16.6-4.9h1.8v1.6h-1.8V161zm.2 4.9h1.4v12.4h-1.4v-12.4zm6.1 10.9l.9-.9c1.7 1 3.5 1.6 5.4 1.6 2 0 3.6-.9 3.6-2.4s-1.9-2-4-2.5c-2.4-.6-5.2-1.2-5.2-3.4 0-2 2-3.4 5-3.4 1.8 0 3.8.5 5.3 1.4l-.8 1c-1.4-.8-3-1.2-4.6-1.2-2.1 0-3.4.9-3.4 2.2 0 1.4 2 1.9 4.2 2.4 2.4.6 5 1.3 5 3.5s-2.3 3.6-5.2 3.6c-2.2-.1-4.6-.9-6.2-1.9zm25.3-10.9h1.4v2.3c1-1.5 2.7-2.6 5.4-2.6 3.8 0 6 2.1 6 5.1v7.6h-1.4v-7.4c0-2.6-1.7-4.2-4.8-4.2-2.9 0-5.2 1.8-5.2 4.4v7.2h-1.4v-12.4zm17.3 6.3c0-3.5 3.3-6.5 7.8-6.5s7.7 3 7.7 6.4c0 3.5-3.3 6.5-7.8 6.5-4.4 0-7.7-3-7.7-6.4zm13.9 0c0-3-2.7-5.4-6.2-5.4-3.6 0-6.1 2.4-6.1 5.3 0 3 2.7 5.4 6.2 5.4 3.6 0 6.1-2.4 6.1-5.3zm15.6-11.6h1.4v17.8h-1.4v-17.8zm6.4 11.6c0-3.5 3.3-6.5 7.8-6.5s7.7 3 7.7 6.4c0 3.5-3.3 6.5-7.8 6.5s-7.7-3-7.7-6.4zm13.9 0c0-3-2.7-5.4-6.2-5.4-3.6 0-6.1 2.4-6.1 5.3 0 3 2.7 5.4 6.2 5.4s6.1-2.4 6.1-5.3zm6.3-6.3h1.4v2.3c1-1.5 2.7-2.6 5.4-2.6 3.8 0 6 2.1 6 5.1v7.6h-1.4v-7.4c0-2.6-1.7-4.2-4.8-4.2-3 0-5.2 1.8-5.2 4.4v7.2h-1.4v-12.4zm18 14.5l.9-1c1.8 1.1 3.9 1.8 6.1 1.8 3.5 0 5.9-1.6 5.9-4.8v-1.8c-1.3 1.5-3.3 2.9-6.3 2.9-3.6 0-7.2-2.3-7.2-5.8 0-3.6 3.6-5.9 7.2-5.9 3 0 5 1.3 6.3 2.8v-2.5h1.4v10.5c0 1.8-.7 3.2-1.9 4.2-1.3 1.1-3.2 1.7-5.5 1.7-2.5-.3-4.8-.9-6.9-2.1zm12.9-8.9c0-2.9-3.1-4.8-6.2-4.8-3.2 0-5.8 1.8-5.8 4.7 0 2.8 2.7 4.7 5.8 4.7 3.1.1 6.2-1.8 6.2-4.6zm6.1.6c0-3.6 3.1-6.5 7.1-6.5 4.2 0 6.9 2.8 6.9 6.5v.5h-12.5c.3 3.1 2.9 4.9 5.9 4.9 2.3 0 3.9-.9 5.2-1.9l1 .7c-1.5 1.4-3.3 2.3-6.2 2.3-4 0-7.4-2.6-7.4-6.5zm12.5-.6c-.2-2.5-1.9-4.8-5.4-4.8-3 0-5.3 2.1-5.5 4.8h10.9zm6-5.6h1.4v3.5c1.2-2.2 3.7-3.8 6.7-3.7v1.3h-.1c-3.5 0-6.5 2.2-6.5 6.2v5.1h-1.4v-12.4zm20.2 6.2c0-3.6 3.1-6.5 7.1-6.5 4.2 0 6.9 2.8 6.9 6.5v.5h-12.5c.3 3.1 2.9 4.9 5.9 4.9 2.3 0 3.9-.9 5.2-1.9l1 .7c-1.5 1.4-3.3 2.3-6.2 2.3-4 0-7.4-2.6-7.4-6.5zm12.5-.6c-.2-2.5-1.9-4.8-5.4-4.8-3 0-5.3 2.1-5.5 4.8h10.9zm6-5.6h1.4v2.3c1-1.5 2.7-2.6 5.4-2.6 3.8 0 6 2.1 6 5.1v7.6h-1.4v-7.4c0-2.6-1.7-4.2-4.8-4.2-3 0-5.2 1.8-5.2 4.4v7.2h-1.4v-12.4zm17.3 6.3c0-3.5 3.3-6.5 7.8-6.5s7.7 3 7.7 6.4c0 3.5-3.3 6.5-7.8 6.5-4.4 0-7.7-3-7.7-6.4zm13.9 0c0-3-2.7-5.4-6.2-5.4-3.6 0-6.1 2.4-6.1 5.3 0 3 2.7 5.4 6.2 5.4s6.1-2.4 6.1-5.3zm6 1.3v-7.6h1.4v7.4c0 2.6 1.7 4.2 4.8 4.2 2.9 0 5.2-1.8 5.2-4.4v-7.2h1.4v12.4h-1.4V176c-1 1.5-2.7 2.6-5.4 2.6-3.8 0-6-2.1-6-5.1zm18.3 6.9l.9-1c1.8 1.1 3.9 1.8 6.1 1.8 3.5 0 5.9-1.6 5.9-4.8v-1.8c-1.3 1.5-3.3 2.9-6.3 2.9-3.6 0-7.2-2.3-7.2-5.8 0-3.6 3.6-5.9 7.2-5.9 3 0 5 1.3 6.3 2.8v-2.5h1.4v10.5c0 1.8-.7 3.2-1.9 4.2-1.3 1.1-3.2 1.7-5.5 1.7-2.5-.3-4.8-.9-6.9-2.1zm13-8.9c0-2.9-3.1-4.8-6.2-4.8-3.2 0-5.8 1.8-5.8 4.7 0 2.8 2.7 4.7 5.8 4.7 3.1.1 6.2-1.8 6.2-4.6zm7.1-10.9h1.4v7.7c1-1.5 2.7-2.6 5.4-2.6 3.8 0 6 2.1 6 5.1v7.6h-1.4V171c0-2.6-1.7-4.2-4.8-4.2-2.9 0-5.2 1.8-5.2 4.4v7.2h-1.4v-17.8zm18 15.6h1.9v2.1h-1.9v-2.1z"/></svg>