<svg version="1.1" id="gototop" xmlns="http://www.w3.org/2000/svg" x="0" y="0" viewBox="0 0 141.2 141.2" xml:space="preserve" enable-background="new 0 0 141.2 141.2"><style>.st0{fill:#fff}</style><defs><filter id="f1" x="0" y="0" width="200%" height="200%"><feOffset result="offOut" in="SourceAlpha" dx="20" dy="20"/><feGaussianBlur result="blurOut" in="offOut" stdDeviation="10"/><feBlend in="SourceGraphic" in2="blurOut"/></filter></defs><path class="st0" d="M105.1 96L70.6 56.5 36.1 96l-7.7-6.8 42.2-48.4 42.2 48.4z"/><path class="st0" d="M70.6 141.2C31.7 141.2 0 109.5 0 70.6S31.7 0 70.6 0s70.6 31.7 70.6 70.6-31.7 70.6-70.6 70.6zm0-130.9c-33.3 0-60.3 27.1-60.3 60.3 0 33.3 27.1 60.3 60.3 60.3 33.3 0 60.3-27.1 60.3-60.3 0-33.2-27-60.3-60.3-60.3z"/></svg>