<?xml version="1.0" encoding="utf-8"?>
<!-- Generator: Adobe Illustrator 21.1.0, SVG Export Plug-In . SVG Version: 6.00 Build 0)  -->
<svg version="1.1" id="圖層_1" xmlns="http://www.w3.org/2000/svg" xmlns:xlink="http://www.w3.org/1999/xlink" x="0px" y="0px"
	 viewBox="0 0 39.6 39.6" style="enable-background:new 0 0 39.6 39.6;" xml:space="preserve">
<style type="text/css">
	.st0{fill:#FFFFFF;}
</style>
<path class="st0" d="M19.8,39.6C8.9,39.6,0,30.7,0,19.8S8.9,0,19.8,0s19.8,8.9,19.8,19.8S30.7,39.6,19.8,39.6z M19.8,1.5
	C9.7,1.5,1.5,9.7,1.5,19.8s8.2,18.3,18.3,18.3s18.3-8.2,18.3-18.3S29.9,1.5,19.8,1.5z"/>
<path class="st0" d="M13.6,19.6l8.5,8.5l-1.4,1.4L12.1,21L13.6,19.6z"/>
<path class="st0" d="M22.1,11.1l1.4,1.4L15,21l-1.4-1.4L22.1,11.1z"/>
</svg>
