<?xml version="1.0" encoding="utf-8"?>
<!-- Generator: Adobe Illustrator 21.1.0, SVG Export Plug-In . SVG Version: 6.00 Build 0)  -->
<svg version="1.1" id="圖層_1" xmlns="http://www.w3.org/2000/svg" xmlns:xlink="http://www.w3.org/1999/xlink" x="0px" y="0px"
	 viewBox="0 0 3632 330.5" style="enable-background:new 0 0 3632 330.5;" xml:space="preserve">
<style type="text/css">
	.st0{fill:#0032DD;}
</style>
<g>
	<g>
		<path class="st0" d="M2561.2,33.4v176.5c0,74.6,34.7,103.2,77.6,103.2c48.6,0,82-31.2,82-103.2V33.4h20.8v174.8
			c0,89.8-48.6,122.3-103.7,122.3c-51.2,0-97.6-29.5-97.6-119.3V33.4H2561.2z"/>
		<path class="st0" d="M2976.2,325.7l-44.2-72c-18.2-27.3-28.6-43.8-38.6-60.7h-0.9c-9.5,16.9-18.6,33-36.9,61.2l-42.1,71.6h-23.9
			l92.8-147.9l-88.9-144.4h23.4l47.3,78.1c12.1,19.5,21.3,34.7,29.9,50.3h0.9c9.1-16.9,18.2-30.4,30.8-50.3l49-78.1h24.3L2906,175.7
			l94.1,150.1H2976.2z"/>
		<path class="st0" d="M3152.3,325.7v-82.8h-134.5V229l137.5-185.2h16.9v181.7h42.9v17.3h-42.9v82.8H3152.3z M3152.3,225.6V111.5
			c0-13.4,0.4-26.5,1.3-39l-1.3-0.4c-8.7,16-15.2,25.6-22.1,35.6l-87.6,117.1v0.9H3152.3z"/>
		<path class="st0" d="M3252.9,294.9c10,7.4,33.8,17.8,60.7,17.8c57.7,0,71.6-39.9,71.1-65.1c-0.4-47.3-41.2-66.4-82.8-66.4h-17.8
			V164h18.6c31.2,0,70.7-17.8,70.7-56.8c0-26-14.7-50.3-54.6-50.3c-21.7,0-42.1,10-54.6,19.5l-8.2-15.2c13.4-10.8,39-22.1,65.5-22.1
			c53.3,0,73.7,33.4,73.7,65.5c0,28.6-18.6,53.8-52.5,66.8v0.9c35.1,6.9,63.8,33.8,63.8,74.6c0,42.1-30.4,83.7-95.4,83.7
			c-28.6,0-54.2-10-66.4-19.1L3252.9,294.9z"/>
		<path class="st0" d="M3539.6,330.5c-44.2,0-85-43.4-86.3-144.4c0-102.4,45.1-147,92.4-147c49.4,0,86.3,44.7,86.3,141.8
			c0,101.1-36.4,149.6-91.9,149.6H3539.6z M3542.2,313.2c46.8,0,68.1-53.3,68.1-130.1c0-73.7-20-126.6-67.7-126.6
			c-40.8,0-67.7,52-67.7,126.6c-1.3,78.5,25.6,130.1,66.8,130.1H3542.2z"/>
	</g>
	<g>
		<path class="st0" d="M102.8,26.3L0,310.4h20.6l35-99.5h112.5l35.8,99.5h20.6l-102.4-284H102.8z M161.8,194.1H61.9l35-95.6
			c5.9-18.1,10.5-32.9,14.7-49.3h0.8c4.2,16,8,30.4,14.8,50.1L161.8,194.1z"/>
		<path class="st0" d="M329.5,154c-40.9-16-59-32-59-63.2c0-22.3,15.6-51.8,61.5-51.8c24.4,0,42.6,8,50.1,13.5l7.6-17.2
			c-9.6-6.3-29.9-13.1-56.5-13.1c-48.5,0-82.6,30.3-82.6,72c0,38.3,27.4,61.9,72.9,78.4c41.3,15.6,57.7,34.6,57.7,66.2
			c0,35-26.1,59-68.7,59c-23.6,0-45.9-7.6-61.9-18.5l-7.6,16.4c14.8,11,43.4,19,67.9,19c60.7,0,90.2-36.7,90.2-77.9
			C401.2,194.5,376.3,173,329.5,154z"/>
		<path class="st0" d="M613.5,197.9c0,69.9-32.4,100.2-79.6,100.2c-41.7,0-75.5-27.8-75.5-100.2V26.3h-20.2v172.8
			c0,87.2,45.1,115.9,94.8,115.9c53.5,0,100.7-31.6,100.7-118.8V26.3h-20.2V197.9z"/>
		<path class="st0" d="M755.1,154c-40.9-16-59-32-59-63.2c0-22.3,15.6-51.8,61.5-51.8c24.4,0,42.6,8,50.1,13.5l7.6-17.2
			c-9.7-6.3-29.9-13.1-56.5-13.1c-48.5,0-82.6,30.3-82.6,72c0,38.3,27.4,61.9,72.9,78.4c41.3,15.6,57.8,34.6,57.8,66.2
			c0,35-26.1,59-68.7,59c-23.6,0-45.9-7.6-61.9-18.5l-7.6,16.4c14.7,11,43.4,19,67.9,19c60.7,0,90.2-36.7,90.2-77.9
			C826.7,194.5,801.9,173,755.1,154z"/>
		<polygon class="st0" points="1126.3,40.7 1126.3,20.1 951.6,20.1 951.6,49 1085.6,49 939.4,296 939.4,316.6 1127.5,316.6 
			1127.5,287.7 979.8,287.7 		"/>
		<path class="st0" d="M1234.2,97.2c-57.3,0-97.2,47.6-97.2,115.8c0,64.4,40.5,107.7,100.6,107.7c37.6,0,59.2-9.7,66.7-13.8l4.5-2.5
			l-8.8-27.2l-6.4,3.1c-11.6,5.5-26.1,10.7-53.4,10.7c-43.3,0-68.8-28.3-70.8-77.8h147.9l1.1-4.9c1-4.4,1-7.9,1-13.5
			C1319.2,158.6,1301.3,97.2,1234.2,97.2z M1231.7,126.6c15.5,0,27.9,4.7,37,13.8c13.2,13.4,16.4,32.7,16.9,44.5h-114
			C1175.2,166.6,1188.2,126.6,1231.7,126.6z"/>
		<path class="st0" d="M1444.9,97.2c-25.7,0-49.5,10.8-64.8,28.6l-0.9-24h-31.7l0.5,6.7c1.2,15.2,1.6,28.6,1.6,48v160h32.7V184.8
			c0-4.7,0.9-10.8,2.3-15.9c7.5-25,30-42.4,54.7-42.4c43.4,0,49.8,40.2,49.8,64.2v125.9h32.7V189
			C1521.9,121.3,1480.4,97.2,1444.9,97.2z"/>
		<path class="st0" d="M1707.5,156.6c21.1-14.6,34.3-37.7,34.3-62.4c0-22.4-7.1-40.7-20.8-53.9c-17.8-18.3-43.9-26.9-81.9-26.9
			c-20.6,0-41.8,2.4-59.8,6.6l-8.3,2v298.7l10.4,0.4c3.6,0.1,7.6,0.3,12.2,0.7c10.1,0.6,22.6,1.4,37.5,1.4c45.5,0,77.5-9.9,98-30.4
			c15.9-17,24-37.7,24-61.7C1753.2,193.3,1731.7,169.1,1707.5,156.6z M1637.1,284.9c-8.4,0-17-0.1-24.2-0.7V178.3h25
			c17,0,72.7,3.9,72.7,53.3C1710.6,275.6,1670.6,284.9,1637.1,284.9z M1643.4,140.3h-30.5V53.1c5.5-0.7,13.5-1.2,25-1.2
			c55.3,0,61.7,24.9,61.7,43.6C1699.6,122.3,1677,140.3,1643.4,140.3z"/>
		<path class="st0" d="M1886.1,92.7c-52.9,0-106.4,40.6-106.4,118.2c0,66.5,43.5,114.9,103.4,114.9h0.4
			c53.3,0,107.3-40.6,107.3-118.2C1990.8,140,1947.8,92.7,1886.1,92.7z M1884,287.4c-35.6,0-62.6-33.4-62.6-77.7
			c0-39.1,19.9-78.5,64.3-78.5c46.5,0,63.4,46.2,63.4,77.3C1949.1,253.4,1921.3,287.4,1884,287.4z"/>
		<path class="st0" d="M2122.9,92.7c-52.9,0-106.4,40.6-106.4,118.2c0,66.5,43.5,114.9,103.5,114.9h0.4
			c53.3,0,107.3-40.6,107.3-118.2C2227.7,140,2184.6,92.7,2122.9,92.7z M2120.8,287.4c-35.7,0-62.5-33.4-62.5-77.7
			c0-39.1,19.9-78.5,64.3-78.5c46.5,0,63.4,46.2,63.4,77.3C2185.9,253.4,2158.1,287.4,2120.8,287.4z"/>
		<path class="st0" d="M2337,192.7l93-95.4h-54.6l-74.9,78.5c-0.5,0.5-1.1,1.1-1.6,1.7V0h-41.7v321.2h41.7v-90.8l9.1-9.7l78.1,100.5
			h51.9L2337,192.7z"/>
	</g>
</g>
</svg>
