<?xml version="1.0" encoding="utf-8"?>
<!-- Generator: Adobe Illustrator 21.1.0, SVG Export Plug-In . SVG Version: 6.00 Build 0)  -->
<svg version="1.1" id="圖層_1" xmlns="http://www.w3.org/2000/svg" xmlns:xlink="http://www.w3.org/1999/xlink" x="0px" y="0px"
	 viewBox="0 0 150 50" style="enable-background:new 0 0 150 50;" xml:space="preserve">
<style type="text/css">
	.st0{fill:#FFFFFF;}
</style>
<g>
	<g>
		<g>
			<path class="st0" d="M110.2,15.4v3.5c0.4-0.1,1-0.2,1.8-0.5c-0.2-0.6-0.3-0.9-0.9-1.8l0.2-0.1c0.6,0.5,0.9,0.8,1.3,1.3
				c0.5,0.6,0.7,0.9,0.7,1.3c0,0.6-0.4,1.3-0.7,1.3c-0.2,0-0.2-0.1-0.3-0.5c0-0.4-0.1-0.7-0.2-1.3c-2.1,1-2.8,1.2-4.4,1.8
				c0,0.5-0.1,0.7-0.3,0.7c-0.1,0-0.1-0.1-0.2-0.2c-0.1-0.2-0.1-0.2-0.5-1.6c0.5,0,0.5,0,2.5-0.4v-3.7h-1.1v1c0,0.2-0.2,0.2-0.7,0.2
				c-0.3,0-0.3,0-0.3-0.2c0-1.9,0.1-2.6,0.1-3.6c0-1.5,0-3.2-0.1-4c0.5,0.3,0.6,0.5,1,0.8h1.1v-2c0-1,0-1.1-0.1-1.7
				c0.3,0.1,0.6,0.1,0.8,0.1c0.8,0.1,1,0.2,1,0.3c0,0.2-0.2,0.3-0.8,0.4v2.8h1c0.3-0.3,0.4-0.3,0.7-0.6c0.3,0.3,0.5,0.3,0.8,0.6
				c0.1,0.1,0.2,0.2,0.2,0.3s-0.1,0.2-0.6,0.4v2.4c0,1.2,0,1.7,0.1,3.1c0,0.1-0.1,0.2-0.2,0.2s-0.5,0.1-0.6,0.1
				c-0.2,0-0.2-0.1-0.2-0.2l0,0v-0.5h-1.1V15.4z M109.2,9.9h-1.1v5h1.1V9.9z M111.4,9.9h-1.2v5h1.2V9.9z M118.4,10.3
				c0.5,1.1,0.8,1.5,1.3,2.2h1c0.4-0.5,0.5-0.6,0.9-1c0.6,0.5,0.8,0.6,1.3,1.1c0.1,0.1,0.1,0.1,0.1,0.2c0,0.1-0.1,0.1-0.2,0.1H120
				c0.8,0.9,1.6,1.4,3.3,2.1l-0.1,0.2c-0.6,0.2-0.7,0.3-0.9,1.1c-1.7-1.2-2.3-1.9-3.2-3.4H116c-0.3,0.6-0.5,0.8-0.8,1.2
				c0.4,0.3,0.5,0.4,1,0.9h2.8c0.3-0.3,0.5-0.5,0.7-0.8c0.3,0.3,0.4,0.4,0.7,0.7c0.1,0.1,0.2,0.2,0.2,0.2c0,0.1,0,0.1-0.4,0.5
				c-0.1,1.5-0.2,2.3-0.3,2.6c-0.2,0.5-0.6,0.7-1.5,0.9c-0.1-0.6-0.2-0.7-0.5-0.8c-0.1-0.1-0.2-0.1-1.1-0.3v-0.3
				c1.4,0.2,1.4,0.2,1.6,0.2c0.3,0,0.4-0.1,0.5-0.4c0.1-0.4,0.1-1,0.1-2.1h-3.1V20c0,0.4,0,0.4,0.2,0.4c0.1,0,1.9,0.1,2.6,0.1
				c1.4,0,1.9-0.1,2-0.3c0.1-0.2,0.4-1,0.9-2.8l0.2,0.1l-0.1,2.4c0,0.1,0,0.2,0,0.3c0,0.1,0.1,0.2,0.2,0.2c0.3,0.1,0.5,0.2,0.5,0.5
				s-0.3,0.5-1,0.6c-0.5,0.1-2.1,0.1-3.5,0.1c-1.2,0-2,0-2.4-0.1c-0.5-0.1-0.6-0.3-0.7-0.9c0-0.5,0-0.9,0-1.2c0-0.8,0-1.3,0-1.4
				v-3.6c-0.6,0.7-1.2,1.4-2.3,2.4l-0.2-0.2c1-1.1,2-2.4,2.6-3.6h-1.2c-0.4,0-0.7,0-1.2,0.1l-0.2-0.7c0.5,0.1,1,0.2,1.3,0.2h1.4
				c0.3-0.5,0.5-1.1,0.9-2.2h-0.5c-0.3,0-0.7,0-1.1,0.1l-0.1-0.6c0.5,0.1,0.8,0.1,1.2,0.1h0.6c0.5-1.5,0.7-3,0.7-4
				c1.9,0.2,2,0.3,2,0.5s-0.2,0.3-0.8,0.4c-0.2,1.4-0.4,2-0.9,3.2h1.7c0.4-0.5,0.5-0.6,0.9-1c0.6,0.5,0.8,0.6,1.3,1.1
				c0.1,0.1,0.1,0.2,0.1,0.2c0,0.1-0.1,0.1-0.2,0.1h-2.4V10.3z M112.6,11.5c0.7-1,1.1-1.9,1.5-3.2c0.2-0.6,0.4-1.1,0.5-1.9
				c1.8,0.6,1.8,0.6,1.8,0.7c0,0.2-0.2,0.2-0.8,0.3c-0.7,1.8-1.5,2.9-2.8,4.2L112.6,11.5z M117.2,10.3c-0.3,0.9-0.6,1.4-1,2.2h2.8
				c-0.4-0.8-0.6-1.2-0.9-2.2H117.2z M119.5,6.7c1.4,0.8,2.2,1.4,2.6,1.7c0.3,0.3,0.5,0.6,0.5,1.2c0,0.6-0.2,1-0.4,1
				c-0.2,0-0.3-0.1-0.4-0.4c-0.5-1-1.1-1.9-2.4-3.3L119.5,6.7z"/>
			<path class="st0" d="M125.6,21.1c1-1.4,1.5-2.5,1.8-4.1c0.2-1.2,0.3-2.7,0.3-6.6c0-2.5,0-3.1-0.1-3.8c2,0.2,2.1,0.3,2.1,0.5
				s-0.2,0.2-0.7,0.5c0,0.5,0,0.5-0.1,5.8c0,2.4-0.3,3.8-1.2,5.3c-0.5,1-1,1.7-2,2.6L125.6,21.1z M134.7,7.3c0.1,0,0.2,0.1,0.2,0.2
				c0,0.2-0.1,0.2-0.7,0.4c0,3.9,0.1,9.6,0.1,11.6c0,0,0,0,0,0.1c0,0.2-0.2,0.3-0.6,0.3c-0.1,0-0.2,0-0.4,0h-0.1
				c-0.2,0-0.2-0.1-0.2-0.2c0-1.2,0.1-2.5,0.1-4.3c0-1.6,0-1.6-0.1-6.8c0-0.7,0-0.9-0.1-1.5C133.7,7.1,134.4,7.2,134.7,7.3z
				 M140.3,7c0,0.1-0.1,0.2-0.7,0.5c0,1,0,1.4,0,2.2c0,2.2,0,5.9,0.1,11.3c0,0.1-0.1,0.2-0.2,0.2c-0.1,0-0.6,0.1-0.9,0.1
				c-0.2,0-0.3-0.1-0.3-0.2c0-1.3,0.1-5.2,0.1-8.4c0-2.2-0.1-4.6-0.1-6C140,6.7,140.3,6.7,140.3,7z"/>
			<path class="st0" d="M114.2,28.4v-0.7c0-0.4,0-0.6-0.1-1.1c1.6,0.1,1.6,0.2,1.8,0.2c0.1,0,0.1,0.1,0.1,0.1c0,0.2-0.2,0.2-0.7,0.4
				v1h4.9c0.4-0.4,0.5-0.5,0.8-0.9c0.6,0.5,0.8,0.6,1.4,1.1c0.1,0.1,0.2,0.1,0.2,0.2c0,0.2-0.2,0.3-1.1,0.3c-0.7,0.7-0.8,0.7-1.1,1
				h-0.1c0.2-1,0.2-1,0.2-1.4h-11.1c-0.1,0.6-0.3,1.2-0.6,1.6c-0.3,0.5-0.7,0.7-0.9,0.7c-0.3,0-0.5-0.4-0.5-0.9
				c0-0.3,0.1-0.4,0.4-0.6c0.7-0.3,1-0.9,1.4-2.2h0.3c0,0.3,0,0.5,0,0.6s0,0.2,0,0.4h4.7V28.4z M107.5,42.4c2.3-0.8,3.7-1.4,4.8-2.2
				c1.5,0.8,1.5,0.8,1.5,0.9c0,0.1-0.2,0.2-0.4,0.2c-0.1,0-0.3,0-0.6,0c-1.6,0.8-2.6,1-5.3,1.4V42.4z M120.4,31.5
				c0.4-0.4,0.5-0.5,0.9-0.9c0.6,0.5,0.8,0.6,1.4,1.1c0.1,0.1,0.1,0.1,0.1,0.1c0,0.1-0.1,0.1-0.1,0.1h-3.3c-0.1,0.9-0.2,1.5-0.3,1.8
				c0,0.2-0.2,0.3-0.9,0.3c-0.2,0-0.3,0-0.3-0.1s0-0.1,0-0.1v-0.2h-7.2l-0.1,0.2c-0.1,0.2-0.1,0.2-0.9,0.2c-0.2,0-0.2,0-0.2-0.1
				v-0.1c0.3-1,0.4-1.4,0.5-1.8h-1c-0.6,0-0.9,0-1.3,0.1l-0.2-0.6c0.5,0.1,0.8,0.1,1.5,0.1h1.2c0.2-0.8,0.2-1.3,0.3-2.2
				c0.6,0.2,0.7,0.3,1.3,0.6h6.5c0.3-0.3,0.4-0.4,0.7-0.6c0.4,0.3,0.5,0.3,0.8,0.6c0.1,0.1,0.2,0.2,0.2,0.2c0,0.1,0,0.1-0.5,0.4
				l-0.1,0.9C119.4,31.5,120.4,31.5,120.4,31.5z M119.8,38.4c0,0.4,0,0.8,0,1.5V40c0,0.1,0,0.1-0.1,0.2c-0.2,0.1-0.5,0.1-0.7,0.1
				s-0.3,0-0.3-0.1l0,0V40h-7.8v0.4c0,0.1,0,0.1-0.2,0.2c-0.1,0-0.5,0-0.7,0s-0.3,0-0.3-0.2c0.1-1,0.1-1,0.1-2.4c0-0.8,0-0.8,0-1.6
				v-1.1c0-0.4,0-0.6,0-1.1c0.6,0.2,0.7,0.3,1.3,0.6h7.4c0.3-0.3,0.4-0.3,0.7-0.6c0.4,0.2,0.5,0.3,0.9,0.6c0.1,0.1,0.2,0.2,0.2,0.2
				c0,0.1-0.1,0.2-0.5,0.5V38.4z M113.9,33.1c0.1-0.7,0.1-0.7,0.2-1.2h-2.9c-0.1,0.5-0.2,0.9-0.3,1.2H113.9z M118.7,35.1h-7.8v1.2
				h7.8V35.1z M110.9,36.6v1.1h7.8v-1.1H110.9z M110.9,38.2v1.4h7.8v-1.4H110.9z M114.1,31.5c0.1-0.4,0.1-0.5,0.1-1.1h-2.8
				c-0.1,0.4-0.1,0.4-0.2,1.1H114.1z M118.1,33.1c0.1-0.5,0.1-0.7,0.2-1.2h-3.2c-0.1,0.7-0.1,0.7-0.2,1.2H118.1z M118.3,31.5
				c0.1-0.3,0.1-0.3,0.2-1.1h-3.2c-0.1,0.6-0.1,1-0.2,1.1H118.3z M116.2,40.4c2.4,0.2,3.7,0.5,4.6,0.9c0.4,0.2,0.6,0.6,0.6,1.1
				c0,0.3-0.1,0.5-0.2,0.5s-0.3-0.1-0.7-0.3c-1.3-0.8-2.5-1.3-4.4-1.9L116.2,40.4z"/>
			<path class="st0" d="M126,37.8c1.3-1.4,2.1-2.4,2.8-3.6c0.7-1.1,1.2-2.2,1.4-3c0.6,0.2,1.5,0.5,1.7,0.6c0.1,0,0.1,0.1,0.1,0.2
				s-0.2,0.2-0.7,0.2h-0.1c-0.6,1-0.9,1.4-1.5,2.2c1.1,0.2,1.3,0.3,1.3,0.4c0,0.2-0.1,0.2-0.7,0.4V38c0,1.3,0,1.3,0,4.1
				c-0.1,0.2-0.2,0.2-0.6,0.3c-0.1,0-0.2,0-0.3,0h-0.1c-0.2,0-0.3-0.1-0.3-0.2c0.1-3.6,0.1-3.6,0.1-4.2v-3c-1.2,1.4-1.9,2.1-3.1,3
				L126,37.8z M135.4,28.9v-1.1c0-0.5,0-0.6,0-1c1.9,0.3,1.9,0.3,1.9,0.4c0,0.2-0.2,0.3-0.7,0.4c0,0.5,0,1,0,1.3h2.3
				c0.5-0.5,0.7-0.7,1.1-1.2c0.7,0.6,1,0.8,1.7,1.4l0.1,0.1c0,0.1-0.1,0.1-0.2,0.1h-5c0,0.9,0,0.9,0,1.6c0,0.1-0.1,0.2-0.1,0.2
				c-0.1,0.1-0.5,0.1-0.7,0.1s-0.3-0.1-0.3-0.2c0-0.7,0-0.7,0-1.7H132c0,1,0,1,0,1.6c0,0.2-0.1,0.2-0.6,0.2c-0.1,0-0.2,0-0.2,0l0,0
				c-0.2,0-0.3-0.1-0.3-0.2c0-0.6,0-0.6,0-1.6h-3.1c-0.6,0-1,0.1-1.5,0.1l-0.1-0.7c0.7,0.1,1,0.2,1.6,0.2h3.1c0-0.1,0-0.2,0-0.3
				c0-0.8,0-1.5-0.1-1.9c1.9,0.2,1.9,0.2,1.9,0.4c0,0.2-0.1,0.2-0.7,0.4v1.3h3.4V28.9z M135.3,36.6c0.7-0.5,1.1-0.9,1.9-1.7
				c1.1-1.2,1.7-2,2.1-2.7c1.6,0.9,1.7,1,1.7,1.1s-0.1,0.2-0.3,0.2s-0.3,0-0.5,0c-1.7,1.6-3.2,2.7-4.9,3.6v3.7
				c0,0.1,0.1,0.1,0.3,0.2c0.2,0,2,0.1,2.4,0.1c0.6,0,1.5-0.1,1.7-0.1c0.2-0.1,0.2-0.1,0.4-0.6c0.3-0.7,0.5-1.5,0.9-2.9h0.2
				l-0.2,2.8c0,0.3,0,0.4,0,0.4c0,0.1,0,0.2,0.3,0.2c0.3,0.1,0.4,0.2,0.4,0.4c0,0.3-0.2,0.5-0.7,0.6c-0.4,0.1-1.8,0.1-3.1,0.1
				c-2.1,0-2.8-0.1-3.2-0.3c-0.3-0.2-0.5-0.4-0.5-1c0-2.8,0-2.8,0-3.2v-4.4c0-0.5,0-1.3-0.1-1.8c1.8,0.3,1.9,0.3,1.9,0.4
				c0,0.2-0.2,0.3-0.7,0.4L135.3,36.6L135.3,36.6z"/>
		</g>
		<path class="st0" d="M124.4,50c-13.8,0-25-11.2-25-25s11.2-25,25-25s25,11.2,25,25S138.2,50,124.4,50z M124.4,0.9
			c-13.3,0-24.1,10.8-24.1,24.1s10.8,24.1,24.1,24.1s24.1-10.8,24.1-24.1S137.6,0.9,124.4,0.9z"/>
	</g>
	<g>
		<path class="st0" d="M93.1,16.1l-0.9-0.2l-7.3,18.9l0.9,0.2L93.1,16.1z"/>
	</g>
	<g>
		<g>
			<g>
				<g>
					<path class="st0" d="M8.1,21.2L0.6,32.7h5.1l7.2-11L8.1,21.2z M38.7,20.9v-4.3H24.2c-2,0.1-2.8,1.1-3.5,1.7
						c-0.7,0.7-1.1,2.2-1.1,2.2v-3.9c0,0-7.1,0-7.7,0c-0.6,0-1.1,0.2-1.5,0.8C10,18,8.2,20.8,8.2,20.8h30.5V20.9z M78.1,20.9v-4.3
						H62.6c-2,0.1-2.8,1.1-3.5,1.7C58.4,19,58,20.5,58,20.5v0.3L78.1,20.9z M43.8,16.7h-4.3V21h4.3V16.7z M58,16.7h-4.3V21H58V16.7z
						 M58,22.5l-4.3-0.3v4.9c0,0,0,1.4-1.4,1.4s-7.3,0-7.3,0s-1.2-0.1-1.2-1.4s0-5.6,0-5.6l-4.3-0.3v7.6c0.7,3.6,4,3.9,4,3.9
						s0.3,0,0.4,0h9.9c0,0,4.2-0.3,4.2-4.4C58,24.4,58,22.5,58,22.5z M15.3,32.7h20.3c3.5-0.7,3.9-3.9,3.9-3.9
						c0.2-0.9,0.1-1.7,0.1-1.7c-0.1-0.6-1.3-3.4-4-3.7C34,23.3,20,22.2,20,22.2c0.3,1.4,0.9,2.1,1.3,2.5c1,0.9,2.5,1.2,2.5,1.2
						c0.4,0,10.8,0.9,10.8,0.9c0.3,0,1,0.1,1,0.9c0,0.1-0.1,0.8-0.9,0.8c-1,0-15.1,0-15.1,0v-6.4l-4.2-0.3L15.3,32.7L15.3,32.7z
						 M58.1,32.8h15.5c3.9-0.2,4.4-3.9,4.4-3.9c0.1-1,0-1.7,0-1.7c-0.1-0.9-1.4-3.5-4-3.7c-1.6-0.1-15.7-1-15.7-1
						c0.4,1.4,1,1.9,1.4,2.3c1,0.9,2.4,1.2,2.4,1.2c0.4,0,10.9,0.9,10.9,0.9c0.3,0,1,0.1,1,0.9c0,0.2-0.1,0.5-0.3,0.6
						c0,0-0.4,0.2-0.7,0.2c-1,0-15,0-15,0L58.1,32.8z"/>
				</g>
			</g>
		</g>
	</g>
</g>
</svg>
