<?xml version="1.0" encoding="utf-8"?>
<!-- Generator: Adobe Illustrator 21.1.0, SVG Export Plug-In . SVG Version: 6.00 Build 0)  -->
<svg version="1.1" id="圖層_1" xmlns="http://www.w3.org/2000/svg" xmlns:xlink="http://www.w3.org/1999/xlink" x="0px" y="0px"
	 viewBox="0 0 331.6 41.6" style="enable-background:new 0 0 331.6 41.6;" xml:space="preserve">
<style type="text/css">
	.st0{fill:#FFFFFF;}
</style>
<g>
	<g>
		<path class="st0" d="M233.8,8.1v16.1c0,6.8,3.2,9.4,7.1,9.4c4.4,0,7.5-2.8,7.5-9.4V8.1h1.9v16c0,8.2-4.4,11.2-9.5,11.2
			c-4.7,0-8.9-2.7-8.9-10.9V8.1H233.8z"/>
		<path class="st0" d="M271.7,34.8l-4-6.6c-1.7-2.5-2.6-4-3.5-5.5h-0.1c-0.9,1.5-1.7,3-3.4,5.6l-3.8,6.5h-2.2l8.5-13.5L255,8.1h2.1
			l4.3,7.1c1.1,1.8,1.9,3.2,2.7,4.6h0.1c0.8-1.5,1.7-2.8,2.8-4.6l4.5-7.1h2.2l-8.5,13l8.6,13.7H271.7L271.7,34.8z"/>
		<path class="st0" d="M287.8,34.8v-7.6h-12.3V26L288,9.1h1.5v16.6h3.9v1.6h-3.9v7.6L287.8,34.8L287.8,34.8z M287.8,25.7V15.2
			c0-1.2,0-2.4,0.1-3.6h-0.1c-0.8,1.5-1.4,2.3-2,3.2l-8,10.7v0.1L287.8,25.7L287.8,25.7z"/>
		<path class="st0" d="M297,32c0.9,0.7,3.1,1.6,5.5,1.6c5.3,0,6.5-3.6,6.5-5.9c0-4.3-3.8-6.1-7.6-6.1h-1.6V20h1.7
			c2.8,0,6.5-1.6,6.5-5.2c0-2.4-1.3-4.6-5-4.6c-2,0-3.8,0.9-5,1.8l-0.7-1.4c1.2-1,3.6-2,6-2c4.9,0,6.7,3,6.7,6
			c0,2.6-1.7,4.9-4.8,6.1v0.1c3.2,0.6,5.8,3.1,5.8,6.8c0,3.8-2.8,7.6-8.7,7.6c-2.6,0-4.9-0.9-6.1-1.7L297,32z"/>
		<path class="st0" d="M323.1,35.2c-4,0-7.8-4-7.9-13.2c0-9.3,4.1-13.4,8.4-13.4c4.5,0,7.9,4.1,7.9,12.9
			C331.6,30.8,328.2,35.2,323.1,35.2L323.1,35.2z M323.4,33.7c4.3,0,6.2-4.9,6.2-11.9c0-6.7-1.8-11.6-6.2-11.6
			c-3.7,0-6.2,4.7-6.2,11.6C317.1,28.9,319.6,33.7,323.4,33.7L323.4,33.7z"/>
	</g>
	<g>
		<path class="st0" d="M9.4,7.5L0,33.4h1.9l3.2-9.1h10.3l3.3,9.1h1.9L11.1,7.5H9.4L9.4,7.5z M14.8,22.8H5.7l3.2-8.7
			c0.5-1.7,1-3,1.3-4.5h0.1c0.4,1.5,0.7,2.8,1.4,4.6L14.8,22.8z"/>
		<path class="st0" d="M30.1,19.1c-3.7-1.5-5.4-2.9-5.4-5.8c0-2,1.4-4.7,5.6-4.7c2.2,0,3.9,0.7,4.6,1.2l0.7-1.6
			C34.7,7.6,32.9,7,30.4,7c-4.4,0-7.5,2.8-7.5,6.6c0,3.5,2.5,5.7,6.7,7.2c3.8,1.4,5.3,3.2,5.3,6c0,3.2-2.4,5.4-6.3,5.4
			c-2.2,0-4.2-0.7-5.7-1.7L22.2,32c1.4,1,4,1.7,6.2,1.7c5.5,0,8.2-3.4,8.2-7.1C36.6,22.8,34.4,20.9,30.1,19.1z"/>
		<path class="st0" d="M56,23.1c0,6.4-3,9.1-7.3,9.1c-3.8,0-6.9-2.5-6.9-9.1V7.5H40v15.8c0,8,4.1,10.6,8.7,10.6
			c4.9,0,9.2-2.9,9.2-10.8V7.5H56V23.1z"/>
		<path class="st0" d="M68.9,19.1c-3.7-1.5-5.4-2.9-5.4-5.8c0-2,1.4-4.7,5.6-4.7c2.2,0,3.9,0.7,4.6,1.2l0.7-1.6
			C73.5,7.6,71.7,7,69.2,7c-4.4,0-7.5,2.8-7.5,6.6c0,3.5,2.5,5.7,6.7,7.2c3.8,1.4,5.3,3.2,5.3,6c0,3.2-2.4,5.4-6.3,5.4
			c-2.2,0-4.2-0.7-5.7-1.7L61,32.1c1.3,1,4,1.7,6.2,1.7c5.5,0,8.2-3.4,8.2-7.1C75.5,22.8,73.2,20.9,68.9,19.1z"/>
		<polygon class="st0" points="102.8,8.8 102.8,6.9 86.9,6.9 86.9,9.5 99.1,9.5 85.8,32.1 85.8,34 102.9,34 102.9,31.3 89.4,31.3 		
			"/>
		<path class="st0" d="M112.7,13.9c-5.2,0-8.9,4.3-8.9,10.6c0,5.9,3.7,9.8,9.2,9.8c3.4,0,5.4-0.9,6.1-1.3l0.4-0.2l-0.8-2.5l-0.6,0.3
			c-1.1,0.5-2.4,1-4.9,1c-4,0-6.3-2.6-6.5-7.1h13.5l0.1-0.4c0.1-0.4,0.1-0.7,0.1-1.2C120.4,19.5,118.8,13.9,112.7,13.9z M112.4,16.6
			c1.4,0,2.5,0.4,3.4,1.3c1.2,1.2,1.5,3,1.5,4.1H107C107.3,20.3,108.5,16.6,112.4,16.6z"/>
		<path class="st0" d="M131.9,13.9c-2.3,0-4.5,1-5.9,2.6l-0.1-2.2H123v0.6c0.1,1.4,0.1,2.6,0.1,4.4V34h3V22c0-0.4,0.1-1,0.2-1.5
			c0.7-2.3,2.7-3.9,5-3.9c4,0,4.5,3.7,4.5,5.9V34h3V22.3C138.9,16.1,135.1,13.9,131.9,13.9z"/>
		<path class="st0" d="M155.9,19.4c1.9-1.3,3.1-3.4,3.1-5.7c0-2-0.6-3.7-1.9-4.9c-1.6-1.7-4-2.5-7.5-2.5c-1.9,0-3.8,0.2-5.5,0.6
			l-0.8,0.2v27.3h0.9c0.3,0,0.7,0,1.1,0.1c0.9,0.1,2.1,0.1,3.4,0.1c4.2,0,7.1-0.9,8.9-2.8c1.5-1.6,2.2-3.4,2.2-5.6
			C160.1,22.7,158.1,20.5,155.9,19.4z M149.5,31.1c-0.8,0-1.6,0-2.2-0.1v-9.7h2.3c1.6,0,6.6,0.4,6.6,4.9
			C156.2,30.2,152.5,31.1,149.5,31.1z M150,17.9h-2.8v-8c0.5-0.1,1.2-0.1,2.3-0.1c5,0,5.6,2.3,5.6,4C155.2,16.2,153.1,17.9,150,17.9
			z"/>
		<path class="st0" d="M172.2,13.5c-4.8,0-9.7,3.7-9.7,10.8c0,6.1,4,10.5,9.4,10.5l0,0c4.9,0,9.8-3.7,9.8-10.8
			C181.7,17.8,177.8,13.5,172.2,13.5z M172,31.3c-3.2,0-5.7-3-5.7-7.1c0-3.6,1.8-7.2,5.9-7.2c4.2,0,5.8,4.2,5.8,7.1
			C177.9,28.2,175.4,31.3,172,31.3z"/>
		<path class="st0" d="M193.8,13.5c-4.8,0-9.7,3.7-9.7,10.8c0,6.1,4,10.5,9.4,10.5l0,0c4.9,0,9.8-3.7,9.8-10.8
			C203.4,17.8,199.4,13.5,193.8,13.5z M193.6,31.3c-3.3,0-5.7-3-5.7-7.1c0-3.6,1.8-7.2,5.9-7.2c4.2,0,5.8,4.2,5.8,7.1
			C199.6,28.2,197,31.3,193.6,31.3z"/>
		<path class="st0" d="M213.3,22.7l8.5-8.7h-5l-6.8,7.2c0,0-0.1,0.1-0.1,0.2V5.1h-3.8v29.3h3.8v-8.3l0.8-0.9l7.1,9.2h4.7L213.3,22.7
			z"/>
	</g>
</g>
</svg>
