<?xml version="1.0" encoding="utf-8"?>
<!-- Generator: Adobe Illustrator 21.1.0, SVG Export Plug-In . SVG Version: 6.00 Build 0)  -->
<svg version="1.1" id="圖層_1" xmlns="http://www.w3.org/2000/svg" xmlns:xlink="http://www.w3.org/1999/xlink" x="0px" y="0px"
	 viewBox="0 0 240.1 41.6" style="enable-background:new 0 0 240.1 41.6;" xml:space="preserve">
<g>
	<g>
		<path d="M144.6,8.3V24c0,6.7,3.1,9.2,6.9,9.2c4.3,0,7.3-2.8,7.3-9.2V8.3h1.9v15.6c0,8-4.3,10.9-9.2,10.9c-4.6,0-8.7-2.6-8.7-10.6
			V8.3H144.6z"/>
		<path d="M181.6,34.4l-3.9-6.4c-1.6-2.4-2.6-3.9-3.4-5.4h-0.1c-0.9,1.5-1.7,2.9-3.3,5.5l-3.8,6.4H165l8.3-13.2l-7.9-12.9h2.1l4.2,7
			c1.1,1.7,1.9,3.1,2.7,4.5h0.1c0.8-1.5,1.6-2.7,2.7-4.5l4.4-7h2.2L175.4,21l8.4,13.4H181.6z"/>
		<path d="M197.3,34.4V27h-12v-1.2l12.3-16.5h1.5v16.2h3.8V27h-3.8v7.4H197.3z M197.3,25.5V15.3c0-1.2,0-2.4,0.1-3.5h-0.1
			c-0.8,1.4-1.4,2.3-2,3.2l-7.8,10.4v0.1H197.3z"/>
		<path d="M206.3,31.7c0.9,0.7,3,1.6,5.4,1.6c5.1,0,6.4-3.6,6.3-5.8c0-4.2-3.7-5.9-7.4-5.9H209V20h1.7c2.8,0,6.3-1.6,6.3-5.1
			c0-2.3-1.3-4.5-4.9-4.5c-1.9,0-3.8,0.9-4.9,1.7l-0.7-1.4c1.2-1,3.5-2,5.8-2c4.8,0,6.6,3,6.6,5.8c0,2.6-1.7,4.8-4.7,6v0.1
			c3.1,0.6,5.7,3,5.7,6.7c0,3.8-2.7,7.5-8.5,7.5c-2.6,0-4.8-0.9-5.9-1.7L206.3,31.7z"/>
		<path d="M231.9,34.8c-3.9,0-7.6-3.9-7.7-12.9c0-9.1,4-13.1,8.2-13.1c4.4,0,7.7,4,7.7,12.6C240.1,30.5,236.9,34.8,231.9,34.8
			L231.9,34.8z M232.1,33.3c4.2,0,6.1-4.8,6.1-11.6c0-6.6-1.8-11.3-6-11.3c-3.6,0-6,4.6-6,11.3C226,28.7,228.4,33.3,232.1,33.3
			L232.1,33.3z"/>
	</g>
	<g>
		<polygon points="16.7,9 16.7,7.1 1.1,7.1 1.1,9.7 13,9.7 0,31.7 0,33.6 16.8,33.6 16.8,31 3.6,31 		"/>
		<path d="M26.3,14c-5.1,0-8.7,4.2-8.7,10.3c0,5.7,3.6,9.6,9,9.6c3.4,0,5.3-0.9,5.9-1.2l0.4-0.2l-0.8-2.4l-0.6,0.3
			c-1,0.5-2.3,1-4.8,1c-3.9,0-6.1-2.5-6.3-6.9h13.2l0.1-0.4c0.1-0.4,0.1-0.7,0.1-1.2C33.9,19.5,32.3,14,26.3,14z M26.1,16.6
			c1.4,0,2.5,0.4,3.3,1.2c1.2,1.2,1.5,2.9,1.5,4H20.7C21,20.2,22.2,16.6,26.1,16.6z"/>
		<path d="M45.1,14c-2.3,0-4.4,1-5.8,2.6l-0.1-2.1h-2.8v0.6c0.1,1.4,0.1,2.6,0.1,4.3v14.3h2.9V21.8c0-0.4,0.1-1,0.2-1.4
			c0.7-2.2,2.7-3.8,4.9-3.8c3.9,0,4.4,3.6,4.4,5.7v11.2h2.9V22.2C51.9,16.2,48.2,14,45.1,14z"/>
		<path d="M68.5,19.3c1.9-1.3,3.1-3.4,3.1-5.6c0-2-0.6-3.6-1.9-4.8c-1.6-1.6-3.9-2.4-7.3-2.4c-1.8,0-3.7,0.2-5.3,0.6l-0.7,0.2V34
			h0.9c0.3,0,0.7,0,1.1,0.1c0.9,0.1,2,0.1,3.3,0.1c4.1,0,6.9-0.9,8.7-2.7c1.4-1.5,2.1-3.4,2.1-5.5C72.6,22.6,70.7,20.4,68.5,19.3z
			 M62.2,30.8c-0.8,0-1.5,0-2.2-0.1v-9.4h2.2c1.5,0,6.5,0.3,6.5,4.8C68.8,29.9,65.2,30.8,62.2,30.8z M62.8,17.9h-2.7v-7.8
			c0.5-0.1,1.2-0.1,2.2-0.1c4.9,0,5.5,2.2,5.5,3.9C67.8,16.3,65.8,17.9,62.8,17.9z"/>
		<path d="M84.4,13.6c-4.7,0-9.5,3.6-9.5,10.5c0,5.9,3.9,10.2,9.2,10.2l0,0c4.8,0,9.6-3.6,9.6-10.5C93.8,17.8,89.9,13.6,84.4,13.6z
			 M84.2,31c-3.2,0-5.6-3-5.6-6.9c0-3.5,1.8-7,5.7-7c4.1,0,5.6,4.1,5.6,6.9C90,27.9,87.6,31,84.2,31z"/>
		<path d="M105.5,13.6c-4.7,0-9.5,3.6-9.5,10.5c0,5.9,3.9,10.2,9.2,10.2l0,0c4.8,0,9.6-3.6,9.6-10.5C114.9,17.8,111,13.6,105.5,13.6
			z M105.4,31c-3.2,0-5.6-3-5.6-6.9c0-3.5,1.8-7,5.7-7c4.1,0,5.7,4.1,5.7,6.9C111.2,27.9,108.7,31,105.4,31z"/>
		<path d="M124.6,22.5l8.3-8.5H128l-6.7,7l-0.1,0.1V5.4h-3.7V34h3.7v-8.1L122,25l7,9h4.6L124.6,22.5z"/>
	</g>
</g>
</svg>
