<?xml version="1.0" encoding="utf-8"?>
<!-- Generator: Adobe Illustrator 21.1.0, SVG Export Plug-In . SVG Version: 6.00 Build 0)  -->
<svg version="1.1" id="圖層_1" xmlns="http://www.w3.org/2000/svg" xmlns:xlink="http://www.w3.org/1999/xlink" x="0px" y="0px"
	 viewBox="0 0 223.8 41.6" style="enable-background:new 0 0 223.8 41.6;" xml:space="preserve">
<style type="text/css">
	.st0{fill:#6D6D6D;}
</style>
<g>
	<g>
		<g>
			<g>
				<g>
					<polygon class="st0" points="145.5,34.2 148.5,34.2 148.5,21.7 158.6,21.7 158.6,19 148.5,19 148.5,9.8 159.5,9.8 159.5,7.2 
						145.5,7.2 					"/>
					<rect x="163.3" y="7.3" class="st0" width="3" height="26.9"/>
					<path class="st0" d="M172.9,7.7c-1.1,0-2.1,1-2.1,2.2c0,1.2,0.9,2.1,2,2.1h0c1.2,0,2.1-0.9,2.1-2.1
						C175,8.7,174.1,7.7,172.9,7.7z"/>
					<rect x="171.4" y="14.6" class="st0" width="3" height="19.6"/>
					<path class="st0" d="M188.7,14.2c-2.7,0-4.9,1-6.4,2.8l-0.1-2.4h-2.9l0,0.6c0.1,1.6,0.2,3.4,0.2,5.8v20.8h3v-9.6
						c1.4,1.5,3.4,2.4,5.8,2.4c4.5,0,9-3.3,9-10.5C197.1,18.3,193.7,14.2,188.7,14.2z M188.2,16.9c4.1,0,5.9,3.8,5.9,7.3
						c0,4.8-2.3,7.8-6.1,7.8c-2.6,0-4.8-1.7-5.5-4.3c-0.1-0.4-0.1-0.8-0.1-1.3v-3.6c0-0.4,0.1-0.8,0.2-1.3l0-0.2
						C183.4,18.7,185.7,16.9,188.2,16.9z"/>
				</g>
			</g>
			<g>
				<g>
					<g>
						<path class="st0" d="M68.8,19.5c1.9-1.3,3.1-3.4,3.1-5.6c0-2-0.6-3.6-1.9-4.8c-1.6-1.6-3.9-2.4-7.3-2.4
							c-1.8,0-3.7,0.2-5.3,0.6l-0.7,0.2v26.6l0.9,0c0.3,0,0.7,0,1.1,0.1c0.9,0.1,2,0.1,3.3,0.1c4.1,0,6.9-0.9,8.7-2.7
							c1.4-1.5,2.1-3.4,2.1-5.5C72.9,22.8,70.9,20.6,68.8,19.5z M62.5,31c-0.8,0-1.5,0-2.2-0.1v-9.4h2.2c1.5,0,6.5,0.3,6.5,4.8
							C69.1,30.1,65.5,31,62.5,31z M63.1,18.1h-2.7v-7.8c0.5-0.1,1.2-0.1,2.2-0.1c4.9,0,5.5,2.2,5.5,3.9
							C68.1,16.5,66.1,18.1,63.1,18.1z"/>
						<path class="st0" d="M84.7,13.8c-4.7,0-9.5,3.6-9.5,10.5c0,5.9,3.9,10.2,9.2,10.2h0c4.8,0,9.6-3.6,9.6-10.5
							C94.1,18,90.2,13.8,84.7,13.8z M84.5,31.2c-3.2,0-5.6-3-5.6-6.9c0-3.5,1.8-7,5.7-7c4.1,0,5.7,4.1,5.7,6.9
							C90.3,28.2,87.9,31.2,84.5,31.2z"/>
						<path class="st0" d="M105.8,13.8c-4.7,0-9.5,3.6-9.5,10.5c0,5.9,3.9,10.2,9.2,10.2h0c4.8,0,9.6-3.6,9.6-10.5
							C115.2,18,111.3,13.8,105.8,13.8z M105.7,31.2c-3.2,0-5.6-3-5.6-6.9c0-3.5,1.8-7,5.7-7c4.2,0,5.7,4.1,5.7,6.9
							C111.5,28.2,109,31.2,105.7,31.2z"/>
						<path class="st0" d="M124.9,22.8l8.3-8.5h-4.9l-6.7,7c0,0-0.1,0.1-0.1,0.2V7.1h-3.7v27.1h3.7v-8.1l0.8-0.9l7,9h4.6L124.9,22.8
							z"/>
					</g>
				</g>
				<g>
					<path class="st0" d="M25.4,14.1c-5.3,0-9,4.3-9,10.4c0,6,3.6,9.7,9.4,9.7c3,0,5-0.6,6.3-1.1l-0.5-2c-1.2,0.5-2.8,0.9-5.3,0.9
						c-4.4,0-7-2.7-7.1-7.2l0-0.3h13.9c0-0.3,0.1-0.8,0.1-1.4C33.3,18.9,31.2,14.1,25.4,14.1z M30.4,22.2l0,0.3H19.2l0-0.3
						c0.3-3,2.3-6.1,5.8-6.1c1.5,0,2.7,0.5,3.6,1.4C30.3,19.1,30.4,21.5,30.4,22.2z"/>
					<polygon class="st0" points="1.1,9.6 13,9.6 0,32.4 0,34.2 16.1,34.2 16.1,31.7 3.4,31.7 16.3,9 16.3,7.2 1.1,7.2 					"/>
					<path class="st0" d="M45.2,14.5c-0.5,0-1,0.1-1.5,0.1l0,0c0,0-3.4,0.3-5.1,3.6h0c-0.1,0.2-0.2,0.4-0.3,0.6l0-0.6h0l-0.2-3.3
						h-2.6c0.1,1.4,0.1,3,0.1,5.1v14.1h3V22.5c0-0.7,0.1-1.3,0.3-1.8c0.6-1.9,2.4-3.9,5.1-3.9c3.1,0,4.9,2.2,4.9,6.1v11.1h3V22.6
						C51.9,14.9,46.4,14.5,45.2,14.5z"/>
				</g>
			</g>
		</g>
	</g>
	<path class="st0" d="M215.4,18.9c-4-1.5-5.5-2.9-5.5-5.5c0-1.6,1.2-4.4,5.6-4.4c2.3,0,4,0.7,4.6,1.2l0.4,0.3l1.1-2.4L221.4,8
		c-1-0.6-3-1.3-5.7-1.3c-4.9,0-8.5,3-8.5,7.1c0,3.5,2.3,5.9,7.4,7.7c3.8,1.4,5.3,3,5.3,5.7c0,3.1-2.5,5-6.3,5
		c-2.1,0-4.2-0.6-5.8-1.6l-0.4-0.3l-1.1,2.3l0.3,0.2c1.5,1.1,4.4,1.8,6.8,1.8c6.3,0,9.2-3.8,9.2-7.6
		C222.7,22.6,219.8,20.6,215.4,18.9z"/>
</g>
</svg>
