<?xml version="1.0" encoding="utf-8"?>
<!-- Generator: Adobe Illustrator 21.1.0, SVG Export Plug-In . SVG Version: 6.00 Build 0)  -->
<svg version="1.1" id="圖層_1" xmlns="http://www.w3.org/2000/svg" xmlns:xlink="http://www.w3.org/1999/xlink" x="0px" y="0px"
	 viewBox="0 0 282 41.6" style="enable-background:new 0 0 282 41.6;" xml:space="preserve">
<style type="text/css">
	.st0{fill:#FFFFFF;}
</style>
<g>
	<g>
		<g>
			<path class="st0" d="M159.8,19.1c2.1-1.4,3.4-3.5,3.4-5.9c0-3.1-2-6.8-7.6-6.8c-2.6,0-5.1,1.1-6.5,2.2l-0.6,0.5l1.6,3l0.9-0.6
				c0.5-0.4,2.2-1.6,4.4-1.6c3.5,0,4,2.3,4,3.6c0,3.1-3.3,4.2-5.4,4.2h-2.6V21h2.5c3.1,0,6.5,1.3,6.5,5.1c0,0.6-0.1,2.2-1.3,3.5
				c-0.9,1-2.4,1.4-4.2,1.4c-2.2,0-4.1-0.8-4.9-1.4l-0.9-0.6l-1.6,3.1l0.6,0.5c1.3,0.9,3.8,1.9,6.5,1.9c6.5,0,9.5-4.4,9.5-8.4
				C164.2,23,162.5,20.4,159.8,19.1z"/>
			<path class="st0" d="M165.5,0H146c-3.4,0-6.1,2.7-6.1,6.1v29.3c0,3.4,2.7,6.1,6.1,6.1h19.5c3.4,0,6.1-2.7,6.1-6.1V6.1
				C171.6,2.7,168.8,0,165.5,0z M171,35.5c0,3.1-2.5,5.5-5.5,5.5H146c-3.1,0-5.5-2.5-5.5-5.5V6.1c0-3.1,2.5-5.5,5.5-5.5h19.5
				c3.1,0,5.5,2.5,5.5,5.5V35.5z"/>
		</g>
		<g>
			<polygon class="st0" points="16.7,9 16.7,7.1 1.1,7.1 1.1,9.7 13,9.7 0,31.7 0,33.5 16.8,33.5 16.8,31 3.6,31 			"/>
			<path class="st0" d="M26.3,14c-5.1,0-8.7,4.2-8.7,10.3c0,5.7,3.6,9.6,9,9.6c3.4,0,5.3-0.9,5.9-1.2l0.4-0.2L32.1,30l-0.6,0.3
				c-1,0.5-2.3,1-4.8,1c-3.9,0-6.1-2.5-6.3-6.9h13.2l0.1-0.4c0.1-0.4,0.1-0.7,0.1-1.2C33.9,19.5,32.3,14,26.3,14z M26.1,16.6
				c1.4,0,2.5,0.4,3.3,1.2c1.2,1.2,1.5,2.9,1.5,4H20.7C21,20.2,22.2,16.6,26.1,16.6z"/>
			<path class="st0" d="M45.1,14c-2.3,0-4.4,1-5.8,2.5l-0.1-2.1h-2.8V15c0.1,1.4,0.1,2.6,0.1,4.3v14.3h2.9V21.8c0-0.4,0.1-1,0.2-1.4
				c0.7-2.2,2.7-3.8,4.9-3.8c3.9,0,4.4,3.6,4.4,5.7v11.2h2.9V22.2C51.9,16.1,48.2,14,45.1,14z"/>
			<path class="st0" d="M68.5,19.3c1.9-1.3,3.1-3.4,3.1-5.6c0-2-0.6-3.6-1.8-4.8c-1.6-1.6-3.9-2.4-7.3-2.4c-1.8,0-3.7,0.2-5.3,0.6
				l-0.7,0.2v26.6h0.9c0.3,0,0.7,0,1.1,0.1c0.9,0.1,2,0.1,3.3,0.1c4.1,0,6.9-0.9,8.7-2.7c1.4-1.5,2.1-3.4,2.1-5.5
				C72.5,22.6,70.6,20.4,68.5,19.3z M62.2,30.7c-0.8,0-1.5,0-2.2-0.1v-9.4h2.2c1.5,0,6.5,0.3,6.5,4.7C68.7,29.9,65.2,30.7,62.2,30.7
				z M62.7,17.8H60V10c0.5-0.1,1.2-0.1,2.2-0.1c4.9,0,5.5,2.2,5.5,3.9C67.7,16.2,65.7,17.8,62.7,17.8z"/>
			<path class="st0" d="M84.4,13.6c-4.7,0-9.5,3.6-9.5,10.5c0,5.9,3.9,10.2,9.2,10.2l0,0c4.8,0,9.6-3.6,9.6-10.5
				C93.7,17.8,89.9,13.6,84.4,13.6z M84.2,30.9c-3.2,0-5.6-3-5.6-6.9c0-3.5,1.8-7,5.7-7c4.1,0,5.6,4.1,5.6,6.9
				C90,27.9,87.5,30.9,84.2,30.9z"/>
			<path class="st0" d="M105.5,13.6c-4.7,0-9.5,3.6-9.5,10.5c0,5.9,3.9,10.2,9.2,10.2l0,0c4.8,0,9.6-3.6,9.6-10.5
				C114.8,17.8,111,13.6,105.5,13.6z M105.3,30.9c-3.2,0-5.6-3-5.6-6.9c0-3.5,1.8-7,5.7-7c4.1,0,5.6,4.1,5.6,6.9
				C111.1,27.9,108.6,30.9,105.3,30.9z"/>
			<path class="st0" d="M132.8,14H128l-6.7,7c0,0-0.1,0.1-0.1,0.2V5.3h-3.7V34h3.7v-8.1L122,25l7,9h4.6l-9-11.4L132.8,14z"/>
		</g>
	</g>
	<g>
		<g>
			<rect x="224.2" y="5.7" class="st0" width="2.7" height="28.2"/>
			<path class="st0" d="M213.3,13.8c-5.2,0-8.8,4.3-8.8,10.4c0,5.8,3.6,9.7,9.1,9.7c3.4,0,5.3-0.9,6-1.2l0.3-0.2l-0.7-2.3l-0.5,0.2
				c-1.1,0.5-2.4,1-4.9,1c-4,0-6.4-2.6-6.6-7.1v-0.2h13.5l0.1-0.3c0.1-0.4,0.1-0.7,0.1-1.2C220.9,21.7,220.7,13.8,213.3,13.8z
				 M207.4,21.8l0.1-0.3c0.3-1.6,1.6-5.3,5.6-5.3c1.4,0,2.6,0.4,3.5,1.3c1.2,1.2,1.5,3.1,1.6,4v0.2L207.4,21.8L207.4,21.8z"/>
			<path class="st0" d="M244,27.3c0,2.5-2.1,4.6-4.6,4.6h-1c-2.5,0-4.6-2.1-4.6-4.6v-13h-2.6v13c0,4,3.2,7.2,7.2,7.2h1
				c4,0,7.2-3.2,7.2-7.2v-13H244V27.3z"/>
			<path class="st0" d="M274.4,13.8c-5.2,0-8.8,4.3-8.8,10.4c0,5.8,3.6,9.7,9.1,9.7c3.4,0,5.4-0.9,6-1.2l0.3-0.2l-0.7-2.3l-0.5,0.2
				c-1.1,0.5-2.4,1-4.9,1c-4,0-6.4-2.6-6.6-7.1v-0.2h13.5l0.1-0.3c0.1-0.4,0.1-0.7,0.1-1.2C282,21.7,281.8,13.8,274.4,13.8z
				 M268.5,21.8l0.1-0.3c0.3-1.6,1.6-5.3,5.6-5.3c1.4,0,2.6,0.4,3.5,1.3c1.2,1.2,1.5,3.1,1.6,4v0.2L268.5,21.8L268.5,21.8z"/>
			<polygon class="st0" points="262.7,14.3 248.9,33.6 252,33.6 265.7,14.3 			"/>
			<path class="st0" d="M256.5,20.1c-0.2-0.3-4.1-5.8-4.1-5.8h-3.2l5.7,8L256.5,20.1z"/>
			<path class="st0" d="M258.4,27.5c0.3,0.4,4.3,6.1,4.3,6.1h3.2l-5.9-8.4L258.4,27.5z"/>
			<path class="st0" d="M188.2,6.6H188h-7.1l2.7,2.4h4.5c3.7,0.1,6.5,1.1,8.3,3c1.8,1.8,2.7,4.4,2.6,7.7c0,7.1-3.9,11.3-10.9,11.7
				h-4.4h-0.2V11.6l-2.8-2.5v24.6h7.4c4.4-0.2,8-1.7,10.2-4.1c2.3-2.6,3.5-6,3.5-10.1c0-3.9-1.1-7-3.4-9.3
				C196.3,8,192.7,6.7,188.2,6.6z"/>
		</g>
	</g>
</g>
</svg>
