<?xml version="1.0" encoding="utf-8"?>
<!-- Generator: Adobe Illustrator 21.1.0, SVG Export Plug-In . SVG Version: 6.00 Build 0)  -->
<svg version="1.1" id="圖層_1" xmlns="http://www.w3.org/2000/svg" xmlns:xlink="http://www.w3.org/1999/xlink" x="0px" y="0px"
	 viewBox="0 0 259.3 61.9" style="enable-background:new 0 0 259.3 61.9;" xml:space="preserve">
<style type="text/css">
	.st0{fill:none;}
</style>
<g>
	<path class="st0" d="M241.4,24.8c-7.6,0-10.3,7-10.7,11.1l-0.1,0.7c0,0.1,0,0.2,0.1,0.2c0.1,0.1,0.1,0.1,0.2,0.1h19.8
		c0.2,0,0.3-0.1,0.3-0.3l0-0.6c0-1.3-0.1-5.7-3-8.7C246.4,25.7,244.2,24.8,241.4,24.8z"/>
	<path class="st0" d="M154.6,25.3c-8.5,0-11.5,8.2-11.5,15.2c0,9.1,4.6,15.2,11.4,15.2c6.6,0,11.2-6.3,11.2-15.4
		C165.8,32.9,162.3,25.3,154.6,25.3z"/>
	<path class="st0" d="M52.4,24C45,24,41,30.4,40.2,36.8l-0.1,0.7h23.2l0-0.6c0-1.5-0.1-6.6-3.4-9.9C58.1,25,55.5,24,52.4,24z"/>
	<polygon class="st0" points="34.1,9.2 7.1,56.7 33.6,56.7 33.6,61.8 0,61.8 0,58.2 27.2,10.4 2.3,10.4 2.3,5.4 34.1,5.4 	"/>
	<path class="st0" d="M69.3,41.6H40.1l0,0.6c0.2,9.4,5.7,14.9,14.8,14.9c5.3,0,8.5-0.9,11-1.9l1,4.2c-2.6,1.1-6.9,2.3-13,2.3
		c-12.2,0-19.7-7.8-19.7-20.2c0-12.8,7.7-21.7,18.8-21.7c12.2,0,16.5,10.2,16.5,18.9C69.5,39.9,69.3,40.9,69.3,41.6z"/>
	<path class="st0" d="M108.4,61.8h-6.3V38.5c0-8.3-3.6-12.8-10.2-12.8c-5.6,0-9.4,4.1-10.6,8.1c-0.4,1-0.6,2.3-0.6,3.7v24.3h-6.3
		V32.2c0-4.4-0.1-7.6-0.3-10.6h5.4l0.4,6.8h0l0.1,1.3c0.2-0.4,0.3-0.9,0.5-1.3h0c3.4-6.9,10.6-7.5,10.6-7.5l0,0c1-0.2,2-0.3,3.2-0.3
		c2.3,0,14,0.8,14,17V61.8z"/>
	<path class="st0" d="M133.3,26.4h-8.9c-0.2,0-0.3,0.1-0.3,0.3v35.2h-8.8V17.6c0-5.9,1.7-10.8,4.8-13.7c2.6-2.4,6.4-3.8,10.4-3.8
		c2.2,0,4.1,0.3,5.9,0.8l-0.6,6.4c-1.1-0.3-2.4-0.5-3.7-0.5c-5.2,0-8,3.8-8,10.6V20c0,0.2,0.1,0.3,0.3,0.3h9V26.4z"/>
	<path class="st0" d="M154.2,61.6c-12.1,0-20.2-8.4-20.2-20.8c0-13,8.2-21.5,20.9-21.5c12,0,20.1,8.3,20.1,20.8
		C175,55,164.5,61.6,154.2,61.6z"/>
	<path class="st0" d="M216.9,60.7h-8.8V37.8c0-7.5-3.2-11.6-9-11.6c-5,0-8.1,3.7-9.2,6.9c-0.3,0.9-0.5,2.1-0.5,3.8v23.9h-8.9V32
		c0-4.9-0.1-8.5-0.3-11.7h7.5l0.5,8.6c0,0.1,0.1,0.3,0.3,0.3c0.1,0,0.3-0.1,0.4-0.2c0.5-1.3,1.3-2.8,1.3-2.9c0,0,0-0.1,0-0.1
		c1.8-3.1,6.1-6.7,12.6-6.7c3.3,0,14.1,1.2,14.1,17.2V60.7z"/>
	<path class="st0" d="M259.1,42.6H231c-0.1,0-0.2,0-0.2,0.1c-0.1,0.1-0.1,0.2-0.1,0.2l0,0.6c0.3,8.7,7.4,11.8,13.9,11.8
		c4.3,0,7.7-0.5,11-1.6l1.2,5.6c-2.9,1.1-7.6,2.3-13.7,2.3c-12.9,0-20.9-7.9-20.9-20.5c0-10.5,6.2-21.8,19.7-21.8
		c12.7,0,17.3,10.1,17.3,19.6C259.3,40.5,259.2,41.8,259.1,42.6z"/>
	<path d="M53,19.8c-11.1,0-18.8,8.9-18.8,21.7c0,12.5,7.6,20.2,19.7,20.2c6.2,0,10.5-1.2,13-2.3l-1-4.2c-2.6,1-5.7,1.9-11,1.9
		c-9.1,0-14.6-5.6-14.8-14.9l0-0.6h29.1c0.1-0.7,0.2-1.7,0.2-2.9C69.5,30,65.1,19.8,53,19.8z M63.4,36.8l0,0.6H40.2l0.1-0.7
		C41,30.4,45,24,52.4,24c3.1,0,5.7,1,7.6,2.9C63.3,30.3,63.4,35.4,63.4,36.8z"/>
	<polygon points="2.3,10.4 27.2,10.4 0,58.2 0,61.8 33.6,61.8 33.6,56.7 7.1,56.7 34.1,9.2 34.1,5.4 2.3,5.4 	"/>
	<path d="M124,20v-2.8c0-6.8,2.8-10.6,8-10.6c1.3,0,2.6,0.2,3.7,0.5l0.6-6.4c-1.7-0.5-3.7-0.8-5.9-0.8c-4,0-7.8,1.4-10.4,3.8
		c-3.1,3-4.8,7.8-4.8,13.7v44.4h8.8V26.8c0-0.2,0.1-0.3,0.3-0.3h8.9v-6.1h-9C124.1,20.3,124,20.2,124,20z"/>
	<path d="M154.9,19.3c-12.7,0-20.9,8.4-20.9,21.5c0,12.5,8.1,20.8,20.2,20.8c10.3,0,20.8-6.7,20.8-21.5
		C175,27.7,166.9,19.3,154.9,19.3z M154.5,55.8c-6.8,0-11.4-6.1-11.4-15.2c0-7,3-15.2,11.5-15.2c7.7,0,11.2,7.6,11.2,15.1
		C165.8,49.4,161.2,55.8,154.5,55.8z"/>
	<path d="M242,19.3c-13.6,0-19.7,11.3-19.7,21.8c0,12.6,8,20.5,20.9,20.5c6.1,0,10.8-1.3,13.7-2.3l-1.2-5.6c-3.3,1.1-6.7,1.6-11,1.6
		c-6.5,0-13.6-3.1-13.9-11.8l0-0.6c0-0.1,0-0.2,0.1-0.2c0.1-0.1,0.2-0.1,0.2-0.1h28.1c0.1-0.8,0.2-2,0.2-3.6
		C259.3,29.5,254.8,19.3,242,19.3z M251.1,36.1l0,0.6c0,0.2-0.1,0.3-0.3,0.3H231c-0.1,0-0.2,0-0.2-0.1c-0.1-0.1-0.1-0.2-0.1-0.2
		l0.1-0.7c0.4-4.1,3.1-11.1,10.7-11.1c2.7,0,5,0.9,6.7,2.6C251,30.4,251.1,34.8,251.1,36.1z"/>
	<path d="M202.8,19.3c-6.5,0-10.8,3.6-12.6,6.7c0,0,0,0.1,0,0.1c0,0-0.8,1.6-1.3,2.9c-0.1,0.1-0.2,0.2-0.4,0.2
		c-0.2,0-0.3-0.1-0.3-0.3l-0.5-8.6h-7.5c0.2,3.1,0.3,6.7,0.3,11.7v28.7h8.9V36.8c0-1.6,0.2-2.9,0.5-3.8c1.1-3.2,4.2-6.9,9.2-6.9
		c5.8,0,9,4.1,9,11.6v22.9h8.8V36.5C216.9,20.6,206.1,19.3,202.8,19.3z"/>
	<path d="M94.4,20.7c-1.1,0-2.2,0.1-3.2,0.3l0,0c0,0-7.1,0.6-10.6,7.5h0c-0.2,0.4-0.4,0.9-0.5,1.3l-0.1-1.3h0l-0.4-6.8h-5.4
		c0.2,3,0.3,6.2,0.3,10.6v29.5h6.3V37.5c0-1.4,0.2-2.7,0.6-3.7c1.2-4,5-8.1,10.6-8.1c6.6,0,10.2,4.5,10.2,12.8v23.2h6.3V37.7
		C108.4,21.5,96.8,20.7,94.4,20.7z"/>
</g>
</svg>
