<?xml version="1.0" encoding="utf-8"?>
<!-- Generator: Adobe Illustrator 21.1.0, SVG Export Plug-In . SVG Version: 6.00 Build 0)  -->
<svg version="1.1" id="圖層_1" xmlns="http://www.w3.org/2000/svg" xmlns:xlink="http://www.w3.org/1999/xlink" x="0px" y="0px"
	 viewBox="0 0 227.4 60.3" style="enable-background:new 0 0 227.4 60.3;" xml:space="preserve">
<g>
	<g>
		<g>
			<g>
				<g>
					<g>
						<path d="M183.5,58.8c-0.4-2.4-0.5-5.4-0.5-9V35.6c0-7.3-2.6-16-15-16c-3.1,0-6.2,0.6-9.2,2.3l-1.9,6.7c0,0,5.2-2.8,8.7-2.8
							h0.1c5.8-0.2,9.2,1.7,9.2,8.1v0.3c-14.7,0-22.7,5.2-22.7,14.6c0,5.7,4.2,11.4,12.1,11.4c5.3,0,9.3-2.5,11.4-5l0.5,4.2h7.3
							L183.5,58.8z M175.1,46.1c0,0.8-0.1,1.5-0.3,2c-0.9,2.8-3.8,6-8.8,6c-3.7,0-5.9-2.3-5.9-6c0-5.3,4.8-8,14.4-8
							c0.2,0,0.4,0,0.6,0V46.1z"/>
					</g>
				</g>
			</g>
			<g>
				<path d="M52.8,17.1c-11,0-18.7,8.9-18.7,21.6c0,12.4,7.5,20.2,19.7,20.2c6.2,0,10.4-1.2,13-2.3l-1-4.2c-2.6,1-5.7,1.9-11,1.9
					c-9.1,0-14.6-5.6-14.7-14.9l0-0.6h29c0.1-0.7,0.2-1.7,0.2-2.9C69.2,27.2,64.9,17.1,52.8,17.1z M63.2,34.6H40l0.1-0.7
					c0.7-6.3,4.7-12.7,12.1-12.7c3.1,0,5.7,1,7.6,2.9c3.3,3.3,3.4,8.4,3.4,9.9V34.6z"/>
				<polygon points="2.3,7.7 27.1,7.7 0,55.3 0,58.9 33.5,58.9 33.5,53.9 7.1,53.9 34,6.5 34,2.7 2.3,2.7 				"/>
				<path d="M94.1,18c-1.1,0-2.2,0.1-3.2,0.3l0,0c0,0-7.1,0.6-10.6,7.5h0c-0.2,0.4-0.4,0.8-0.5,1.3l-0.1-1.3l0,0l-0.4-6.8h-5.4
					c0.2,3,0.3,6.2,0.3,10.6v29.4h6.3V34.7c0-1.4,0.2-2.7,0.5-3.7c1.2-4,5-8.1,10.6-8.1c6.5,0,10.1,4.5,10.1,12.8v23.1h6.3v-24
					C108.1,18.8,96.4,18,94.1,18z"/>
			</g>
			<path d="M119.3,3.6c3.5-0.6,8-1.1,13.8-1.1c7.1,0,12.4,1.7,15.7,4.7c3.1,2.6,4.9,6.7,4.9,11.7c0,5.1-1.5,9-4.3,11.9
				c-3.8,4.1-10,6.1-17.1,6.1c-2.1,0-4.1-0.1-5.8-0.5v22.4h-7.2V3.6z M126.6,30.6c1.6,0.4,3.6,0.6,6,0.6c8.7,0,14-4.2,14-11.9
				c0-7.4-5.2-11-13.2-11c-3.2,0-5.6,0.3-6.8,0.6V30.6z"/>
			<path d="M227.1,0v48.5c0,3.5,0.1,7.6,0.3,10.4h-6.6l-0.3-7h-0.2c-2.2,4.5-7.1,7.9-13.7,7.9c-9.7,0-17.2-8.2-17.2-20.4
				c-0.1-13.4,8.2-21.6,18-21.6c6.2,0,10.3,2.9,12.1,6.1h0.2V0H227.1z M219.8,35.1c0-0.9-0.1-2.2-0.3-3.1c-1.1-4.7-5.1-8.5-10.5-8.5
				c-7.5,0-12,6.6-12,15.5c0,8.1,4,14.9,11.9,14.9c4.9,0,9.4-3.2,10.7-8.7c0.2-1,0.3-2,0.3-3.2V35.1z"/>
		</g>
	</g>
</g>
</svg>
