<svg version="1.1" id="Layer_1" xmlns="http://www.w3.org/2000/svg" x="0" y="0" viewBox="0 0 1006 117.6" xml:space="preserve"><style>.st0{fill:#fff}</style><path d="M947.2 0H58.8C26.3 0 0 26.3 0 58.8s26.3 58.8 58.8 58.8h888.4c32.5 0 58.8-26.3 58.8-58.8S979.7 0 947.2 0"/><path class="st0" d="M135.1 78.7l5.8-6.9c5.3 4.6 10.6 7.1 17.3 7.1 6 0 9.7-2.8 9.7-6.9v-.2c0-3.9-2.2-6-12.4-8.4-11.7-2.8-18.3-6.3-18.3-16.4v-.2c0-9.4 7.8-15.9 18.8-15.9 8 0 14.4 2.4 19.9 6.9l-5.2 7.3c-4.9-3.7-9.9-5.6-14.9-5.6-5.6 0-8.9 2.9-8.9 6.5v.2c0 4.2 2.5 6.1 13.1 8.6 11.6 2.8 17.6 7 17.6 16.1v.2c0 10.3-8.1 16.4-19.6 16.4-8.4 0-16.3-2.9-22.9-8.8m50.8-46.9h21.7c12.9 0 20.9 7.3 20.9 18.4v.2c0 12.3-9.9 18.8-22 18.8h-10.9v17.7h-9.7V31.8zm20.8 28.5c7.3 0 11.8-4.1 11.8-9.8v-.2c0-6.4-4.6-9.8-11.8-9.8h-11.2v19.8h11.2zm30-28.5h40.7v8.6h-31.1v14.3h27.6v8.6h-27.6v14.8h31.5v8.6h-41.1V31.8zm51 0h40.7v8.6h-31.1v14.3h27.6v8.6h-27.6v14.8h31.5v8.6h-41.1V31.8zm51 0h20.5c17.3 0 29.2 11.8 29.2 27.3v.2c0 15.5-11.9 27.5-29.2 27.5h-20.5v-55zm9.6 8.7v37.4h10.8c11.5 0 19.1-7.8 19.1-18.5v-.2c0-10.8-7.5-18.7-19.1-18.7h-10.8zm62.9.2h-17.4v-8.9h44.5v8.9h-17.4v46h-9.7v-46zm37.3-8.9h40.8v8.6h-31.1v14.3h27.5v8.6h-27.5v14.8h31.4v8.6h-41.1V31.8zm48.9 46.9l5.8-6.9c5.3 4.6 10.6 7.1 17.3 7.1 6 0 9.7-2.8 9.7-6.9v-.2c0-3.9-2.2-6-12.4-8.4-11.7-2.8-18.3-6.3-18.3-16.4v-.2c0-9.4 7.8-15.9 18.8-15.9 8 0 14.4 2.4 19.9 6.9l-5.2 7.3c-4.9-3.7-9.9-5.6-14.9-5.6-5.6 0-8.9 2.9-8.9 6.5v.2c0 4.2 2.5 6.1 13.1 8.6 11.6 2.8 17.6 7 17.6 16.1v.2c0 10.3-8.1 16.4-19.6 16.4-8.4 0-16.3-2.9-22.9-8.8m66.3-38h-17.4v-8.9h44.6v8.9h-17.5v46h-9.7v-46zm389.2-9.9h-2.5v-1.3h6.5v1.3h-2.5v6.8h-1.5v-6.8zm5.5-1.3h1.5l2.5 3.8 2.4-3.8h1.5v8.1h-1.4v-5.8l-2.5 3.8h-.1l-2.5-3.8v5.8h-1.4v-8.1zM105.6 89.7c7-7 11.3-16.6 11.3-27.3 0-21.3-17.3-38.6-38.6-38.6S39.7 41.1 39.7 62.4c0 10.7 4.3 20.3 11.3 27.3l5.5-5.5c-5.6-5.6-9.1-13.3-9.1-21.8 0-17 13.8-30.8 30.8-30.8S109 45.4 109 62.4c0 8.5-3.5 16.2-9 21.8l5.6 5.5z"/><path class="st0" d="M77.4 70.2l-6.9-6.9 22-19.2 4.1 4.1-19.2 22zm579.7-3.3v-.2c0-10.5-7.3-17.3-15.7-17.3-8.3 0-16.3 7-16.3 17.2v.2c0 10.3 8 17.2 16.3 17.2 8.7 0 15.7-6.3 15.7-17.1m-35.7-20.1h3.8v8.9c3.5-5.3 8.6-9.9 16.5-9.9 9.7 0 19.5 7.8 19.5 20.8v.2c0 13-9.8 20.9-19.5 20.9-8 0-13.2-4.6-16.5-9.6v21.2h-3.8V46.8zm86 20.1v-.2c0-9.7-7.2-17.3-16.5-17.3-9.5 0-16.3 7.8-16.3 17.2v.2c0 9.6 7.2 17.3 16.5 17.3 9.5 0 16.3-7.8 16.3-17.2m-36.9 0v-.2c0-11.2 8.7-21 20.6-21 11.8 0 20.5 9.6 20.5 20.8v.2c0 11.2-8.7 20.9-20.6 20.9-11.9.1-20.5-9.4-20.5-20.7M718 46.8h4.4l12 35.1 12.1-35.3h3.1l12.1 35.3 12.1-35.1h4.1l-14.7 40.3h-3.3L748 52.8l-12 34.3h-3.3L718 46.8zm99.5 18.1c-.6-8.1-5.2-15.5-14.4-15.5-7.9 0-14 6.7-14.8 15.5h29.2zm-33.1 2v-.2c0-11.6 8.2-20.9 19-20.9 11.2 0 18.4 9.1 18.4 21 0 .7 0 .9-.1 1.6h-33.2c.7 10 7.8 15.8 15.7 15.8 6.2 0 10.4-2.7 13.7-6.3l2.7 2.4c-4.1 4.4-8.9 7.5-16.6 7.5-10.5-.1-19.7-8.5-19.6-20.9m48.5-20.1h3.8v11.4c3.1-7.1 9.8-12.3 17.7-12v4.2h-.4c-9.3 0-17.3 7-17.3 20v16.4h-3.8v-40zm59.9 18.1c-.5-8.1-5.2-15.5-14.4-15.5-7.9 0-14 6.7-14.8 15.5h29.2zm-33.2 2v-.2c0-11.6 8.2-20.9 19-20.9 11.2 0 18.4 9.1 18.4 21 0 .7 0 .9-.1 1.6h-33.2c.7 10 7.8 15.8 15.7 15.8 6.2 0 10.4-2.7 13.7-6.3l2.7 2.4c-4.1 4.4-8.9 7.5-16.6 7.5-10.5-.1-19.6-8.5-19.6-20.9m82.2 0v-.2c0-10.3-8-17.2-16.3-17.2-8.7 0-15.7 6.4-15.7 17.1v.2c0 10.5 7.3 17.3 15.7 17.3 8.3-.1 16.3-7 16.3-17.2m-36.2 0v-.2c0-13 9.8-21 19.5-21 8 0 13.2 4.6 16.5 9.6V29.5h3.8v57.3h-3.8v-8.9c-3.5 5.3-8.6 9.9-16.5 9.9-9.7-.1-19.5-7.8-19.5-20.9"/></svg>