<svg version="1.1" id="圖層_1" xmlns="http://www.w3.org/2000/svg" xmlns:xlink="http://www.w3.org/1999/xlink" x="0" y="0" viewBox="0 0 70 50" xml:space="preserve"><style>.st1{fill-rule:evenodd;clip-rule:evenodd;fill:none;stroke:#040000;stroke-width:.8504}</style><circle cx="53" cy="16.6" r="5.7" fill="none" stroke="#040000" stroke-width=".75" stroke-miterlimit="10"/><path class="st1" d="M41.4 39.1c-1 0-1.8-.8-1.8-1.8s.8-1.8 1.8-1.8c3.1 0 5.5-2.5 5.5-5.5 0-1.7-.7-3.1-1.9-4.1-.1-.1-.2-.2-.4-.3-.1-.1-.2-.2-.4-.3h-.1c-.1-.1-.2-.1-.4-.2 0 0-.1 0-.1-.1-.1-.1-.2-.1-.3-.2-.1 0-.1 0-.2-.1-.1 0-.2-.1-.3-.1-.1 0-.1 0-.2-.1-.1 0-.2 0-.3-.1h-1.2c-.1-.3-.1-.6-.2-.9 0-.1 0-.1-.1-.2-.1-.2-.1-.5-.2-.7 0-.1-.1-.1-.1-.2-.1-.2-.2-.5-.3-.7 0-.1-.1-.1-.1-.2-.1-.2-.2-.5-.4-.7-1.8-3-5.1-5.1-9-5.1-3.8 0-7.1 2-9 5.1-.1.2-.2.4-.4.7 0 .1-.1.1-.1.2-.1.2-.2.4-.3.7 0 .1-.1.1-.1.2-.1.2-.2.5-.2.7 0 .1 0 .1-.1.2-.1.3-.2.6-.2.9h-1.2c-.1 0-.2 0-.3.1-.1 0-.1 0-.2.1-.1 0-.2.1-.3.1-.1 0-.1 0-.2.1-.1 0-.2.1-.3.2 0 0-.1 0-.1.1-.1.1-.2.1-.4.2h-.1c-.1.1-.2.2-.4.3-.1.1-.3.2-.4.3-1.1 1-1.9 2.5-1.9 4.1 0 3.1 2.5 5.5 5.5 5.5 1 0 1.8.8 1.8 1.8s-.8 1.8-1.8 1.8c-5.1 0-9.2-4.1-9.2-9.2 0-4.2 2.8-7.7 6.5-8.8 2.1-5.3 7.2-9 13.2-9 6 0 11.1 3.7 13.2 9 3.8 1.2 6.5 4.7 6.5 8.8.5 5.1-3.7 9.2-8.8 9.2"/><path class="st1" d="M36.5 32.4l-4.4 4.9c-.3.3-.7.5-1.1.5-.4 0-.8-.2-1.1-.5l-4.4-4.9c-.2-.2-.3-.5-.4-.8v-.1c0-.8.7-1.5 1.5-1.5h.1c.3.1.6.2.9.5l1.9 2.1V25c0-.8.7-1.5 1.5-1.5s1.5.7 1.5 1.5v7.5l1.9-2.1c.2-.2.5-.4.9-.5h.1c.6 0 1 .3 1.3.8.1.2.2.4.2.7 0 .4-.1.8-.4 1"/><defs><path id="SVGID_1_" d="M49.2 12.6h8.9v8.1h-8.9z"/></defs><clipPath id="SVGID_2_"><use xlink:href="#SVGID_1_" overflow="visible"/></clipPath><path d="M57.8 12.6c-.5 0-1.1.2-1.4.6-1.4 1.5-2.7 3.2-3.7 5-.5-.7-1-1.4-1.6-2-.1-.1-.4-.1-.5 0-.3 0-.5.1-.8.3-.2.1-.8.5-.5.8.9 1 1.7 2.1 2.2 3.4.2.3.9.2 1.5-.1.1-.1.2-.1.3-.2l.1-.1c0-.1.1-.1.1-.2 1.1-2.4 2.6-4.7 4.4-6.6.4-.6.3-.9-.1-.9" clip-path="url(#SVGID_2_)" fill="#040000"/></svg>