<svg xmlns="http://www.w3.org/2000/svg" viewBox="0 0 70 50"><path d="M11.3 42.8l-.1-8.1s-.4-1.8-1.6-2.4c0 0-3.8-4.1-3.8-9.5 0 0-1.7-13.1 8.3-14.9 0 0 11-2.2 15 1.6 0 0 4.1 2.8 4.7 8.2 0 0 1.8 8.6 2.1 9.4 0 0 2.1 3.7-2.8 3.1l.2 1.5s-3.6 1-.8 2.3c0 0 1.2 4.9-1.8 5 0 0-6.3-1.6-6.3 3.7.1 0-13.1-.2-13.1.1z" fill="none" stroke="#000" stroke-linecap="round" stroke-linejoin="round"/><path d="M38.2 33.2h4l1.8 5 1.5-6.7h2.8l1.3-6.2 1.7 9.1.7-2.1 1.4 4.9.9-4.9 1.4 3.7 2.5-7 1.6 4.9h4.4M11.3 13.3s-.4 1.5.6 1.9 1.6 1.8 1.4 2.1m5.9-6.3s-1 1.1-.3 2c.7.9.5 2.4.2 2.5m7-3.1s-1.4.5-1.3 1.6c.2 1.1-.7 2.3-1 2.3" fill="none" stroke="#000"/><path d="M19.3 18.1s-5.1.3-5.1 5.5c0 0-.2 3.2 2.5 4.1 0 0 .6 0 .8.5.2.5-.2 2 .1 2.3.3.3 3.8.1 3.8.1l-.1-2.4s.3-.6.8-.5c0 0 2.9-1.4 2.8-4-.1-2.6-1.4-5.5-5.6-5.6zm-1.7 13.4s1.7.4 3.9.1m-3.6.9s2.4.4 3.4 0m-3 1s1.2.4 2.4.1" stroke-linejoin="round" fill="none" stroke="#000"/></svg>