<svg xmlns="http://www.w3.org/2000/svg" viewBox="0 0 70 50"><path d="M20.5 42.3c0 .5-.1.8-.4 1.1-.3.2-.7.4-1.2.4h-.4v1.5h-.9V41H19c.5 0 .9.1 1.2.3.1.2.3.6.3 1zm-2.1.7h.3c.3 0 .5-.1.6-.2.1-.1.2-.3.2-.5s-.1-.4-.2-.5c-.1-.1-.3-.2-.5-.2h-.4V43zm3.5.6v1.6H21V41h1.2c.6 0 1 .1 1.3.3.3.2.4.5.4 1 0 .3-.1.5-.2.7-.1.2-.3.4-.6.5.6 1 1.1 1.6 1.3 1.9h-1l-1-1.6h-.5zm0-.7h.3c.3 0 .5 0 .6-.1.1-.1.2-.2.2-.5 0-.2-.1-.3-.2-.4-.1-.1-.4-.1-.6-.1h-.3v1.1zm6.6.2c0 .7-.2 1.3-.5 1.6-.4.4-.9.6-1.5.6-.7 0-1.2-.2-1.5-.6-.4-.4-.5-.9-.5-1.6 0-.7.2-1.3.5-1.6.4-.4.9-.6 1.5-.6.7 0 1.2.2 1.5.6.3.4.5.9.5 1.6zm-3.1 0c0 .5.1.8.3 1.1.2.2.5.4.8.4.7 0 1.1-.5 1.1-1.4 0-1-.4-1.4-1.1-1.4-.4 0-.6.1-.8.4-.2.1-.3.4-.3.9zm5.3 2.2h-.9v-3.5h-1.2V41h3.2v.8h-1.2v3.5zm4.3 0h-2.5V41H35v.7h-1.6v.9h1.5v.7h-1.5v1.1H35v.9zm2.7-3.6c-.3 0-.6.1-.8.4-.2.3-.3.6-.3 1.1 0 1 .4 1.4 1.1 1.4.3 0 .7-.1 1.1-.2v.8c-.4.1-.7.2-1.2.2-.6 0-1.1-.2-1.4-.6-.3-.4-.5-.9-.5-1.6 0-.4.1-.8.2-1.2.2-.3.4-.6.7-.8.3-.2.7-.3 1.1-.3.4 0 .8.1 1.3.3l-.3.8c-.2-.1-.3-.1-.5-.2s-.3-.1-.5-.1zm3.7 3.6h-.9v-3.5h-1.2V41h3.2v.8h-1.2v3.5zm4.2 0h-2.5V41h2.5v.7H44v.9h1.5v.7H44v1.1h1.6v.9zm4.3-2.2c0 .7-.2 1.2-.6 1.6-.4.4-1 .6-1.7.6h-1.2V41h1.3c.7 0 1.2.2 1.6.6.4.3.6.8.6 1.5zm-1 0c0-.9-.4-1.4-1.2-1.4h-.5v2.8h.4c.9 0 1.3-.4 1.3-1.4z" fill="#58595b"/><path d="M27.9 37.2l-1.4-.8-.1.2c-.3.5-.8.8-1.3.8-.9 0-1.7-.7-1.7-1.7 0-.9.7-1.7 1.7-1.7.6 0 1 .2 1.3.8l.1.2 1.4-.8-.1-.2c-.7-1-1.6-1.5-2.7-1.5-2.2 0-3.4 1.7-3.4 3.2 0 1.6 1.2 3.2 3.4 3.2 1.1 0 2.2-.6 2.7-1.5l.1-.2zm-.1 1.7h2l.6-1.5h3l.6 1.5h2l-3.5-8.5h-1.8l.5 1.1-3.4 7.4m4.1-5.2l.8 2h-1.6l.8-2zm4.8 5.2h1.7v-3.8h1.1v-1.6h-1.1v-.8c0-.3.2-.7.6-.7.2 0 .4 0 .5.1l.2.1.7-1.6-.2-.1c-.3-.1-.8-.2-1.1-.2-.8 0-1.4.3-1.9.7-.4.4-.6 1-.6 1.7v.7H36V35h.8v3.9zm-23.1-8.6v8.6h1.8V34l1.9 1.4 1.8-1.4v4.9H21v-8.6l-3.7 2.8zm29.9 2.2c-2.2 0-3.3 1.7-3.3 3.2 0 1.6 1.2 3.2 3.3 3.2 1 0 1.9-.5 2.7-1.3l-1.4-.8c-.4.4-.8.6-1.3.6-.7 0-1.3-.5-1.5-1.1h4.7v-.4c-.1-2.4-1.9-3.4-3.2-3.4zM42 34.9c.2-.6.7-.9 1.3-.9.6 0 1.1.3 1.4.9H42zm8.5-2.4c-2.2 0-3.3 1.7-3.3 3.2 0 1.6 1.2 3.2 3.3 3.2 1 0 1.9-.5 2.7-1.3l-1.4-.8c-.4.4-.8.6-1.3.6-.7 0-1.3-.5-1.5-1.1h4.7v-.4c0-2.4-1.9-3.4-3.2-3.4zM49 34.9c.2-.6.7-.9 1.3-.9.6 0 1.1.3 1.4.9H49zm5-3h1v.2h-.4v1.1h-.2v-1.1H54v-.2zm1.1 0h.3l.3 1 .3-1h.3v1.3h-.2v-1l-.3 1h-.2l-.3-1v1h-.2v-1.3zm-27-12V11l5.6 2.6V9.4L24.2 5v17.3l9.5 4.4v-4.3z" fill="#c12127"/><path fill="#6f0e0f" d="M39.2 19.9V11l-5.5 2.6V9.4L43.1 5v17.3l-9.4 4.4v-4.3z"/></svg>