<svg version="1.1" id="圖層_1" xmlns="http://www.w3.org/2000/svg" x="0" y="0" viewBox="0 0 70 50" xml:space="preserve"><style>.st0{fill:#040000}</style><path class="st0" d="M33.3 37.2c-.4-1.1.2-2.4 1.3-2.8.5-.2 1.1-.2 1.5 0L48 31.8l-10.8 5.7c-.2.5-.6.8-1.1 1-.6.2-1.2.2-1.7-.1-.5-.2-.9-.6-1.1-1.2"/><path class="st0" d="M55.6 37.3v-1.4h3.1c-.1-1.7-.3-3.3-.7-4.9l-3 .9v-.3c-.1-.3-.1-.5-.2-.8l-.1-.3 2.9-.8c-.5-1.5-1.1-3-1.9-4.5l-2.5 1.5-.2-.3c-.1-.2-.3-.5-.4-.7l-.2-.3L55 24c-.9-1.4-1.8-2.7-2.9-3.8l-2 2.1-.3-.3-.6-.6-.2-.2 2-2c-1.2-1.1-2.4-2.1-3.8-2.9l-1.4 2.5-.3-.2c-.2-.1-.5-.3-.7-.4l-.1-.2 1.4-2.5c-1.4-.7-2.8-1.4-4.4-1.8l-.7 2.8-.3-.1c-.3-.1-.5-.1-.8-.2l-.3-.1.7-2.7c-1.5-.4-3.1-.6-4.7-.6v2.8h-1.5v-2.8c-1.6 0-3.1.3-4.7.6l.7 2.7-.3.1c-.3.1-.5.1-.8.2v.1l-.7-2.7c-1.5.5-3 1.1-4.4 1.8l1.4 2.5-.3.1c-.2.1-.5.3-.7.4l-.3.2-1.4-2.5c-1.3.8-2.6 1.8-3.8 2.9l2 2.1-.2.2-.6.6v.2l-2-2.1c-1.1 1.2-2.1 2.4-2.9 3.8l2.6 1.5-.2.3c-.1.2-.3.5-.4.7l-.1.3-2.6-1.5c-.8 1.4-1.4 2.9-1.9 4.5l2.9.8-.1.3c-.1.3-.1.5-.2.8l-.1.2-3-.8c-.4 1.6-.6 3.2-.7 4.9h3.1v1.5H9.9V37c0-13.9 10.7-25.2 24.3-25.7h1.5c13.4.4 24.4 11.9 24.4 25.7v.3h-4.5zm.6-.6h3.3C59.3 23.4 48.7 12.3 35.6 12h-1.4c-13.2.4-23.5 11.3-23.7 24.7h3.4v-.2h-3.2v-.3c.1-1.9.3-3.8.8-5.6l.1-.3 3 .8c0-.1 0-.1.1-.2l-3-.8.1-.3c.5-1.8 1.3-3.5 2.2-5.2l.2-.3 2.6 1.5c0-.1.1-.1.1-.2l-2.6-1.5.2-.3c1-1.6 2.1-3.1 3.4-4.4l.2-.2 2 2.1.1-.1-2-2.1.2-.2c1.3-1.3 2.8-2.4 4.4-3.4l.3-.2 1.4 2.5c.1 0 .1-.1.2-.1l-1.4-2.5.3-.1c1.6-.9 3.3-1.6 5-2.1l.3-.1.7 2.7c.1 0 .1 0 .2-.1l-.9-2.5.3-.1c1.8-.4 3.6-.7 5.4-.7h.3V15h.2v-2.8h.3c1.8 0 3.6.3 5.4.7l.3.1-.7 2.7c.1 0 .1 0 .2.1l.7-2.7.3.1c1.8.5 3.5 1.2 5 2.1l.3.1-1.4 2.5c.1 0 .1.1.2.1l1.4-2.5.3.2c1.6.9 3 2.1 4.4 3.4l.2.2-2 2.1.1.1 2-2.1.2.2c1.3 1.3 2.4 2.8 3.4 4.4l.2.3-2.5 1.5c0 .1.1.1.1.2l2.5-1.5.2.3c.9 1.6 1.7 3.4 2.2 5.2l.1.3-2.9.8c0 .1 0 .1.1.2l2.9-.8.1.3c.5 1.8.7 3.7.8 5.6v.3h-3.1c-.2-.1-.2-.1-.2 0z"/><path class="st0" d="M32.5 24.5c-.3 0-.5.1-.6.3l-1.1 1.4v-4.9c0-.5-.4-1-.9-1s-.9.4-.9 1v4.9l-1-1.4c-.2-.2-.4-.3-.6-.3-.5 0-.9.4-.9 1v.1c0 .2.1.4.2.6l2.6 3.3c.2.2.4.3.6.3.3 0 .5-.1.6-.3l2.6-3.3c.1-.1.2-.3.2-.6v-.2c0-.5-.4-.9-.8-.9m4.7 1.3c.3 0 .5-.1.6-.3l1.1-1.4V29c0 .5.4 1 .9 1s.9-.4.9-1v-4.9l1.1 1.4c.2.2.4.3.6.3.5 0 .9-.4.9-1v-.1c0-.2-.1-.4-.2-.6l-2.6-3.3c-.2-.2-.4-.3-.6-.3-.3 0-.5.1-.6.3l-2.6 3.3c-.1.1-.2.3-.2.6v.2c-.1.5.2.9.7.9"/><path class="st0" d="M14.1 37.1l.1-.8-1.8-.1h-.9l-.2-.5V35l.1-1.1.5-2.9.2-.4 2.3.8h.6l.1-.8-2-.5-.8-.2s.7-2.2.8-2.4c0-.2 1.2-2.6 1.2-2.6l1.2.4 1.2.8.5-.3.1-.5-2.7-1.3 2.3-3.2 1-1 2 2 .6-.6-2-2 2-1.7 2.2-1.6 1.5 2.5.7-.5-1.3-2.4 2.7-1.3 1.7-.6.4-.1.7 2.6.9-.3-.8-2.6 2-.5 3.2-.2.1 2.8h.8v-2.8h1.1l4 .6-.3 1.6L40 16s.8.3.8.2l.8-2.7 2.7 1 2.1 1.1-1.3 2.5.7.5s1.4-2.5 1.4-2.4c0 0 1.4.8 1.4.9l2.9 2.4-1.2 1.5-.5.5.4.6 2-1.9 1.1 1 1.8 2.6.3.5-.7.5s-1.8 1.1-1.7 1.1l.4.5 2.5-1.4 2.1 4.6v.4l-2.8.8.2.8 2.8-.7s.6 2.6.7 2.7.1 1.4.1 1.4v1.2l-3.1.1v.7h3.8l.1-1.2-.6-3.8-.7-3-1.6-3.6-.9-1.9-2.4-3-2.1-2.3-3.3-2.5-4.5-2.2-2.8-.9-5.2-.9s-4.4.4-4.5.4l-5.4 1.4-3.4 1.7s-5.3 4.2-5.3 4.3l-3.8 5-2.3 5.8-.9 6.4s.6.2.7.2 3.3.2 3.3.2z"/></svg>