<svg xmlns="http://www.w3.org/2000/svg" viewBox="0 0 70 50"><path d="M12.4 19.3l-2.2-2.2c-.3-.3-.3-1 .2-1.5s1.1-.6 1.5-.2l2.2 2.2-1.7 1.7zm6-5.9l-2.2-2.2c-.3-.3-1-.3-1.5.2s-.6 1.1-.2 1.5l2.2 2.2 1.7-1.7zm4.2-4.3L20.5 7c-.3-.3-1-.3-1.5.2s-.6 1.1-.2 1.5l2.2 2.2 1.6-1.8zm-1.7 30.1l-2.2 2.2c-.3.3-.3 1 .2 1.5s1.1.6 1.5.2l2.2-2.2-1.7-1.7zm-4.2-4.3l-2.2 2.2c-.3.3-.3 1 .2 1.5s1.1.6 1.5.2l2.2-2.2-1.7-1.7zm-4.3-4.2l-2.2 2.2c-.3.3-.3 1 .2 1.5s1.1.6 1.5.2l2.2-2.2-1.7-1.7zm45.2-11.4l2.2-2.2c.3-.3.3-1-.2-1.5s-1.1-.6-1.5-.2l-2.2 2.2 1.7 1.7zm-4.3-4.2l2.2-2.2c.3-.3.3-1-.2-1.5s-1.1-.6-1.5-.2l-2.2 2.2 1.7 1.7zm-4.2-4.3l2.2-2.2c.3-.3.3-1-.2-1.5s-1.1-.6-1.5-.2l-2.2 2.2 1.7 1.7zm-1.7 30.1l2.2 2.2c.3.3 1 .3 1.5-.2s.6-1.1.2-1.5l-2.2-2.2-1.7 1.7zm4.3-4.3l2.2 2.2c.3.3 1 .3 1.5-.2s.6-1.1.2-1.5l-2.2-2.2-1.7 1.7zm4.2-4.2l2.2 2.2c.3.3 1 .3 1.5-.2s.6-1.1.2-1.5l-2.2-2.2-1.7 1.7zM35.8 21.3c-.2-.3-.5-.3-.7-.3h-.6c-.2 0-.2.1-.2.3V29h.8s0 0 0 0c.3 0 .4 0 .6-.3l2-3.3c.1-.2.2-.4 0-.7l-1.9-3.4zM60.3 25c0 .6-.2 1.2-.7 1.6L43.3 42.9c-.4.4-1 .7-1.6.7-.6 0-1.1-.2-1.6-.7L35 37.8l-5.1 5.1c-.4.4-1 .7-1.6.7-.6 0-1.1-.2-1.6-.7L10.3 26.6c-.4-.4-.7-1-.7-1.6 0-.6.2-1.2.7-1.6L26.7 7c.8-.8 2.3-.8 3.1 0l5.1 5.1L40.1 7c.8-.8 2.3-.8 3.1 0l16.4 16.4c.5.4.7 1 .7 1.6zm-28.4 9.7l-8.1-8.1c-.9-.9-.9-2.3 0-3.1l8.1-8.1-3.6-3.6L15.1 25l13.2 13.2 3.6-3.5zm7.3-5.2c.8-.6 1.8-2.8 2.2-3.7.2-.5.2-1.1 0-1.6-.6-1.4-1.5-3-2.1-3.7-.9-.8-1.7-.9-3-.9h-5.8c-.2 0-.5.1-.6.2l-.4.8c-.1.4.3.4.3.4h.6c.2 0 .2.1.2.3v7.1c0 .3-.4.5-.7.6-.1 0-.3.1-.4.2l-.4.8c-.1.2.1.3.2.3h6.5c1 0 2.3.1 3.4-.8zM54.9 25L41.7 11.7l-3.6 3.6 8.1 8.1c.4.4.7 1 .7 1.6 0 .6-.2 1.2-.7 1.6l-8.1 8.1 3.6 3.6L54.9 25z" fill="none" stroke="#040000" stroke-width=".698" stroke-miterlimit="10"/></svg>