<svg xmlns="http://www.w3.org/2000/svg" viewBox="0 0 70 50"><path d="M54 25v10.4c0 .4-.1.5-.4.7-6.1 3.5-12.1 7-18.2 10.5-.3.2-.5.2-.7 0-6.1-3.5-12.1-7-18.2-10.5-.4-.1-.5-.2-.5-.6v-21c0-.3.1-.5.4-.6 6-3.5 12-6.9 18-10.4.4-.2.7-.2 1.1 0 5.7 3.3 11.4 6.6 17.2 9.9.9.5 1.3 1 1.2 2.1 0 3.2.1 6.4.1 9.5zm-30.7-1.3c3.4-6 6.8-11.9 10.3-17.8-5.2 3-10.3 6-15.5 8.9 1.8 3.1 3.5 6 5.2 8.9zm28.6-8.8c-5.2-3-10.3-6-15.5-8.9 3.4 5.9 6.8 11.8 10.3 17.8 1.7-3 3.4-6 5.2-8.9zm-5.2 11.8c-3.5 5.9-6.9 11.7-10.3 17.5 5.1-2.9 10.2-5.9 15.3-8.8-1.7-2.9-3.4-5.8-5-8.7zm-28.3 8.6c5.1 3 10.2 5.9 15.3 8.8-3.4-5.8-6.8-11.6-10.3-17.5-1.7 3-3.4 5.9-5 8.7zm27-10.9C42.2 19 39.1 13.6 36 8.2v16.3h9.4zm-11.4 0V8.1c-3.2 5.5-6.3 10.9-9.4 16.3H34zm2 1.6v15.9c3.1-5.3 6.2-10.5 9.4-15.9H36zm-11.3 0c3.1 5.3 6.2 10.5 9.3 15.8V26h-9.3zm-6.9-8.7v7.2H22l-4.2-7.2zM48 24.5h4.2v-7.2L48 24.5zm0 1.5c1.4 2.5 2.8 4.8 4.2 7.3V26H48zm-30.2 0v7.3c1.4-2.5 2.8-4.9 4.2-7.3h-4.2z"/><circle cx="46.7" cy="25" r="2.5"/><circle cx="23.3" cy="25" r="2.5"/><circle cx="52.7" cy="15.4" r="2.5"/><circle cx="17.3" cy="15.4" r="2.5"/><circle cx="35" cy="5.2" r="2.5"/><circle cx="35" cy="44.8" r="2.5"/><circle cx="17.3" cy="34.8" r="2.5"/><circle cx="52.7" cy="34.8" r="2.5"/></svg>