<svg xmlns="http://www.w3.org/2000/svg" xmlns:xlink="http://www.w3.org/1999/xlink" viewBox="0 0 70 50"><defs><path id="a" d="M17.7 3l33.9.9.7 43.1-33.9-.2z"/></defs><clipPath id="b"><use xlink:href="#a" overflow="visible"/></clipPath><path d="M50 10.5c-9.8 0-14.2-5.1-14.3-5.1-.3-.3-.8-.3-1 0 0 .1-4.4 5.1-14.3 5.1-.4 0-.7.3-.7.7V24c0 7 3.2 13.7 8.4 17.8 2.1 1.7 4.4 2.9 6.8 3.6h.4c2.4-.7 4.7-1.9 6.8-3.6 5.3-4.2 8.4-10.8 8.4-17.8V11.1c.2-.3-.1-.6-.5-.6zM49.3 24c0 6.6-3 12.9-7.9 16.8-1.9 1.5-4 2.6-6.2 3.3-2.2-.7-4.3-1.8-6.2-3.3-5-3.9-7.9-10.2-7.9-16.8V11.8c8.2-.2 12.7-3.7 14.1-5.1 1.4 1.4 5.9 4.9 14.1 5.1V24zm0 0" clip-path="url(#b)"/><path d="M31 33.7h11.3c.4 0 .6-.1.6-.5V20.5c0-.2-.1-.3-.2-.4-.8-.7-1.7-1.5-2.5-2.2-.3-.3-.4-.4-.7-.6m-1.8-1.7c-.9-.8-1.5-1.4-2.4-2.1l-.1.1c-2.5 2.2-4.9 4.4-7.4 6.6-.1.1-.1.2-.1.3v4.1" fill="none" stroke="#040000" stroke-width=".493" stroke-linecap="round" stroke-linejoin="round" stroke-miterlimit="10"/><path d="M27.7 26.5v6.8c0 .4.1.5.5.5h3.3" fill="none" stroke="#000" stroke-width=".493" stroke-linecap="round" stroke-linejoin="round" stroke-miterlimit="10"/></svg>