<svg version="1.1" id="圖層_1" xmlns="http://www.w3.org/2000/svg" x="0" y="0" viewBox="0 0 479.9 624.6" xml:space="preserve"><style>.st0{fill:none;stroke:#00a89c;stroke-width:23;stroke-linecap:round;stroke-linejoin:round;stroke-miterlimit:10}</style><path class="st0" d="M239.9 610.6s-.2 0-.5-.1c-35.7-10.7-69.8-28.6-101.4-53.4C59.5 495.3 12.5 396 12.5 291.5V95.1c0-.3.1-.5.3-.7.2-.2.4-.3.7-.3 80.5 0 137-21.8 170.3-40.1 37.1-20.4 54.7-41.2 55.3-41.9l-.1.1c.1 0 .4-.2 1-.2.4 0 .6.1.6.2l.2.3c3.3 3.7 21.6 23.2 56.9 42.3 47.7 25.8 105.9 39.4 168.4 39.4.6 0 1.1.5 1.1 1.1v196.3c0 104.5-46.9 203.8-125.6 265.6C310 582 276 600 240.3 610.6h-.4z"/><path class="st0" d="M306.5 188.5c2 1.8 3.5 3.2 5 4.5l.4.3c1.6 1.4 3.3 2.9 5.4 4.8l9.5 8.5c9.4 8.5 19.2 17.2 28.9 25.8l.2.2c1.9 1.6 2.7 3.5 2.7 6.1-.1 62.2 0 124.4 0 184.7v3.3c0 2.4-.1 4.4-.4 6.3-.4 2.6-1 4.5-2.1 5.9L355 440c-1.6 1.3-3.9 1.9-7 1.9l-165 .1-.9.1H132c-5.6-.1-6.9-2-6.9-2-1.3-1.4-1.9-3.5-1.9-6.7V329.9m.1-29.8v-62.6c0-1.8 1-4.1 2.3-5.3 38-34 76-67.9 112.7-100.8.2-.2.4-.3.6-.5l.4-.3.4-.3c.2-.2.6-.3 1-.3.2 0 .5.1.6.1 6.6 5.9 12.6 11.2 18.6 16.6l.6.6c5.5 4.8 11.1 9.9 17.3 15.4"/></svg>