<svg version="1.1" id="圖層_1" xmlns="http://www.w3.org/2000/svg" x="0" y="0" viewBox="0 0 479.9 624.6" xml:space="preserve"><style>.st0{fill:#00a89c}</style><path class="st0" d="M467.8 82.7c-61.1 0-117.9-13.2-164.3-38.3-34.7-18.7-52.4-38.1-54.3-40.2C247 1.5 243.6 0 240 0c-3.8.1-7.1 1.5-9.3 4.2-.7.7-66.6 78.5-218.6 78.5H12c-3.2 0-6.2 1.3-8.5 3.5C1.2 88.5 0 91.5 0 94.7v197.7c0 108.5 48.8 211.7 130.6 276 33 25.9 68.6 44.6 106 55.7 1.2.3 2.3.5 3.3.5 1.1 0 2.2-.2 3.5-.5 37.3-11.1 72.9-29.9 105.9-55.7 81.8-64.3 130.6-167.5 130.6-276V94.7c0-6.6-5.5-12-12.1-12M455.3 107v185.4c0 101-45.3 197-121.2 256.6-29.4 23.2-61.2 40.1-94.3 50.4-33.1-10.3-64.8-27.3-94.2-50.4C69.8 489.5 24.5 393.5 24.5 292.4V107c122.9-3.1 190.8-54.2 215.4-77.3 24.6 23.1 92.5 74.1 215.4 77.3"/><path class="st0" d="M303.9 203.3c1.6 1.4 3.2 2.8 5.4 4.8l9.1 8.2c9.3 8.4 18.7 16.7 28.2 25.2v187.1c0 .9 0 1.7-.1 2.4H174.4c-.6 0-1.1.1-1.6.1h-37.3V331c0-6.6-5.4-11.9-12-11.9s-12 5.4-12 11.9v104.2c0 12.6 7.2 19.7 19.8 19.7h50.5c.6 0 1.1-.1 1.7-.1l165.3-.1c12 0 19.5-6.6 21.2-18.5.3-2.4.5-5 .5-7.9V425c0-62-.1-123.9 0-185.9 0-5.9-2.3-10.9-6.7-14.5-9.9-8.7-19.7-17.5-29.5-26.3l-9.1-8.1c-2.2-2-3.9-3.5-5.6-5-1.6-1.4-3.2-2.8-5.3-4.7-4.9-4.4-12.4-4.1-16.9.8-4.4 4.9-4.1 12.4.8 16.9 2.3 2.1 4 3.6 5.7 5.1"/><path class="st0" d="M123.4 313c6.6 0 12-5.4 12-11.9v-60.5c35-31.3 70-62.6 105.1-93.9 3.8 3.3 7.4 6.5 11 9.7 5.8 5.1 11.6 10.3 18 16 4.9 4.4 12.5 4 16.9-.9 4.4-4.9 4-12.5-.9-16.9-6.4-5.8-12.3-10.9-18.1-16.1-6-5.3-12-10.6-18.7-16.6-4.5-4-11.5-3.9-16 0-.4.3-.7.5-1.1.8-.2.1-.3.3-.5.4-37.9 33.8-75.7 67.6-113.6 101.5-3.6 3.3-5.9 8.6-5.9 13.4v63.1c-.1 6.6 5.2 11.9 11.8 11.9"/></svg>