<svg version="1.1" id="圖層_1" xmlns="http://www.w3.org/2000/svg" x="0" y="0" viewBox="0 0 100 100" xml:space="preserve"><style>.st0{fill:#fff}</style><path class="st0" d="M72.4 85.1H18.8c-3.1 0-5.7-2.6-5.7-5.7V28.6c0-3.1 2.6-5.7 5.7-5.7h62.5c3.1 0 5.7 2.6 5.7 5.7v39.5L85.4 67c-.4-.3-.9-.6-1.4-.9l-.6-.3V35.6H16.6v43.8c0 1.2 1 2.1 2.1 2.1h50.7l.3.5c.3.5.7 1 1.1 1.4l1.6 1.7zm-55.8-53h66.8v-3.5c0-1.2-1-2.1-2.1-2.1H18.8c-1.2 0-2.1 1-2.1 2.1v3.5z"/><path class="st0" d="M79 90c-7.7 0-14-6.3-14-14s6.3-14 14-14 14 6.3 14 14-6.3 14-14 14zm0-24c-5.5 0-10 4.5-10 10s4.5 10 10 10 10-4.5 10-10-4.5-10-10-10z"/><circle class="st0" cx="27.7" cy="29.4" r=".4"/><circle class="st0" cx="23.4" cy="29.4" r=".4"/><circle class="st0" cx="19.2" cy="29.4" r=".4"/><circle class="st0" cx="27.7" cy="29.4" r="1.2"/><circle class="st0" cx="23.4" cy="29.4" r="1.2"/><circle class="st0" cx="19.2" cy="29.4" r="1.2"/><path transform="rotate(-52.141 80 76.001)" class="st0" d="M68.6 74h22.8v4H68.6z"/></svg>