<svg version="1.1" id="圖層_1" xmlns="http://www.w3.org/2000/svg" x="0" y="0" viewBox="0 0 100 100" xml:space="preserve"><style>.st0{fill:#fff}</style><path class="st0" d="M80.7 17.3H19.9c-1 0-1.8.8-1.8 1.8v67c0 1 .8 1.8 1.8 1.8h60.7c1 0 1.8-.8 1.8-1.8v-67c.1-1-.7-1.8-1.7-1.8zm-1.9 66.5h-.4v.5H21.7V20.9h57.1v62.9z"/><path class="st0" d="M44.7 31.4c-.1-.5-.3-.9-.7-1.2-.4-.3-.9-.4-1.4-.4-.5.1-.9.3-1.2.7l-5.9 7.8-2.8-3.7c-.4-.5-.9-.7-1.4-.7-.4 0-.8.1-1.1.4-.8.6-.9 1.7-.3 2.5l4.4 5.6c.3.4.8.7 1.4.7.4 0 1-.1 1.4-.7l7.3-9.7c.2-.3.3-.8.3-1.3zm24.5 3.3H48.9c-1 0-1.8.8-1.8 1.8s.8 1.8 1.8 1.8h20.3c1 0 1.8-.8 1.8-1.8s-.8-1.8-1.8-1.8zM44.7 63.9c-.1-.5-.3-.9-.7-1.2-.4-.3-.9-.4-1.4-.4-.5.1-.9.3-1.2.7l-5.7 7.8-2.8-3.7c-.4-.5-.9-.7-1.4-.7-.4 0-.8.1-1.1.4-.8.6-.9 1.7-.3 2.5l4.2 5.6c.3.4.8.7 1.4.7.4 0 1-.1 1.4-.7l7.3-9.7c.2-.3.3-.8.3-1.3zm24.5 4.7H48.9c-1 0-1.8.8-1.8 1.8s.8 1.8 1.8 1.8h20.3c1 0 1.8-.8 1.8-1.8s-.8-1.8-1.8-1.8zm0-17.3H48.9c-1 0-1.8.8-1.8 1.8s.8 1.8 1.8 1.8h20.3c1 0 1.8-.8 1.8-1.8s-.8-1.8-1.8-1.8zm-28.3-2.6c-.6-.6-1.5-.6-2.1 0L36.4 51l-2.3-2.3c-.6-.6-1.5-.6-2.1 0-.6.6-.6 1.5 0 2.1l2.3 2.3-2.3 2.3c-.6.6-.6 1.5 0 2.1.6.6 1.5.6 2.1 0l2.3-2.3 2.3 2.3c.6.6 1.5.6 2.1 0 .6-.6.6-1.5 0-2.1l-2.3-2.3 2.3-2.3c.7-.6.7-1.5.1-2.1z"/></svg>