<svg version="1.1" id="圖層_1" xmlns="http://www.w3.org/2000/svg" x="0" y="0" viewBox="0 0 100 100" xml:space="preserve"><style>.st0{fill:#fff}</style><path class="st0" d="M68 85c-4.5 0-8.8-1.8-12-5-3.2-3.2-5-7.5-5-12s1.8-8.8 5-12c3.2-3.2 7.5-5 12-5s8.8 1.8 12 5c3.2 3.2 5 7.5 5 12s-1.8 8.8-5 12c-3.2 3.2-7.5 5-12 5zm-45-7.6c-1.1 0-2-.9-2-2V43h56.4v6.2c-5.3-2.7-11.4-3-17-.8-5.5 2.1-9.9 6.5-12 12-2.1 5.5-1.8 11.7.8 17H23zm0-50.1h6.2v4.3c0 1.1.9 2 2 2s2-.9 2-2v-4.3h31.6v4.3c0 1.1.9 2 2 2s2-.9 2-2v-4.3h6.6c.5 0 1 .2 1.4.6.4.4.6.9.6 1.4V39H21v-9.7c0-1.1.9-2 2-2zm58.4 24.5V29.3c0-1.6-.6-3.1-1.8-4.2-1.1-1.1-2.7-1.8-4.2-1.8h-6.6V19c0-1.1-.9-2-2-2s-2 .9-2 2v4.3H33.2V19c0-1.1-.9-2-2-2s-2 .9-2 2v4.3H23c-3.3 0-6 2.7-6 6v46c0 3.3 2.7 6 6 6h28.8c3.8 4.6 9.3 7.3 15.2 7.6 5.9.3 11.7-1.9 15.8-6.1C87 78.7 89.3 72.9 89 67c-.3-5.9-3.1-11.4-7.6-15.2z"/><path class="st0" d="M66.2 75.1l-5.5-4.9c-.4-.4-.9-.6-1.5-.6-.5 0-1.1.3-1.4.7s-.5.9-.5 1.5c0 .5.3 1 .7 1.4l7.2 6.4c.4.4 1 .6 1.6.6.6-.1 1.1-.4 1.5-.9L78.6 63c.3-.4.4-1 .3-1.5-.1-.5-.4-1-.9-1.3-.5-.3-1-.4-1.6-.2-.5.1-1 .5-1.3 1l-8.9 14.1z"/></svg>