<svg version="1.1" id="圖層_1" xmlns="http://www.w3.org/2000/svg" x="0" y="0" viewBox="0 0 100 100" xml:space="preserve"><style>.st0{fill:#fff}</style><path class="st0" d="M72.3 13.7H27.7c-2.3 0-4.2 1.9-4.2 4.2v64.2c0 2.3 1.9 4.2 4.2 4.2h44.5c2.3 0 4.2-1.9 4.2-4.2V17.9c.1-2.3-1.8-4.2-4.1-4.2zm.6 68.4c0 .4-.3.7-.7.7H27.7c-.4 0-.7-.3-.7-.7V17.9c0-.4.3-.7.7-.7h44.5c.4 0 .7.3.7.7v64.2z"/><path class="st0" d="M42.9 47.2h14.2c.7 0 1.3-.6 1.3-1.3v-.2c-.1-4.5-3.8-8.1-8.4-8.1-4.6 0-8.4 3.8-8.4 8.4 0 .6.6 1.2 1.3 1.2zm7.1-7.1c2.8 0 5.1 1.9 5.7 4.5H44.4c.5-2.6 2.8-4.5 5.6-4.5zm0-3.7c2.4 0 4.3-1.9 4.3-4.3s-1.9-4.3-4.3-4.3-4.3 1.9-4.3 4.3 2 4.3 4.3 4.3zm0-6c.9 0 1.7.8 1.7 1.7 0 .9-.8 1.7-1.7 1.7-.9 0-1.7-.8-1.7-1.7 0-.9.8-1.7 1.7-1.7z"/><path class="st0" d="M50 55.5c9.2 0 16.7-7.5 16.7-16.7S59.2 22.1 50 22.1s-16.7 7.5-16.7 16.7S40.8 55.5 50 55.5zM36.9 38.8c0-7.2 5.9-13.1 13.1-13.1s13.1 5.9 13.1 13.1c0 7.2-5.9 13.1-13.1 13.1S36.9 46 36.9 38.8zm29.6 22.7H32.9c-1 0-1.8.8-1.8 1.8s.8 1.8 1.8 1.8h33.6c1 0 1.8-.8 1.8-1.8s-.8-1.8-1.8-1.8zm0 6.6H32.9c-1 0-1.8.8-1.8 1.8s.8 1.8 1.8 1.8h33.6c1 0 1.8-.8 1.8-1.8s-.8-1.8-1.8-1.8zM59 74.8H32.9c-1 0-1.8.8-1.8 1.8s.8 1.8 1.8 1.8H59c1 0 1.8-.8 1.8-1.8s-.8-1.8-1.8-1.8z"/></svg>