<svg xmlns="http://www.w3.org/2000/svg" viewBox="0 0 100 100"><path d="M68.2 49.8c-.1-5.1-.7-10.1-1.9-15l.6-.1.4-.1c.9-.2 1.8-.5 2.7-.8l.3-.1c.9-.3 1.8-.6 2.6-1h.1c.8-.4 1.7-.7 2.5-1.1h.1c4 5.3 6.3 11.7 6.6 18.3l-14-.1zm-3 21.1l1 .2 1.2.3c.6.2 1.1.4 1.7.6l1.1.4c.6.2 1.1.4 1.7.7l.9.4.2.1c-3.7 3.8-8.3 6.6-13.4 8.2 2.5-3.3 4.4-7 5.6-10.9zm-37.9 2.5l.9-.4c.5-.2 1.1-.5 1.7-.7l1.1-.4c.6-.2 1.1-.4 1.7-.6l1.2-.3.9-.2c1.2 3.9 3.1 7.6 5.6 10.8-5-1.6-9.6-4.3-13.3-8.1l.2-.1zm7.4-42.2l-.9-.2-1.2-.3c-.6-.2-1.1-.4-1.7-.5l-1.1-.4c-.6-.2-1.1-.4-1.6-.7l-.9-.4-.1-.1c3.7-3.8 8.2-6.5 13.2-8.1-2.6 3.1-4.5 6.8-5.7 10.7zm16.5 18.6v-13h2.2c1.1 0 2.2-.1 3.3-.2h.5c1-.1 2-.2 3-.4l.5-.1 1.9-.3c1.1 4.6 1.7 9.3 1.8 14.1l-13.2-.1zm9.5 16.3l-.5-.1c-1-.1-2-.3-3-.4h-.4c-1.1-.1-2.1-.2-3.2-.2h-2.4V53.5h13.2c-.1 4.4-.7 8.7-1.8 12.9l-1.9-.3zm-9.5 3h1.9l1.2.1c.8 0 1.6.1 2.3.2l1.3.1c.7.1 1.4.2 2 .3l1.2.2H61c-2.3 6.8-5 11.6-10 12.8l.2-13.7zm-12.5.9l1.2-.2c.6-.1 1.3-.2 2-.3l1.2-.1c.7-.1 1.5-.1 2.2-.2.4 0 .4 0 .8-.1s1.2 0 1.2 0v13.8c-3.8-1.2-7.1-6-9.4-12.8l.8-.1zm8.7-16.5v11.8h-1.5c-.4 0-.6.1-1.1.1-.8 0-1.6.1-2.3.2l-1.3.2-2.1.3-1.4.3h-.3c-1.1-4.2-1.7-8.5-1.8-12.9h11.8zm-9.8-17.8l1.5.3 2.1.3 1.4.2c.8.1 1.6.1 2.4.2.4 0 .5.1.9.1h1.5v13.1h-12c.1-4.8.7-9.5 1.8-14.2h.4zm9.8-2.7h-1.2l-.9-.1c-.8 0-1.4-.1-2.2-.2l-1.2-.1-1.9-.3-1.2-.2h-.6c2.2-6.9 5.6-11.7 9.3-12.8L47.4 33zm13.9-1l-1.2.2c-.6.1-1.3.2-2 .3l-1.2.1c-.7.1-1.5.1-2.2.2l-1.4.1h-1.9V19.2c4.9 1.2 7.6 6 9.9 12.8-.1 0 .1 0 0 0zm11.3-3.4l-.9.4c-.6.2-1.1.5-1.7.7l-1 .4c-.6.2-1.1.4-1.7.6l-1.2.3-1 .2c-1.2-3.9-3.1-7.6-5.7-10.8 5.1 1.6 9.8 4.4 13.5 8.2h-.3zm-47.5 3.2l1.2.6c.5.2 1 .4 1.6.6l1.2.5c.6.2 1.1.4 1.7.6l1.4.4 1.2.3c-1.2 4.9-1.8 9.9-1.9 15H17.9c.3-6.6 2.6-13 6.6-18.3l.6.3zm1.3 37.9l-1.2.6-.7.3c-3.7-4.9-6-10.8-6.4-17h13.8c.1 4.6.8 9.2 1.9 13.8l-1.2.3-1.6.3c-.6.2-1.1.4-1.7.6l-1.3.5c-.5.2-1.1.4-1.6.6zm48.9.9c-.8-.4-1.6-.8-2.5-1.1h-.1c-.9-.4-1.7-.7-2.6-1l-.2-.1c-.9-.3-1.8-.6-2.7-.8l-.4-.1-.6-.1c1.1-4.5 1.7-9.1 1.9-13.7H82c-.5 6.2-2.8 12.1-6.6 17.1l-.1-.2zm3.4-41l-1.4-1.7-1-1.2C69.5 19.3 60 15.1 50.1 15.1h-.2c-10 .1-19.4 4.3-26.2 11.6l-1 1.2-1.5 1.7h.1c-4.6 6.2-7.1 13.6-7.1 21.3 0 7.7 2.5 15.2 7.1 21.3h-.1l1.5 1.7 1 1.2c6.7 7.3 16.2 11.5 26.2 11.6h.1c10 0 19.5-4.2 26.3-11.5l1-1.2 1.5-1.7h-.1c4.6-6.2 7.1-13.7 7.1-21.4s-2.5-15.1-7.1-21.3z" fill="#fff"/></svg>