<svg xmlns="http://www.w3.org/2000/svg" viewBox="0 0 521.8 162"><path d="M521.3 141.6c0 11-9 20-20 20H20.6c-11 0-20-9-20-20V20.5c0-11 9-20 20-20h480.8c11 0 20 9 20 20v121.1z" fill="none" stroke="#fff" stroke-miterlimit="10"/><path d="M167.3 114.4l-.2-2.8c-3.6 2.9-7.4 4.3-11.3 4.3-2.9 0-5.2-.8-6.9-2.5-1.7-1.7-2.5-3.9-2.5-6.6 0-3 1-5.5 3.1-7.2 2.1-1.8 4.9-2.6 8.5-2.6 2.8 0 5.8.5 9 1.4v-5.3c0-2.5-.6-4.4-1.8-5.5-1.2-1.1-3.2-1.7-6-1.7-3 0-6.2.5-9.6 1.6-.6.2-1.1-.2-1.1-.8v-1.2c0-.3.2-.7.5-.8 1.5-.6 3.1-1.1 4.9-1.5 2-.4 4-.6 5.9-.6 3.7 0 6.4.8 8.2 2.3 1.8 1.5 2.7 3.9 2.7 7v22.3c0 .5-.4.9-.9.9h-1.5c-.6.1-1-.3-1-.7zm-11.1-1.8c1.6 0 3.3-.3 5.1-1 1.8-.6 3.7-1.6 5.6-2.7v-7.8c-2.8-.8-5.5-1.1-8.1-1.1-5.9 0-8.8 2.3-8.8 6.8 0 1.9.5 3.4 1.6 4.4 1 .9 2.6 1.4 4.6 1.4zm65.1 2.6c-.5 0-.9-.4-.9-.9V93.7c0-2.7-.5-4.7-1.4-5.9-1-1.2-2.5-1.8-4.6-1.8-4 0-7.8 1.3-11.3 3.9.1 1 .2 2 .2 2.9v21.5c0 .5-.4.9-.9.9h-1.9c-.5 0-.9-.4-.9-.9V93.7c0-2.7-.5-4.7-1.4-5.9-1-1.2-2.5-1.8-4.6-1.8-3.9 0-7.6 1.3-11.2 3.8v24.5c0 .5-.4.9-.9.9h-1.9c-.5 0-.9-.4-.9-.9V84.5c0-.5.4-.9.9-.9h1.5c.4 0 .8.3.9.8l.3 2.7c1.9-1.4 3.9-2.5 5.9-3.3 2.1-.8 4.1-1.1 6-1.1 3.9 0 6.6 1.6 7.9 4.8 2-1.5 4.1-2.7 6.3-3.6 2.2-.8 4.4-1.3 6.6-1.3 2.9 0 5.1.8 6.6 2.4 1.5 1.6 2.3 4 2.3 7.1v22.1c0 .5-.4.9-.9.9h-1.7zm30-.8l-.2-2.8c-3.6 2.9-7.4 4.3-11.3 4.3-2.9 0-5.2-.8-6.9-2.5-1.7-1.7-2.5-3.9-2.5-6.6 0-3 1-5.5 3.1-7.2 2.1-1.8 4.9-2.6 8.5-2.6 2.8 0 5.8.5 9 1.4v-5.3c0-2.5-.6-4.4-1.8-5.5-1.2-1.1-3.2-1.7-6-1.7-3 0-6.2.5-9.6 1.6-.6.2-1.1-.2-1.1-.8v-1.2c0-.3.2-.7.5-.8 1.5-.6 3.1-1.1 4.9-1.5 2-.4 4-.6 5.9-.6 3.7 0 6.4.8 8.2 2.3 1.8 1.5 2.7 3.9 2.7 7v22.3c0 .5-.4.9-.9.9h-1.5c-.6.1-.9-.3-1-.7zm-11-1.8c1.6 0 3.3-.3 5.1-1 1.8-.6 3.7-1.6 5.6-2.7v-7.8c-2.8-.8-5.5-1.1-8.1-1.1-5.9 0-8.8 2.3-8.8 6.8 0 1.9.5 3.4 1.6 4.4 1 .9 2.5 1.4 4.6 1.4zm20.3 1.7v-2c0-.2.1-.4.2-.5l19.6-25h-18.3c-.5 0-.9-.4-.9-.9v-1.4c0-.5.4-.9.9-.9h21.5c.5 0 .9.4.9.9v2c0 .2-.1.4-.2.5l-19.7 25h19.2c.5 0 .9.4.9.9v1.4c0 .5-.4.9-.9.9h-22.2c-.6 0-1-.4-1-.9zm42.4 1.8c-4.6 0-8.2-1.5-10.7-4.4-2.5-2.9-3.8-7.1-3.8-12.3 0-5.3 1.3-9.4 3.8-12.3 2.5-2.9 6.1-4.4 10.7-4.4s8.2 1.5 10.7 4.4c2.5 2.9 3.8 7 3.8 12.3 0 5.3-1.3 9.4-3.8 12.3-2.6 3-6.1 4.4-10.7 4.4zm0-3.2c7.2 0 10.8-4.5 10.8-13.5 0-8.9-3.6-13.4-10.8-13.4-7.2 0-10.8 4.5-10.8 13.4-.1 9 3.5 13.5 10.8 13.5zm44.6 2.3c-.5 0-.9-.4-.9-.9V93.7c0-2.7-.5-4.7-1.6-5.9-1-1.2-2.7-1.8-5-1.8-4.2 0-8.3 1.3-12.2 4v24.3c0 .5-.4.9-.9.9h-1.9c-.5 0-.9-.4-.9-.9V84.5c0-.5.4-.9.9-.9h1.5c.4 0 .8.3.9.8l.3 2.9c2-1.5 4.2-2.6 6.5-3.4 2.3-.8 4.5-1.2 6.6-1.2 3 0 5.4.8 7 2.4 1.6 1.6 2.4 4 2.4 7.1v22.1c0 .5-.4.9-.9.9h-1.8zm45.3-.8l-.2-2.9c-3.6 2.9-7.4 4.3-11.3 4.3-2.9 0-5.2-.8-6.9-2.5-1.7-1.7-2.5-3.9-2.5-6.6 0-3 1-5.5 3.1-7.2 2.1-1.8 4.9-2.6 8.5-2.6 2.8 0 5.8.5 9 1.4V93c0-2.5-.6-4.4-1.8-5.5-1.2-1.1-3.2-1.7-6-1.7-3 0-6.2.5-9.6 1.6-.5.2-1.1-.2-1.1-.8v-1.3c0-.3.2-.6.5-.8 1.5-.6 3.1-1.1 4.9-1.5 2-.4 4-.6 5.9-.6 3.7 0 6.4.8 8.2 2.3 1.8 1.5 2.7 3.9 2.7 7V114c0 .5-.4.8-.8.8h-1.6c-.6.4-1 .1-1-.4zm-11.1-1.8c1.6 0 3.3-.3 5.1-1 1.8-.6 3.7-1.6 5.6-2.7v-7.8c-2.8-.8-5.5-1.1-8.1-1.1-5.9 0-8.8 2.3-8.8 6.8 0 1.9.5 3.4 1.6 4.4 1 .9 2.6 1.4 4.6 1.4zm31.2 1.7c0 .4-.3.7-.6.8-.9.2-1.7.3-2.6.3-1.7 0-3-.5-3.9-1.5-.9-1-1.4-2.4-1.4-4.1V69.6c0-.5.4-.8.8-.8h1.9c.5 0 .8.4.8.8v40.1c0 .9.2 1.6.5 1.9.4.4 1 .6 1.9.6.5 0 1 0 1.6-.1.5 0 .9.3.9.8v1.4zm55.9.5l-9.5-13.6-9.3 13.6c-.2.2-.4.4-.7.4h-2c-.7 0-1.1-.8-.7-1.3l10.8-15.1-9.7-13.8c-.4-.5 0-1.3.7-1.3h2.2c.3 0 .5.1.7.3l8.4 12 8.4-12c.2-.2.4-.3.7-.3h1.9c.7 0 1.1.8.7 1.3l-9.7 13.6 10.8 15.4c.4.5 0 1.3-.7 1.3h-2.3c-.3-.1-.5-.2-.7-.5zm27.7-.4l-.2-2.9c-3.6 2.9-7.4 4.3-11.3 4.3-2.9 0-5.2-.8-6.9-2.5-1.7-1.7-2.5-3.9-2.5-6.6 0-3 1-5.5 3.1-7.2 2.1-1.8 4.9-2.6 8.5-2.6 2.8 0 5.8.5 9 1.4V93c0-2.5-.6-4.4-1.8-5.5-1.2-1.1-3.2-1.7-6-1.7-3 0-6.2.5-9.6 1.6-.5.2-1.1-.2-1.1-.8v-1.3c0-.3.2-.6.5-.8 1.5-.6 3.1-1.1 4.9-1.5 2-.4 4-.6 5.9-.6 3.7 0 6.4.8 8.2 2.3 1.8 1.5 2.7 3.9 2.7 7V114c0 .5-.4.8-.8.8h-1.6c-.6.4-1 .1-1-.4zm-11-1.8c1.6 0 3.3-.3 5.1-1 1.8-.6 3.7-1.6 5.6-2.7v-7.8c-2.8-.8-5.5-1.1-8.1-1.1-5.9 0-8.8 2.3-8.8 6.8 0 1.9.5 3.4 1.6 4.4 1 .9 2.5 1.4 4.6 1.4zm-63.5-2.9c-1.6-1.8-2.4-3.9-2.7-7.7 2.1.5 6.4 1.4 9.5 1.4 6.2 0 12.9-1.9 12.9-10.4 0-7.1-4.8-10.4-11.8-10.4-4.6 0-8.1 1.5-10.6 4.4-2.5 2.9-3.8 7-3.8 12.3 0 5.6 1.3 9.7 3.8 12.6 2.5 2.8 6.2 4.2 11.2 4.2 3.8 0 7.1-.7 9.9-2.2.4-.2.7-.6.7-1.1v-1c0-.6-.6-1-1.1-.8-3 1.2-6 1.7-9.2 1.7-4 .2-6.9-.9-8.8-3zm7.6-23.8c4.7 0 8.7 1.8 8.7 7.2 0 5.7-5 7.2-9.8 7.2-3.1 0-7.3-.6-9.3-.9v-.7c.4-8.4 3.9-12.8 10.4-12.8zM147.3 60.8c.9.3 1.8.4 2.6.4.9 0 1.6-.2 2-.7.4-.5.6-1.2.6-2.3V47h2.9v11.2c0 1.8-.4 3.1-1.3 4-.9.9-2.1 1.4-3.8 1.4-1 0-1.9-.2-3-.6v-2.2zM171.1 47h2.9v10.3c0 2-.6 3.6-1.7 4.7s-2.7 1.7-4.9 1.7c-2.1 0-3.7-.6-4.9-1.7-1.1-1.1-1.7-2.7-1.7-4.7V47h2.9v10.5c0 1.2.3 2.2.9 2.8.6.6 1.5 1 2.7 1s2.1-.3 2.7-1c.6-.6.9-1.6.9-2.8V47zm11.6 8.8c-1.3-.5-2.2-1.1-2.8-1.8-.6-.7-.9-1.6-.9-2.6 0-1.5.5-2.6 1.5-3.5 1-.9 2.4-1.3 4.1-1.3 1.4 0 2.9.3 4.4.8v2.3c-1.5-.5-2.9-.7-4.1-.7-2 0-3.1.7-3.1 2.1 0 .5.2 1 .6 1.3.4.3 1 .7 2 1l2 .7c1.3.5 2.2 1.1 2.8 1.8s.9 1.6.9 2.6c0 1.6-.6 2.8-1.7 3.7-1.1.9-2.6 1.3-4.6 1.3-.8 0-1.7-.1-2.5-.2-.8-.2-1.6-.4-2.2-.7v-2.3c.8.2 1.5.4 2.4.6.8.1 1.6.2 2.2.2 1.1 0 1.9-.2 2.5-.6.6-.4.9-1 .9-1.7 0-.5-.2-1-.5-1.3-.4-.3-1-.7-1.9-1l-2-.7zm15.8 7.4V49.3h-5.1V47h13v2.3h-5.1v13.9h-2.8zm30.4 0l-1.4-4.1H221l-1.3 4.1h-2.9l5.9-16.2h3.1l5.8 16.2h-2.7zm-7.2-6.1h5.2l-2.6-7.5-2.6 7.5zm17.1-1.3c-1.3-.5-2.2-1.1-2.8-1.8-.6-.7-.9-1.6-.9-2.6 0-1.5.5-2.6 1.5-3.5 1-.9 2.4-1.3 4.1-1.3 1.4 0 2.9.3 4.4.8v2.3c-1.5-.5-2.9-.7-4.1-.7-2 0-3.1.7-3.1 2.1 0 .5.2 1 .6 1.3.4.3 1 .7 2 1l2 .7c1.3.5 2.2 1.1 2.8 1.8s.9 1.6.9 2.6c0 1.6-.6 2.8-1.7 3.7-1.1.9-2.6 1.3-4.6 1.3-.8 0-1.7-.1-2.5-.2-.8-.2-1.6-.4-2.2-.7v-2.3c.8.2 1.5.4 2.4.6.8.1 1.6.2 2.2.2 1.1 0 1.9-.2 2.5-.6.6-.4.9-1 .9-1.7 0-.5-.2-1-.5-1.3-.4-.3-1-.7-1.9-1l-2-.7zm12.3 7.4V47h2.9v7.1l6.4-7.1h3.3l-6.9 7.7 7.6 8.6h-3.6l-6.8-7.7v7.7h-2.9zM73.6 29c-28.5 0-51.5 23.5-51.5 52 0 28.6 23 52.1 51.5 52.1s51.5-23.5 51.5-52.1c0-28.5-23-52-51.5-52zm-8.1 103.4v-10.3c0-3.7-2.2-6.9-5.6-8.4-12.6-5.4-21.4-18-21.4-32.7 0-19.5 15.7-35.5 35.1-35.5s35.1 16 35.1 35.5c0 23-17.6 44.8-43.2 51.4z" fill="#fff"/></svg>