<svg version="1.1" id="圖層_1" xmlns="http://www.w3.org/2000/svg" x="0" y="0" viewBox="0 0 520.8 161" xml:space="preserve"><style>.st5{fill:#757575}</style><path d="M520.8 141c0 11-9 20-20 20H20c-11 0-20-9-20-20V20C0 9 9 0 20 0h480.8c11 0 20 9 20 20v121z" fill="#fff"/><path id="XMLID_24_" d="M136.6 70c3.5 0 6.4-2.9 6.4-6.4 0-3.5-2.9-6.4-6.4-6.4s-6.4 2.9-6.4 6.4c0 3.5 2.8 6.4 6.4 6.4" fill="#34a853"/><path id="XMLID_23_" d="M117.4 91.3c7.1 0 12.8-5.7 12.8-12.8 0-7.1-5.7-12.8-12.8-12.8-7.1 0-12.8 5.7-12.8 12.8 0 7.1 5.7 12.8 12.8 12.8" fill="#ea4335"/><path id="XMLID_22_" d="M117.4 125.5c8.3 0 14.9-6.7 14.9-14.9 0-8.3-6.7-14.9-14.9-14.9s-14.9 6.7-14.9 14.9c-.1 8.2 6.6 14.9 14.9 14.9" fill="#fabb05"/><path id="XMLID_21_" d="M74.7 91.3c14.1 0 25.6-11.5 25.6-25.6 0-14.1-11.5-25.6-25.6-25.6-14.1 0-25.6 11.5-25.6 25.6 0 14.1 11.4 25.6 25.6 25.6" fill="#4284f4"/><path class="st5" d="M209.1 55.2l-6.6 20.6h-3.9L193.5 60l-5.1 15.8h-3.9l-6.6-20.6h4l4.6 15.5 5.1-15.5h4l5.1 15.5 4.5-15.5h3.9zm.1 10.2c0-6.3 4.5-11 10.6-11s10.6 4.6 10.6 11-4.5 11-10.6 11-10.6-4.6-10.6-11zm3.9 0c0 4.4 2.9 7.4 6.7 7.4 3.8 0 6.7-3 6.7-7.4s-3-7.4-6.7-7.4-6.7 3.1-6.7 7.4zm23.4 10.3h-3.9V55.2h3.7v3.4h.2c.8-2.2 3.7-3.9 6-3.9 1.1 0 2.1.2 2.9.5l-1.2 3.7c-.5-.2-1.2-.3-2.3-.3-2.9 0-5.4 2.7-5.4 5.9v11.2zm28.8 0h-4.7l-6.4-9.7-3.1 3.1v6.6h-3.9v-30h3.9v18.5l8.9-9h5v.2l-8 8 8.4 12.3z"/><path class="st5" d="M282 70c0 3.6-3.5 6.4-8.3 6.4-4.2 0-7.5-2.4-8.8-5.9l3.4-1.5c1 2.5 3.1 3.9 5.4 3.9 2.5 0 4.3-1.2 4.3-2.7 0-1.3-1-2.3-3-2.9l-3.5-.9c-4-1-6-2.9-6-5.8 0-3.7 3.4-6.2 8.1-6.2 3.7 0 6.8 1.9 8 4.8l-3.4 1.4c-.8-1.7-2.7-2.8-4.9-2.8-2 0-3.9 1.1-3.9 2.6 0 1.2 1.1 2 3.3 2.5l3.1.8c4.1 1.2 6.2 3.2 6.2 6.3zm40-14.8l-6.6 20.6h-3.9L306.4 60l-5.1 15.8h-3.9l-6.6-20.6h4l4.6 15.5 5.1-15.5h4l5.1 15.5 4.5-15.5h3.9zm6.7-7.1c0 1.5-1.2 2.7-2.7 2.7s-2.7-1.2-2.7-2.7c0-1.5 1.2-2.7 2.7-2.7s2.7 1.1 2.7 2.7zm-.8 7.1v20.6H324V55.2h3.9zM340 76.1c-3.4 0-5.8-2.2-5.9-5.9V58.7h-3.6v-3.5h3.6v-6.3h3.9v6.3h5v3.5h-5v10.2c0 2.7 1.3 3.5 2.6 3.5.6 0 1.2-.2 1.7-.4l1.2 3.4c-.9.5-2.1.7-3.5.7zm6.1-30.4h3.9v9.5l-.2 2.9h.2c1.2-2 3.9-3.5 6.5-3.5 5 0 7.9 3 7.9 8.3v12.9h-3.9V63.6c0-3.7-1.6-5.5-4.9-5.5-3.1 0-5.6 3-5.6 6.5v11.2h-3.9V45.7zm38.5 30.4c-3.4 0-5.8-2.2-5.9-5.9V58.7h-3.6v-3.5h3.6v-6.3h3.9v6.3h5v3.5h-5v10.2c0 2.7 1.3 3.5 2.6 3.5.6 0 1.2-.2 1.7-.4l1.2 3.4c-1 .5-2.2.7-3.5.7zm6.1-30.4h3.9v9.5l-.2 2.9h.2c1.2-2 3.9-3.5 6.5-3.5 5 0 7.9 3 7.9 8.3v12.9h-4V63.6c0-3.7-1.6-5.5-4.9-5.5-3.1 0-5.6 3-5.6 6.5v11.2h-3.9V45.7zm31.1 30.7c-6 0-10.4-4.6-10.4-11 0-6.3 4.2-11 10.2-11 6.1 0 10 4.2 10 11.3v.4h-16.2c.1 4 3.1 6.7 6.6 6.7 2.5 0 4.4-1.2 5.8-3.7l3.4 1.7c-1.8 3.5-5.2 5.6-9.4 5.6zM415.6 63h11.8c-.2-2.9-2.4-5-6-5-2.8 0-5.1 1.9-5.8 5zm-221.2 55.4c-6.2 0-12.1-3.3-15.2-8.6-1.6-2.6-2.3-5.5-2.3-8.6 0-6.1 3.3-11.8 8.7-14.9 2.7-1.6 5.7-2.4 8.7-2.4 4.5 0 8.5 1.6 11.8 4.7l-3.3 3.3c-2.4-2.2-5.2-3.4-8.5-3.4-6.9 0-12.3 5.5-12.3 12.5s5.4 12.5 12.3 12.5c6 0 10.5-3.4 11.3-9.4h-11.3v-4.7h15.8c.2.8.3 1.8.3 2.9.1 9.8-6.7 16.1-16 16.1zm40-11.1c0 6.2-4.9 11.1-11.1 11.1s-11.1-4.9-11.1-11.1c0-6.3 4.8-11.1 11.1-11.1s11.1 4.7 11.1 11.1zm-17.3 0c0 3.8 2.7 6.7 6.3 6.7 3.5 0 6.3-3 6.3-6.7 0-3.9-2.7-6.7-6.3-6.7-3.6 0-6.3 2.8-6.3 6.7zm41.6 0c0 6.2-4.9 11.1-11.1 11.1s-11.1-4.9-11.1-11.1c0-6.3 4.8-11.1 11.1-11.1 6.2 0 11.1 4.7 11.1 11.1zm-17.4 0c0 3.8 2.7 6.7 6.3 6.7 3.5 0 6.3-3 6.3-6.7 0-3.9-2.7-6.7-6.3-6.7-3.5 0-6.3 2.8-6.3 6.7zm30.1 21c-2.2 0-4.3-.7-6-1.8-1.7-1.1-3-2.7-3.9-4.7l4.2-1.8c1 2.4 3.1 3.9 5.6 3.9 3.9 0 5.9-2.3 5.9-7v-1.1h-.2c-1.4 1.7-3.4 2.5-5.8 2.5-2.8 0-5.3-1.1-7.5-3.2-2.1-2.2-3.1-4.8-3.1-7.8 0-6.1 4.9-11.1 10.6-11.1 2.5 0 4.5.8 5.8 2.5h.2v-1.8h4.6v19.9c.2 7.4-3.8 11.5-10.4 11.5zm-5.8-21c0 3.7 2.7 6.7 6.2 6.7 3.3 0 5.9-2.9 5.9-6.7 0-3.8-2.6-6.8-5.9-6.8-3.4.1-6.2 3-6.2 6.8zm19.7-22.2h4.9v32.6h-4.9V85.1zm18.2 33.3c-6.3 0-11-4.8-11-11.1S297 96.2 303 96.2c2.2 0 4.2.7 5.8 1.9 1.6 1.3 2.9 3.1 3.7 5.1l.5 1.3-14.8 6.1c1.1 2.2 2.9 3.4 5.4 3.4 2.3 0 4.1-1 5.5-3.1l3.8 2.5c-2.3 3.3-5.5 5-9.4 5zm-.3-17.9c-3 0-5.9 2.7-5.8 6.5l9.9-4.1c-.6-1.5-2.2-2.4-4.1-2.4zm20.8 17.2h-4.3L331 87.6h4.4l11.3 30.1h-4.3l-2.9-8.1H327l-3 8.1zm9.2-25.3l-4.9 13.6h10l-4.9-13.6h-.2zm31.4 19.6c0 3.6-3.5 6.4-8.3 6.4-4.2 0-7.5-2.3-8.8-5.9l3.4-1.5c1 2.5 3.1 3.9 5.4 3.9 2.5 0 4.3-1.2 4.3-2.7 0-1.3-1-2.3-3-2.9l-3.5-.9c-4-1-6-2.9-6-5.8 0-3.7 3.4-6.2 8.1-6.2 3.7 0 6.8 1.9 8 4.8l-3.4 1.4c-.8-1.7-2.7-2.8-4.9-2.8-2 0-3.9 1.1-3.9 2.6 0 1.2 1.1 2 3.3 2.5l3.1.8c4.1 1.1 6.2 3.2 6.2 6.3zm18.2 0c0 3.6-3.5 6.4-8.3 6.4-4.2 0-7.5-2.3-8.8-5.9l3.4-1.5c1 2.5 3.1 3.9 5.4 3.9 2.5 0 4.3-1.2 4.3-2.7 0-1.3-1-2.3-3-2.9l-3.5-.9c-4-1-6-2.9-6-5.8 0-3.7 3.4-6.2 8.1-6.2 3.7 0 6.8 1.9 8 4.8l-3.4 1.4c-.8-1.7-2.7-2.8-4.9-2.8-2 0-3.9 1.1-3.9 2.6 0 1.2 1.1 2 3.3 2.5l3.1.8c4.2 1.1 6.2 3.2 6.2 6.3zm7.3-22c0 1.5-1.2 2.7-2.7 2.7-1.5 0-2.7-1.2-2.7-2.7s1.2-2.7 2.7-2.7c1.5 0 2.7 1.2 2.7 2.7zm-.8 7.1v20.6h-3.9V97.1h3.9zm20 14.9c0 3.6-3.5 6.4-8.3 6.4-4.2 0-7.5-2.3-8.8-5.9l3.4-1.5c1 2.5 3.1 3.9 5.4 3.9 2.5 0 4.3-1.2 4.3-2.7 0-1.3-1-2.3-3-2.9l-3.5-.9c-4-1-6-2.9-6-5.8 0-3.7 3.4-6.2 8.1-6.2 3.7 0 6.8 1.9 8 4.8l-3.4 1.4c-.8-1.7-2.7-2.8-4.9-2.8-2 0-3.9 1.1-3.9 2.6 0 1.2 1.1 2 3.3 2.5l3.1.8c4.1 1.1 6.2 3.2 6.2 6.3zm10.4 6c-3.4 0-5.8-2.2-5.9-5.9v-11.5h-3.6v-3.5h3.6v-6.3h3.9v6.3h5v3.5h-5v10.2c0 2.7 1.3 3.5 2.6 3.5.6 0 1.2-.2 1.7-.4l1.2 3.4c-1 .6-2.2.7-3.5.7zM433 96.5c5.7 0 9.2 3.2 9.2 8.6v12.7h-3.7v-2.9h-.2c-1.6 2.4-3.7 3.5-6.4 3.5-4.5 0-8-3-8-7.1 0-4.2 3.5-7 8.9-7 2.3 0 4.2.4 5.7 1.3v-.9c0-2.7-2.5-4.8-5.3-4.8-2.1 0-3.9.9-5.1 2.7l-3.4-2.1c1.8-2.7 4.6-4 8.3-4zm-5 14.9c0 2 2 3.5 4.3 3.5 3.2 0 6.3-2.8 6.3-6-1.2-1-2.9-1.4-5-1.4-3.3 0-5.6 1.7-5.6 3.9zm17.7-14.3h3.7v2.9h.2c1.2-2 3.9-3.5 6.5-3.5 5 0 7.9 3 7.9 8.3v12.9h-3.9V105c-.1-3.4-1.8-5-5.1-5-3.1 0-5.4 2.9-5.4 6.3v11.4h-3.9V97.1zm29 20.9c-3.4 0-5.8-2.2-5.9-5.9v-11.5h-3.6v-3.5h3.6v-6.3h3.9v6.3h5v3.5h-5v10.2c0 2.7 1.3 3.5 2.6 3.5.6 0 1.2-.2 1.7-.4l1.2 3.4c-1 .6-2.1.7-3.5.7z"/></svg>