<svg xmlns="http://www.w3.org/2000/svg" xmlns:xlink="http://www.w3.org/1999/xlink" viewBox="0 0 591 591"><defs><path id="a" d="M0 0h591v591H0z"/></defs><clipPath id="b"><use xlink:href="#a" overflow="visible"/></clipPath><path d="M591 295.5C591 458.7 458.7 591 295.5 591S0 458.7 0 295.5 132.3 0 295.5 0 591 132.3 591 295.5" clip-path="url(#b)" fill="#fff"/><path d="M215.9 100.4c68.9 0 124.7 55.8 124.7 124.7s-55.8 124.7-124.7 124.7S91.2 293.9 91.2 225.1s55.9-124.7 124.7-124.7" clip-path="url(#b)" fill="#4285f4"/><path d="M499.8 237.2c0 14-11.3 25.3-25.3 25.3s-25.3-11.3-25.3-25.3 11.3-25.3 25.3-25.3c13.9 0 25.3 11.3 25.3 25.3" clip-path="url(#b)" fill="#34a853"/><path d="M454.1 299c0 28-22.7 50.7-50.7 50.7-28 0-50.7-22.7-50.7-50.7 0-28 22.7-50.7 50.7-50.7 28 .1 50.7 22.8 50.7 50.7" clip-path="url(#b)" fill="#ea4335"/><path d="M464.3 429.8c0 33.6-27.2 60.8-60.8 60.8-33.6 0-60.8-27.2-60.8-60.8 0-33.6 27.2-60.8 60.8-60.8 33.5 0 60.8 27.2 60.8 60.8" clip-path="url(#b)" fill="#fbbc05"/></svg>