<svg xmlns="http://www.w3.org/2000/svg" viewBox="0 0 512 512"><path d="M296.16 54.142L105.073 170.705H0v169.141h105.032l191.299 118.012-.171-403.716zM94.253 309.753h-64.16V200.798h64.16v108.955zm30.093 6.649V194.198l141.743-86.462.124 296.186-141.867-87.52zM445.06 97.169l-20.993 21.563c37.299 36.311 57.839 84.873 57.839 136.741 0 51.672-20.408 100.104-57.465 136.375l21.049 21.506c42.89-41.98 66.51-98.05 66.51-157.883 0-60.058-23.773-116.278-66.94-158.302z"/><path d="M399.602 136.961l-20.342 22.178c26.984 24.75 42.461 59.863 42.461 96.334 0 36.278-15.342 71.265-42.09 95.986l20.426 22.099c32.892-30.401 51.757-73.442 51.757-118.087-.001-44.88-19.032-88.076-52.212-118.51z"/><path d="M353.386 176.586l-18.691 23.585c17.056 13.517 26.838 33.673 26.838 55.302 0 21.448-9.647 41.499-26.467 55.011l18.845 23.462c23.968-19.253 37.715-47.855 37.715-78.472.001-30.876-13.936-59.629-38.24-78.888z"/></svg>